<svg width="24" height="25" viewBox="0 0 24 25" fill="none" xmlns="http://www.w3.org/2000/svg">
<path d="M20.5112 2.41634H3.48881C3.10258 2.4124 2.73057 2.56185 2.4544 2.83188C2.17823 3.10192 2.02047 3.47048 2.01572 3.85669V20.9479C2.02132 21.3335 2.17947 21.7012 2.45554 21.9705C2.73162 22.2399 3.10314 22.3889 3.48881 22.3849H20.5112C20.8975 22.388 21.2692 22.238 21.5453 21.9678C21.8213 21.6976 21.9791 21.3292 21.9843 20.9429V3.85178C21.9774 3.4667 21.8188 3.09989 21.543 2.8311C21.2671 2.56231 20.8964 2.41325 20.5112 2.41634ZM7.93591 19.4387H4.97172V9.90129H7.93591V19.4387ZM6.46282 8.60169C6.12284 8.60201 5.79041 8.5015 5.50757 8.31285C5.22473 8.1242 5.0042 7.85591 4.87387 7.5419C4.74354 7.22789 4.70927 6.88229 4.7754 6.5488C4.84153 6.21532 5.00508 5.90894 5.24537 5.66842C5.48565 5.42791 5.79188 5.26406 6.1253 5.19762C6.45872 5.13117 6.80436 5.16511 7.11849 5.29514C7.43262 5.42517 7.70113 5.64544 7.89004 5.9281C8.07896 6.21076 8.17979 6.5431 8.17979 6.88308C8.17936 7.10905 8.13438 7.33271 8.04741 7.54127C7.96044 7.74984 7.83319 7.9392 7.67295 8.09852C7.51272 8.25785 7.32263 8.38401 7.11358 8.46979C6.90452 8.55557 6.6806 8.59928 6.45464 8.59842L6.46282 8.60169ZM19.0381 19.4387H16.0739V14.7985C16.0739 13.6937 16.0543 12.2713 14.5337 12.2713C13.0132 12.2713 12.7546 13.476 12.7546 14.7265V19.4387H9.79529V9.90129H12.6367V11.2107H12.676C13.0721 10.4611 14.0378 9.6705 15.4798 9.6705C18.4816 9.66395 19.0381 11.6395 19.0381 14.2011V19.4387Z" fill="#41294A"/>
</svg>
