<svg width="24" height="25" viewBox="0 0 24 25" fill="none" xmlns="http://www.w3.org/2000/svg">
<path d="M11.9974 9.51007C10.2245 9.51007 8.77765 10.9569 8.77765 12.7298C8.77765 14.5028 10.2245 15.9496 11.9974 15.9496C13.7703 15.9496 15.2172 14.5028 15.2172 12.7298C15.2172 10.9569 13.7703 9.51007 11.9974 9.51007ZM21.6543 12.7298C21.6543 11.3965 21.6664 10.0753 21.5915 8.74438C21.5166 7.1985 21.164 5.82654 20.0336 4.69612C18.9007 3.56328 17.5312 3.21304 15.9853 3.13817C14.652 3.06329 13.3307 3.07536 11.9998 3.07536C10.6665 3.07536 9.34527 3.06329 8.01437 3.13817C6.46849 3.21304 5.09653 3.5657 3.96611 4.69612C2.83327 5.82896 2.48303 7.1985 2.40815 8.74438C2.33328 10.0777 2.34535 11.3989 2.34535 12.7298C2.34535 14.0607 2.33328 15.3844 2.40815 16.7153C2.48303 18.2612 2.83569 19.6331 3.96611 20.7636C5.09894 21.8964 6.46849 22.2466 8.01437 22.3215C9.34769 22.3964 10.6689 22.3843 11.9998 22.3843C13.3331 22.3843 14.6544 22.3964 15.9853 22.3215C17.5312 22.2466 18.9031 21.894 20.0336 20.7636C21.1664 19.6307 21.5166 18.2612 21.5915 16.7153C21.6688 15.3844 21.6543 14.0632 21.6543 12.7298ZM11.9974 17.6839C9.2559 17.6839 7.04337 15.4714 7.04337 12.7298C7.04337 9.98833 9.2559 7.77579 11.9974 7.77579C14.7389 7.77579 16.9515 9.98833 16.9515 12.7298C16.9515 15.4714 14.7389 17.6839 11.9974 17.6839ZM17.1544 8.72989C16.5143 8.72989 15.9974 8.21299 15.9974 7.5729C15.9974 6.93281 16.5143 6.41591 17.1544 6.41591C17.7944 6.41591 18.3114 6.93281 18.3114 7.5729C18.3115 7.72489 18.2817 7.87542 18.2237 8.01588C18.1656 8.15634 18.0804 8.28396 17.9729 8.39144C17.8654 8.49891 17.7378 8.58413 17.5973 8.64221C17.4569 8.70028 17.3064 8.73008 17.1544 8.72989Z" fill="#41294A"/>
</svg>
