<svg width="97" height="97" viewBox="0 0 97 97" fill="none" xmlns="http://www.w3.org/2000/svg">
<path d="M60.9726 48.4725L57.1851 46.2825L55.7076 45.435L40.7076 36.7725V24.6825L30.8601 18.9975L29.375 18.1425L14.375 9.47998V63.87L67.0401 94.2675V51.975L60.9726 48.4725ZM35.4426 69.9825L19.6475 60.8625V54.825L25.25 58.0575L35.4426 63.945V69.9825ZM35.4426 57.9L30.8601 55.2525L29.375 54.3975L19.6475 48.78V42.735L25.2575 45.975L29.375 48.3525L34.6475 51.3975L35.4426 51.855V57.9ZM35.4426 45.8175L30.8601 43.17L29.375 42.315L19.6475 36.6975V30.6525L25.2575 33.8925L29.375 36.27L34.6475 39.315L35.4426 39.7725V45.8175ZM35.4426 33.7275L30.8675 31.0875L29.375 30.225L19.6475 24.6075V18.57L25.25 21.8025L29.375 24.1875L34.6475 27.2325L35.4426 27.69V33.7275ZM61.7677 85.185L40.7001 73.0275V42.81L50.4351 48.435L51.5751 49.0875L55.7001 51.4725L61.7677 54.975V85.185Z" fill="url(#paint0_linear_160_976)" fill-opacity="0.3" stroke="white" stroke-linecap="round" stroke-linejoin="round"/>
<path d="M25.2584 45.9749L19.6484 48.7799V42.7349L25.2584 45.9749Z" fill="url(#paint1_linear_160_976)" fill-opacity="0.3" stroke="white" stroke-linecap="round" stroke-linejoin="round"/>
<path d="M25.2509 21.8026L19.6484 24.6076V18.5701L25.2509 21.8026Z" fill="url(#paint2_linear_160_976)" fill-opacity="0.3" stroke="white" stroke-linecap="round" stroke-linejoin="round"/>
<path d="M25.2509 58.0574L19.6484 60.8625V54.825L25.2509 58.0574Z" fill="url(#paint3_linear_160_976)" fill-opacity="0.3" stroke="white" stroke-linecap="round" stroke-linejoin="round"/>
<path d="M35.4435 63.945V69.9825L19.6484 60.8625L25.2509 58.0575L35.4435 63.945Z" fill="url(#paint4_linear_160_976)" fill-opacity="0.3" stroke="white" stroke-linecap="round" stroke-linejoin="round"/>
<path d="M35.4435 27.6901V33.7276L30.8684 31.0876L29.3759 30.2251L19.6484 24.6076L25.2509 21.8026L29.3759 24.1876L34.6484 27.2326L35.4435 27.6901Z" fill="url(#paint5_linear_160_976)" fill-opacity="0.3" stroke="white" stroke-linecap="round" stroke-linejoin="round"/>
<path d="M25.2584 33.8925L19.6484 36.6975V30.6525L25.2584 33.8925Z" fill="url(#paint6_linear_160_976)" fill-opacity="0.3" stroke="white" stroke-linecap="round" stroke-linejoin="round"/>
<path d="M56.5027 70.0649V76.1025L46.3177 70.2224L45.9727 70.0274V63.9824L51.9202 67.4174L56.5027 70.0649Z" fill="url(#paint7_linear_160_976)" fill-opacity="0.3" stroke="white" stroke-linecap="round" stroke-linejoin="round"/>
<path d="M61.767 67.4325V73.47L60.2745 74.2125L56.502 76.1025V70.065L60.282 68.175L61.767 67.4325Z" fill="url(#paint8_linear_160_976)" fill-opacity="0.3" stroke="white" stroke-linecap="round" stroke-linejoin="round"/>
<path d="M61.767 55.3424V61.3874L60.9719 61.7849L56.502 64.0199V57.9749L61.767 55.3424Z" fill="url(#paint9_linear_160_976)" fill-opacity="0.3" stroke="white" stroke-linecap="round" stroke-linejoin="round"/>
<path d="M35.4435 39.7723V45.8173L30.8536 43.1698L29.3759 42.3148L19.6484 36.6973L25.2584 33.8923L29.3759 36.2698L34.6484 39.3148L35.4435 39.7723Z" fill="url(#paint10_linear_160_976)" fill-opacity="0.3" stroke="white" stroke-linecap="round" stroke-linejoin="round"/>
<path d="M35.4435 51.8551V57.9001L30.8536 55.2526L29.3759 54.3976L19.6484 48.7801L25.2584 45.9751L29.3759 48.3526L34.6484 51.3976L35.4435 51.8551Z" fill="url(#paint11_linear_160_976)" fill-opacity="0.3" stroke="white" stroke-linecap="round" stroke-linejoin="round"/>
<path d="M61.7671 73.4702V85.185L40.707 73.0277L46.317 70.2227L56.5021 76.1025L60.2746 74.2127L61.7671 73.4702Z" fill="url(#paint12_linear_160_976)" fill-opacity="0.3" stroke="white" stroke-linecap="round" stroke-linejoin="round"/>
<path d="M61.7677 61.3876V67.4326L60.2827 68.1751L56.5027 70.0651L51.9202 67.4176L45.9727 63.9826L49.7527 62.0851L50.4427 61.7476L51.5827 61.1776L55.7077 63.5626L56.5027 64.0201L60.9727 61.7851L61.7677 61.3876Z" fill="url(#paint13_linear_160_976)" fill-opacity="0.3" stroke="white" stroke-linecap="round" stroke-linejoin="round"/>
<path d="M61.7677 54.975V55.3425L56.5027 57.975L55.7077 57.5175L45.9727 51.8925L49.7527 50.0025L50.4427 49.6575L51.5827 49.0875L55.7077 51.4725L61.7677 54.975Z" fill="url(#paint14_linear_160_976)" fill-opacity="0.3" stroke="white" stroke-linecap="round" stroke-linejoin="round"/>
<path d="M55.7076 17.1825L50.0976 19.9875L44.4876 22.7925L40.7076 24.6825L30.8526 18.9975L29.375 18.1425L14.375 9.47998L29.375 1.97998L55.7076 17.1825Z" fill="url(#paint15_linear_160_976)" fill-opacity="0.3" stroke="white" stroke-linecap="round" stroke-linejoin="round"/>
<path d="M55.707 17.1825V29.2725L50.097 32.0775L44.487 34.8825L40.707 36.7725V24.6825L44.487 22.7925L50.097 19.9875L55.707 17.1825Z" fill="url(#paint16_linear_160_976)" fill-opacity="0.3" stroke="white" stroke-linecap="round" stroke-linejoin="round"/>
<path d="M82.0321 44.4751L76.437 47.2801L70.827 50.0851L67.0321 51.9751L60.972 48.4726L57.1845 46.2826L55.707 45.4351L40.707 36.7726L44.487 34.8826L50.097 32.0776L55.707 29.2726L82.0321 44.4751Z" fill="url(#paint17_linear_160_976)" fill-opacity="0.3" stroke="white" stroke-linecap="round" stroke-linejoin="round"/>
<path d="M82.0332 44.4751V86.7675L67.0332 94.2674V51.9751L70.8281 50.0851L76.4381 47.2801L82.0332 44.4751Z" fill="url(#paint18_linear_160_976)" fill-opacity="0.3" stroke="white" stroke-linecap="round" stroke-linejoin="round"/>
<path d="M50.442 60.5174L51.582 61.1774L50.442 61.7474L49.7521 62.0849L45.972 63.9824V70.0274L46.317 70.2224L40.707 73.0274V42.8099L50.442 48.4349L51.582 49.0874L50.442 49.6574L49.7521 50.0024L45.972 51.8924V57.9374L50.442 60.5174Z" fill="url(#paint19_linear_160_976)" fill-opacity="0.3" stroke="white" stroke-linecap="round" stroke-linejoin="round"/>
<path d="M56.5027 57.9748V64.0198L55.7077 63.5623L51.5827 61.1773L50.4427 60.5173L45.9727 57.9373V51.8923L55.7077 57.5173L56.5027 57.9748Z" fill="url(#paint20_linear_160_976)" fill-opacity="0.3" stroke="white" stroke-linecap="round" stroke-linejoin="round"/>
<defs>
<linearGradient id="paint0_linear_160_976" x1="18.3249" y1="-39.1481" x2="86.1387" y2="-33.8829" gradientUnits="userSpaceOnUse">
<stop offset="0.0992937" stop-color="#5D007F"/>
<stop offset="0.556576" stop-color="#9E2FF4"/>
<stop offset="1" stop-color="#DE5AF9"/>
</linearGradient>
<linearGradient id="paint1_linear_160_976" x1="20.0692" y1="39.2679" x2="27.2399" y2="40.0997" gradientUnits="userSpaceOnUse">
<stop offset="0.0992937" stop-color="#5D007F"/>
<stop offset="0.556576" stop-color="#9E2FF4"/>
<stop offset="1" stop-color="#DE5AF9"/>
</linearGradient>
<linearGradient id="paint2_linear_160_976" x1="20.0686" y1="15.1074" x2="27.2297" y2="15.938" gradientUnits="userSpaceOnUse">
<stop offset="0.0992937" stop-color="#5D007F"/>
<stop offset="0.556576" stop-color="#9E2FF4"/>
<stop offset="1" stop-color="#DE5AF9"/>
</linearGradient>
<linearGradient id="paint3_linear_160_976" x1="20.0686" y1="51.3623" x2="27.2297" y2="52.1929" gradientUnits="userSpaceOnUse">
<stop offset="0.0992937" stop-color="#5D007F"/>
<stop offset="0.556576" stop-color="#9E2FF4"/>
<stop offset="1" stop-color="#DE5AF9"/>
</linearGradient>
<linearGradient id="paint4_linear_160_976" x1="20.8331" y1="51.2182" x2="40.7481" y2="54.5154" gradientUnits="userSpaceOnUse">
<stop offset="0.0992937" stop-color="#5D007F"/>
<stop offset="0.556576" stop-color="#9E2FF4"/>
<stop offset="1" stop-color="#DE5AF9"/>
</linearGradient>
<linearGradient id="paint5_linear_160_976" x1="20.8331" y1="14.9633" x2="40.7481" y2="18.2605" gradientUnits="userSpaceOnUse">
<stop offset="0.0992937" stop-color="#5D007F"/>
<stop offset="0.556576" stop-color="#9E2FF4"/>
<stop offset="1" stop-color="#DE5AF9"/>
</linearGradient>
<linearGradient id="paint6_linear_160_976" x1="20.0692" y1="27.1855" x2="27.2399" y2="28.0173" gradientUnits="userSpaceOnUse">
<stop offset="0.0992937" stop-color="#5D007F"/>
<stop offset="0.556576" stop-color="#9E2FF4"/>
<stop offset="1" stop-color="#DE5AF9"/>
</linearGradient>
<linearGradient id="paint7_linear_160_976" x1="46.7624" y1="57.0312" x2="60.2441" y2="58.4953" gradientUnits="userSpaceOnUse">
<stop offset="0.0992937" stop-color="#5D007F"/>
<stop offset="0.556576" stop-color="#9E2FF4"/>
<stop offset="1" stop-color="#DE5AF9"/>
</linearGradient>
<linearGradient id="paint8_linear_160_976" x1="56.8968" y1="62.46" x2="63.6781" y2="62.9747" gradientUnits="userSpaceOnUse">
<stop offset="0.0992937" stop-color="#5D007F"/>
<stop offset="0.556576" stop-color="#9E2FF4"/>
<stop offset="1" stop-color="#DE5AF9"/>
</linearGradient>
<linearGradient id="paint9_linear_160_976" x1="56.8968" y1="50.3656" x2="63.6781" y2="50.8799" gradientUnits="userSpaceOnUse">
<stop offset="0.0992937" stop-color="#5D007F"/>
<stop offset="0.556576" stop-color="#9E2FF4"/>
<stop offset="1" stop-color="#DE5AF9"/>
</linearGradient>
<linearGradient id="paint10_linear_160_976" x1="20.8331" y1="27.053" x2="40.7481" y2="30.3502" gradientUnits="userSpaceOnUse">
<stop offset="0.0992937" stop-color="#5D007F"/>
<stop offset="0.556576" stop-color="#9E2FF4"/>
<stop offset="1" stop-color="#DE5AF9"/>
</linearGradient>
<linearGradient id="paint11_linear_160_976" x1="20.8331" y1="39.1358" x2="40.7481" y2="42.433" gradientUnits="userSpaceOnUse">
<stop offset="0.0992937" stop-color="#5D007F"/>
<stop offset="0.556576" stop-color="#9E2FF4"/>
<stop offset="1" stop-color="#DE5AF9"/>
</linearGradient>
<linearGradient id="paint12_linear_160_976" x1="42.2865" y1="61.6413" x2="68.7487" y2="66.2971" gradientUnits="userSpaceOnUse">
<stop offset="0.0992937" stop-color="#5D007F"/>
<stop offset="0.556576" stop-color="#9E2FF4"/>
<stop offset="1" stop-color="#DE5AF9"/>
</linearGradient>
<linearGradient id="paint13_linear_160_976" x1="47.1573" y1="56.0804" x2="66.656" y2="60.412" gradientUnits="userSpaceOnUse">
<stop offset="0.0992937" stop-color="#5D007F"/>
<stop offset="0.556576" stop-color="#9E2FF4"/>
<stop offset="1" stop-color="#DE5AF9"/>
</linearGradient>
<linearGradient id="paint14_linear_160_976" x1="47.1573" y1="43.9903" x2="66.656" y2="48.322" gradientUnits="userSpaceOnUse">
<stop offset="0.0992937" stop-color="#5D007F"/>
<stop offset="0.556576" stop-color="#9E2FF4"/>
<stop offset="1" stop-color="#DE5AF9"/>
</linearGradient>
<linearGradient id="paint15_linear_160_976" x1="17.4749" y1="-11.0406" x2="68.3809" y2="0.544394" gradientUnits="userSpaceOnUse">
<stop offset="0.0992937" stop-color="#5D007F"/>
<stop offset="0.556576" stop-color="#9E2FF4"/>
<stop offset="1" stop-color="#DE5AF9"/>
</linearGradient>
<linearGradient id="paint16_linear_160_976" x1="41.832" y1="5.94706" x2="61.0867" y2="7.78995" gradientUnits="userSpaceOnUse">
<stop offset="0.0992937" stop-color="#5D007F"/>
<stop offset="0.556576" stop-color="#9E2FF4"/>
<stop offset="1" stop-color="#DE5AF9"/>
</linearGradient>
<linearGradient id="paint17_linear_160_976" x1="43.8064" y1="16.252" x2="94.704" y2="27.833" gradientUnits="userSpaceOnUse">
<stop offset="0.0992937" stop-color="#5D007F"/>
<stop offset="0.556576" stop-color="#9E2FF4"/>
<stop offset="1" stop-color="#DE5AF9"/>
</linearGradient>
<linearGradient id="paint18_linear_160_976" x1="68.1582" y1="15.9177" x2="87.5618" y2="16.6484" gradientUnits="userSpaceOnUse">
<stop offset="0.0992937" stop-color="#5D007F"/>
<stop offset="0.556576" stop-color="#9E2FF4"/>
<stop offset="1" stop-color="#DE5AF9"/>
</linearGradient>
<linearGradient id="paint19_linear_160_976" x1="41.5227" y1="25.4793" x2="55.5817" y2="26.1118" gradientUnits="userSpaceOnUse">
<stop offset="0.0992937" stop-color="#5D007F"/>
<stop offset="0.556576" stop-color="#9E2FF4"/>
<stop offset="1" stop-color="#DE5AF9"/>
</linearGradient>
<linearGradient id="paint20_linear_160_976" x1="46.7624" y1="44.9369" x2="60.2443" y2="46.4001" gradientUnits="userSpaceOnUse">
<stop offset="0.0992937" stop-color="#5D007F"/>
<stop offset="0.556576" stop-color="#9E2FF4"/>
<stop offset="1" stop-color="#DE5AF9"/>
</linearGradient>
</defs>
</svg>
