<svg width="97" height="97" viewBox="0 0 97 97" fill="none" xmlns="http://www.w3.org/2000/svg">
<path d="M87.7244 75.2593V83.6353L71.7246 91.6352V75.8353L78.6125 79.8113L79.9486 79.1473L87.7244 75.2593Z" fill="url(#paint0_linear_160_999)" fill-opacity="0.3" stroke="white" stroke-linecap="round" stroke-linejoin="round"/>
<path d="M94.6112 56.0114V71.8114L87.7232 75.2594L79.9475 79.1474L78.6113 79.8114V64.0114L94.6112 56.0114Z" fill="url(#paint1_linear_160_999)" fill-opacity="0.3" stroke="white" stroke-linecap="round" stroke-linejoin="round"/>
<path d="M73.957 61.3235L58.4929 52.3955L42.9809 43.4355C42.7649 42.6035 42.5249 41.7795 42.2529 40.9555C40.8209 36.4915 38.637 32.1555 35.709 27.9315C34.973 26.8755 34.2129 25.8675 33.4209 24.9155C30.4929 21.3555 27.197 18.5235 23.533 16.4115C22.141 15.6035 20.797 14.9715 19.509 14.4995C15.901 13.1715 12.6929 13.1315 9.88495 14.3795L8.90095 14.8755C4.88498 17.1635 2.87695 21.6035 2.87695 28.1875C2.87695 34.7715 4.88498 41.5235 8.90095 48.4515C12.9169 55.3795 17.797 60.4995 23.533 63.8115C28.181 66.4915 32.237 67.3395 35.709 66.3475C36.309 66.1795 36.8849 65.9555 37.4209 65.7075L38.0209 65.4035C40.2849 64.1395 41.9329 62.0915 42.9809 59.2355L46.4049 61.2115L57.957 67.8834V83.6832L71.725 91.6352V75.8355L78.6129 79.8115V64.0115L73.957 61.3235ZM29.6529 47.3155C29.3329 47.8115 28.9169 48.2035 28.3969 48.4995C27.0449 49.2675 25.429 49.0995 23.533 48.0115C21.645 46.9155 20.0209 45.2114 18.6689 42.8834C17.3249 40.5554 16.6529 38.3075 16.6529 36.1315C16.6529 33.9555 17.3249 32.4915 18.6689 31.7235C19.2929 31.3715 19.973 31.2115 20.717 31.2515C21.573 31.2995 22.509 31.6275 23.533 32.2115C25.429 33.2995 27.0449 35.0115 28.3969 37.3395C29.7489 39.6595 30.4209 41.9154 30.4209 44.0834C30.4209 45.4274 30.1649 46.5075 29.6529 47.3155Z" fill="url(#paint2_linear_160_999)" fill-opacity="0.3" stroke="white" stroke-linecap="round" stroke-linejoin="round"/>
<path d="M94.6124 56.0115L78.6125 64.0115L73.9566 61.3235L58.4925 52.3954L42.9805 43.4354L58.9805 35.4354L94.6124 56.0115Z" fill="url(#paint3_linear_160_999)" fill-opacity="0.3" stroke="white" stroke-linecap="round" stroke-linejoin="round"/>
<path d="M30.4203 44.0834C30.4203 45.4274 30.1643 46.5074 29.6523 47.3154C29.3323 47.8114 28.9163 48.2034 28.3963 48.4994C27.0443 49.2674 25.4284 49.0994 23.5324 48.0114C21.6444 46.9154 20.0203 45.2114 18.6683 42.8834C17.3243 40.5554 16.6523 38.3074 16.6523 36.1314C16.6523 33.9554 17.3243 32.4914 18.6683 31.7234C19.2923 31.3714 19.9724 31.2114 20.7164 31.2514C21.5724 31.2994 22.5084 31.6274 23.5324 32.2114C25.4284 33.2994 27.0443 35.0114 28.3963 37.3394C29.7483 39.6594 30.4203 41.9154 30.4203 44.0834Z" fill="url(#paint4_linear_160_999)" fill-opacity="0.3" stroke="white" stroke-linecap="round" stroke-linejoin="round"/>
<path d="M58.9807 35.4353L42.9807 43.4353C42.7647 42.6033 42.5248 41.7793 42.2528 40.9553C40.8208 36.4913 38.6368 32.1553 35.7088 27.9313C34.9728 26.8753 34.2127 25.8673 33.4207 24.9153C30.4927 21.3553 27.1968 18.5233 23.5328 16.4113C22.1408 15.6033 20.7968 14.9713 19.5088 14.4993C15.9008 13.1713 12.6928 13.1313 9.88477 14.3793L24.9008 6.87536C28.9168 4.58736 33.7968 5.09936 39.5328 8.41136C44.1808 11.0914 48.2368 14.9313 51.7088 19.9313C55.1808 24.9313 57.6047 30.0993 58.9807 35.4353Z" fill="url(#paint5_linear_160_999)" fill-opacity="0.3" stroke="white" stroke-linecap="round" stroke-linejoin="round"/>
<path d="M46.4035 61.2115L38.0195 65.4035C40.2835 64.1395 41.9315 62.0914 42.9795 59.2354L46.4035 61.2115Z" fill="url(#paint6_linear_160_999)" fill-opacity="0.3" stroke="white" stroke-linecap="round" stroke-linejoin="round"/>
<defs>
<linearGradient id="paint0_linear_160_999" x1="72.9246" y1="65.8672" x2="93.3462" y2="68.3613" gradientUnits="userSpaceOnUse">
<stop offset="0.0992937" stop-color="#5D007F"/>
<stop offset="0.556576" stop-color="#9E2FF4"/>
<stop offset="1" stop-color="#DE5AF9"/>
</linearGradient>
<linearGradient id="paint1_linear_160_999" x1="79.8113" y1="42.3614" x2="100.392" y2="44.0909" gradientUnits="userSpaceOnUse">
<stop offset="0.0992937" stop-color="#5D007F"/>
<stop offset="0.556576" stop-color="#9E2FF4"/>
<stop offset="1" stop-color="#DE5AF9"/>
</linearGradient>
<linearGradient id="paint2_linear_160_999" x1="8.55714" y1="-31.3559" x2="105.247" y2="-19.645" gradientUnits="userSpaceOnUse">
<stop offset="0.0992937" stop-color="#5D007F"/>
<stop offset="0.556576" stop-color="#9E2FF4"/>
<stop offset="1" stop-color="#DE5AF9"/>
</linearGradient>
<linearGradient id="paint3_linear_160_999" x1="46.8529" y1="19.0462" x2="110.491" y2="33.419" gradientUnits="userSpaceOnUse">
<stop offset="0.0992937" stop-color="#5D007F"/>
<stop offset="0.556576" stop-color="#9E2FF4"/>
<stop offset="1" stop-color="#DE5AF9"/>
</linearGradient>
<linearGradient id="paint4_linear_160_999" x1="17.6849" y1="21.078" x2="35.3535" y2="22.7933" gradientUnits="userSpaceOnUse">
<stop offset="0.0992937" stop-color="#5D007F"/>
<stop offset="0.556576" stop-color="#9E2FF4"/>
<stop offset="1" stop-color="#DE5AF9"/>
</linearGradient>
<linearGradient id="paint5_linear_160_999" x1="13.567" y1="-16.2993" x2="75.5463" y2="-6.27974" gradientUnits="userSpaceOnUse">
<stop offset="0.0992937" stop-color="#5D007F"/>
<stop offset="0.556576" stop-color="#9E2FF4"/>
<stop offset="1" stop-color="#DE5AF9"/>
</linearGradient>
<linearGradient id="paint6_linear_160_999" x1="38.6483" y1="55.6978" x2="49.2043" y2="57.4914" gradientUnits="userSpaceOnUse">
<stop offset="0.0992937" stop-color="#5D007F"/>
<stop offset="0.556576" stop-color="#9E2FF4"/>
<stop offset="1" stop-color="#DE5AF9"/>
</linearGradient>
</defs>
</svg>
