<svg width="97" height="97" viewBox="0 0 97 97" fill="none" xmlns="http://www.w3.org/2000/svg">
<path d="M73.0241 50.8156V78.8511L67.7619 75.8111L62.4286 72.7356L62.2508 72.6289L60.2597 71.4822L54.153 67.9533L51.9486 66.6822L48.5886 64.7445C47.6908 64.2289 46.8641 63.9445 46.1086 63.9C45.9575 63.8911 45.8063 63.8911 45.6641 63.9H45.6552C45.1575 63.9178 44.713 64.06 44.2775 64.3089C43.9397 64.4956 43.6641 64.7267 43.433 65.0111H43.4241C42.793 65.7578 42.4819 66.8245 42.4819 68.22V82.8511L47.2908 80.1045L51.6463 87.5267L39.433 94.496L27.2108 73.42L31.4863 70.9845L36.3752 79.3222V64.6911C36.3752 62.7622 35.7797 60.7711 34.5797 58.7089C33.3886 56.6467 31.9486 55.1267 30.2686 54.1578L5.83301 40.0511V12.0156L11.9397 15.5445V36.5667L30.2686 47.1445C32.0997 48.2022 33.8063 49.6156 35.3797 51.3756C36.9619 53.1267 38.313 55.0645 39.433 57.1711C39.8152 56.8867 40.233 56.6556 40.6775 56.4778C40.8286 56.4156 40.9797 56.3622 41.1308 56.3178H41.1486C41.8597 56.0956 42.633 56.0067 43.4775 56.0422C45.0508 56.1045 46.7575 56.6733 48.5886 57.7311L54.153 60.94L60.2597 64.4689L66.9175 68.3089V47.2778L73.0241 50.8067V50.8156Z" fill="url(#paint0_linear_160_829)" fill-opacity="0.3" stroke="white" stroke-linecap="round" stroke-linejoin="round"/>
<path d="M29.7182 6.66443V27.6866L23.6115 30.7444L11.9404 36.5755V15.5533L23.6115 9.72219L29.7182 6.66443Z" fill="url(#paint1_linear_160_829)" fill-opacity="0.3" stroke="white" stroke-linecap="round" stroke-linejoin="round"/>
<path d="M29.7175 6.6643L23.6108 9.72204L11.9397 15.5532L5.83301 12.0243L23.6108 3.13538L29.7175 6.6643Z" fill="url(#paint2_linear_160_829)" fill-opacity="0.3" stroke="white" stroke-linecap="round" stroke-linejoin="round"/>
<path d="M69.4243 78.6466L56.8199 84.9489L51.6466 87.5355L47.291 80.1133L52.5088 77.5089L60.2599 73.6333L62.251 72.6289L62.4289 72.7356L67.7622 75.811L69.4243 78.6466Z" fill="url(#paint3_linear_160_829)" fill-opacity="0.3" stroke="white" stroke-linecap="round" stroke-linejoin="round"/>
<path d="M69.4247 78.6467L57.2114 85.6156L39.4336 94.5049L51.6469 87.5356L56.8203 84.9489L69.4247 78.6467Z" fill="url(#paint4_linear_160_829)" fill-opacity="0.3" stroke="white" stroke-linecap="round" stroke-linejoin="round"/>
<path d="M90.8022 41.9266V69.9622L73.0244 78.8511V50.8155L84.6955 44.9844L90.8022 41.9266Z" fill="url(#paint5_linear_160_829)" fill-opacity="0.3" stroke="white" stroke-linecap="round" stroke-linejoin="round"/>
<path d="M90.8024 41.9264L84.6957 44.9841L73.0246 50.8152L66.918 47.2863L84.6957 38.3975L90.8024 41.9264Z" fill="url(#paint6_linear_160_829)" fill-opacity="0.3" stroke="white" stroke-linecap="round" stroke-linejoin="round"/>
<path d="M66.9177 49.1711V68.3178L60.26 64.4777L54.1533 60.9489L48.5888 57.74C46.7577 56.6822 45.0511 56.1133 43.4777 56.0511C42.6333 56.0156 41.86 56.1045 41.1488 56.3178H41.1311C40.98 56.3711 40.8288 56.4245 40.6777 56.4867L57.1755 48.2289L57.8777 47.8733L58.18 47.7222C59.0866 47.3045 60.1088 47.1178 61.2555 47.1622C62.8288 47.2245 64.5355 47.7933 66.3666 48.8511L66.9177 49.1711Z" fill="url(#paint7_linear_160_829)" fill-opacity="0.3" stroke="white" stroke-linecap="round" stroke-linejoin="round"/>
<path d="M57.176 48.2288L40.6782 56.4866C40.2337 56.6644 39.816 56.8955 39.4337 57.1799C38.3137 55.0733 36.9626 53.1355 35.3804 51.3844C33.8071 49.6244 32.1004 48.211 30.2693 47.1533L11.9404 36.5755L23.6115 30.7444L29.7182 27.6866L48.0471 38.2644C49.8782 39.3221 51.5849 40.7355 53.1582 42.4955C54.7226 44.2288 56.0649 46.1488 57.176 48.2288Z" fill="url(#paint8_linear_160_829)" fill-opacity="0.3" stroke="white" stroke-linecap="round" stroke-linejoin="round"/>
<path d="M60.2602 71.4821V73.6331L52.5091 77.5088L47.2913 80.1132L42.4824 82.8598V68.2288C42.4824 66.8332 42.7935 65.7665 43.4246 65.0287C43.6558 64.7354 43.9313 64.5043 44.2691 64.3177C44.7046 64.0688 45.1491 63.9265 45.6469 63.9088H45.6558C45.798 63.891 45.9491 63.891 46.1002 63.8999C46.8558 63.9443 47.6824 64.2287 48.5802 64.7442L51.9402 66.6821L54.1446 67.9532L60.2513 71.4821H60.2602Z" fill="url(#paint9_linear_160_829)" fill-opacity="0.3" stroke="white" stroke-linecap="round" stroke-linejoin="round"/>
<path d="M36.3762 68.5485V79.3308L31.4873 70.993L36.3762 68.5485Z" fill="url(#paint10_linear_160_829)" fill-opacity="0.3" stroke="white" stroke-linecap="round" stroke-linejoin="round"/>
<defs>
<linearGradient id="paint0_linear_160_829" x1="10.8723" y1="-35.2894" x2="97.0187" y2="-26.5172" gradientUnits="userSpaceOnUse">
<stop offset="0.0992937" stop-color="#5D007F"/>
<stop offset="0.556576" stop-color="#9E2FF4"/>
<stop offset="1" stop-color="#DE5AF9"/>
</linearGradient>
<linearGradient id="paint1_linear_160_829" x1="13.2738" y1="-10.4905" x2="36.1767" y2="-8.78891" gradientUnits="userSpaceOnUse">
<stop offset="0.0992937" stop-color="#5D007F"/>
<stop offset="0.556576" stop-color="#9E2FF4"/>
<stop offset="1" stop-color="#DE5AF9"/>
</linearGradient>
<linearGradient id="paint2_linear_160_829" x1="7.62434" y1="-3.98658" x2="36.8736" y2="3.04566" gradientUnits="userSpaceOnUse">
<stop offset="0.0992937" stop-color="#5D007F"/>
<stop offset="0.556576" stop-color="#9E2FF4"/>
<stop offset="1" stop-color="#DE5AF9"/>
</linearGradient>
<linearGradient id="paint3_linear_160_829" x1="48.951" y1="64.0796" x2="76.6679" y2="69.2238" gradientUnits="userSpaceOnUse">
<stop offset="0.0992937" stop-color="#5D007F"/>
<stop offset="0.556576" stop-color="#9E2FF4"/>
<stop offset="1" stop-color="#DE5AF9"/>
</linearGradient>
<linearGradient id="paint4_linear_160_829" x1="41.6829" y1="69.5515" x2="78.4773" y2="78.2497" gradientUnits="userSpaceOnUse">
<stop offset="0.0992937" stop-color="#5D007F"/>
<stop offset="0.556576" stop-color="#9E2FF4"/>
<stop offset="1" stop-color="#DE5AF9"/>
</linearGradient>
<linearGradient id="paint5_linear_160_829" x1="74.3577" y1="20.7493" x2="97.304" y2="22.1302" gradientUnits="userSpaceOnUse">
<stop offset="0.0992937" stop-color="#5D007F"/>
<stop offset="0.556576" stop-color="#9E2FF4"/>
<stop offset="1" stop-color="#DE5AF9"/>
</linearGradient>
<linearGradient id="paint6_linear_160_829" x1="68.7093" y1="31.2755" x2="97.9586" y2="38.3077" gradientUnits="userSpaceOnUse">
<stop offset="0.0992937" stop-color="#5D007F"/>
<stop offset="0.556576" stop-color="#9E2FF4"/>
<stop offset="1" stop-color="#DE5AF9"/>
</linearGradient>
<linearGradient id="paint7_linear_160_829" x1="42.6457" y1="35.0188" x2="75.8397" y2="40.1637" gradientUnits="userSpaceOnUse">
<stop offset="0.0992937" stop-color="#5D007F"/>
<stop offset="0.556576" stop-color="#9E2FF4"/>
<stop offset="1" stop-color="#DE5AF9"/>
</linearGradient>
<linearGradient id="paint8_linear_160_829" x1="15.3331" y1="10.7713" x2="71.8539" y2="21.6074" gradientUnits="userSpaceOnUse">
<stop offset="0.0992937" stop-color="#5D007F"/>
<stop offset="0.556576" stop-color="#9E2FF4"/>
<stop offset="1" stop-color="#DE5AF9"/>
</linearGradient>
<linearGradient id="paint9_linear_160_829" x1="43.8158" y1="53.0166" x2="66.5333" y2="55.6784" gradientUnits="userSpaceOnUse">
<stop offset="0.0992937" stop-color="#5D007F"/>
<stop offset="0.556576" stop-color="#9E2FF4"/>
<stop offset="1" stop-color="#DE5AF9"/>
</linearGradient>
<linearGradient id="paint10_linear_160_829" x1="31.854" y1="62.3646" x2="38.1668" y2="62.7223" gradientUnits="userSpaceOnUse">
<stop offset="0.0992937" stop-color="#5D007F"/>
<stop offset="0.556576" stop-color="#9E2FF4"/>
<stop offset="1" stop-color="#DE5AF9"/>
</linearGradient>
</defs>
</svg>
