<svg width="97" height="97" viewBox="0 0 97 97" fill="none" xmlns="http://www.w3.org/2000/svg">
<path d="M35.7448 62.5061L31.0156 59.7756V54.4169L36.091 57.352C35.9021 58.131 35.7762 58.9494 35.7133 59.8071C35.6582 60.6727 35.6661 61.5697 35.7448 62.5061Z" fill="url(#paint0_linear_160_574)" fill-opacity="0.2" stroke="#FEFBF5" stroke-width="0.786885" stroke-linecap="round" stroke-linejoin="round"/>
<path d="M59.7453 81.4544C60.2883 80.7856 60.6974 79.9987 60.9649 79.078C61.2403 78.1652 61.3742 77.1265 61.3742 75.9698C61.3742 72.6177 60.359 69.179 58.3131 65.6537C56.2672 62.1285 53.7886 59.5239 50.8692 57.84C49.744 57.1869 48.6816 56.7541 47.6901 56.5337C46.3603 56.2269 45.1564 56.2977 44.0627 56.7462L43.4252 57.061C43.4252 57.061 43.4096 57.0688 43.4017 57.0767C42.3237 57.6983 41.5289 58.6269 41.0253 59.8623C40.986 59.9724 40.9465 60.0669 40.9072 60.1692C40.5374 61.1921 40.3564 62.4118 40.3564 63.8282C40.3564 64.497 40.3957 65.1659 40.4823 65.8426C40.7341 67.9829 41.4029 70.1626 42.481 72.3737C42.7642 72.9639 43.079 73.5541 43.4252 74.1442C45.4633 77.6695 47.9499 80.2741 50.8692 81.958C51.8764 82.5403 52.8521 82.9495 53.7885 83.1777C54.717 83.4059 55.6142 83.4531 56.4719 83.3193L62.7748 94.1941L66.0482 92.3292L59.7453 81.4544ZM55.0161 77.0478C53.883 77.6931 52.4981 77.5436 50.8692 76.5993C49.2325 75.6551 47.8476 74.2072 46.7223 72.2636C46.4076 71.7285 46.14 71.1934 45.9196 70.6583C45.3216 69.2577 45.0305 67.8806 45.0305 66.5272C45.0305 65.7088 45.1407 65.0006 45.3689 64.4183C45.6286 63.6708 46.085 63.1121 46.7223 62.7501C47.8476 62.1049 49.2325 62.2544 50.8692 63.1987C52.1755 63.9541 53.3243 65.04 54.3079 66.4406C54.3079 66.4485 54.3237 66.4485 54.3237 66.4564C54.5676 66.7947 54.7958 67.1567 55.0161 67.5344C56.1414 69.4859 56.7078 71.3901 56.7078 73.2708C56.7078 75.1515 56.1414 76.4026 55.0161 77.0478Z" fill="url(#paint1_linear_160_574)" fill-opacity="0.2" stroke="#FEFBF5" stroke-width="0.786885" stroke-linecap="round" stroke-linejoin="round"/>
<path d="M40.7646 59.996L41.0244 59.8701Z" fill="url(#paint2_linear_160_574)" fill-opacity="0.2"/>
<path d="M40.7646 59.996L41.0244 59.8701" stroke="#FEFBF5" stroke-width="0.786885" stroke-linecap="round" stroke-linejoin="round"/>
<path d="M54.3459 44.6831C54.157 44.8562 53.984 45.0529 53.8188 45.2654L48.8377 47.752L46.7525 48.7985L40.481 51.9382L38.0811 53.1343C38.6633 52.4025 39.34 51.8123 40.119 51.3638C40.1662 51.3402 40.2135 51.3087 40.2607 51.2929C41.0004 50.8916 41.8109 50.632 42.6922 50.5061L46.7525 48.4759L48.5387 47.5788L53.5197 45.0923L54.3459 44.6831Z" fill="url(#paint3_linear_160_574)" fill-opacity="0.2" stroke="#FEFBF5" stroke-width="0.786885" stroke-linecap="round" stroke-linejoin="round"/>
<path d="M51.8287 49.4832C51.6398 50.2622 51.5139 51.0805 51.451 51.9382C51.4273 52.3081 51.4115 52.6779 51.4115 53.0635L49.9952 53.7796L44.0621 56.7461L43.4246 57.0609C43.4246 57.0609 43.409 57.0687 43.4011 57.0766C42.3231 57.6982 41.5283 58.6268 41.0247 59.8622L40.765 59.9959L35.7447 62.5061C35.666 61.5697 35.6582 60.6727 35.7132 59.8071C35.7762 58.9494 35.9021 58.131 36.091 57.352L38.2864 56.2582L41.6857 54.5586L46.8555 51.9697L51.8287 49.4832Z" fill="url(#paint4_linear_160_574)" fill-opacity="0.2" stroke="#FEFBF5" stroke-width="0.786885" stroke-linecap="round" stroke-linejoin="round"/>
<path d="M81.7855 84.4603L78.5121 86.3252L62.7744 94.1941L66.0478 92.3292L78.4098 86.1521L81.7855 84.4603Z" fill="url(#paint5_linear_160_574)" fill-opacity="0.2" stroke="#FEFBF5" stroke-width="0.786885" stroke-linecap="round" stroke-linejoin="round"/>
<path d="M81.7847 84.4603L78.4091 86.1521L66.047 92.3292L59.7441 81.4544L71.634 75.5054H71.6418L75.4818 73.5854L81.7847 84.4603Z" fill="url(#paint6_linear_160_574)" fill-opacity="0.2" stroke="#FEFBF5" stroke-width="0.786885" stroke-linecap="round" stroke-linejoin="round"/>
<path d="M56.7067 73.2707C56.7067 75.1435 56.1402 76.4025 55.0149 77.0477C53.8818 77.693 52.4969 77.5435 50.8681 76.5992C49.2313 75.6549 47.8464 74.2071 46.7212 72.2635C46.4064 71.7284 46.1388 71.1933 45.9185 70.6582C45.3204 69.2576 45.0293 67.8805 45.0293 66.5271C45.0293 65.7087 45.1395 65.0005 45.3677 64.4182C45.6274 63.6707 46.0838 63.112 46.7212 62.75C47.8464 62.1048 49.2313 62.2543 50.8681 63.1985C52.1743 63.9539 53.3231 65.0398 54.3068 66.4405C54.3068 66.4484 54.3225 66.4484 54.3225 66.4562C54.5664 66.7946 54.7946 67.1566 55.0149 67.5343C56.1402 69.4857 56.7067 71.39 56.7067 73.2707Z" fill="url(#paint7_linear_160_574)" fill-opacity="0.2" stroke="#FEFBF5" stroke-width="0.786885" stroke-linecap="round" stroke-linejoin="round"/>
<path d="M51.8287 49.4833L46.8556 51.9698L41.6857 54.5586L38.2864 56.2583L36.091 57.3521L31.0156 54.4171L35.9887 51.9304L36.3742 52.1507L38.0819 53.1344L40.4818 51.9384L46.7533 48.7987L48.8385 47.7521L51.8287 49.4833Z" fill="url(#paint8_linear_160_574)" fill-opacity="0.2" stroke="#FEFBF5" stroke-width="0.786885" stroke-linecap="round" stroke-linejoin="round"/>
<path d="M58.4301 39.5605V42.6372L54.354 44.6752L54.3462 44.6831L53.5199 45.0923L48.5389 47.5788L46.7528 48.4759L42.6924 50.5061V42.4011L47.3585 45.0923L50.6557 43.4398L58.4301 39.5605Z" fill="url(#paint9_linear_160_574)" fill-opacity="0.2" stroke="#FEFBF5" stroke-width="0.786885" stroke-linecap="round" stroke-linejoin="round"/>
<path d="M38.0188 40.1979V47.7441L35.0995 46.0602L31.0156 43.6996L35.0759 41.6693L38.0188 40.1979Z" fill="url(#paint10_linear_160_574)" fill-opacity="0.2" stroke="#FEFBF5" stroke-width="0.786885" stroke-linecap="round" stroke-linejoin="round"/>
<path d="M63.0961 21.1475V37.2235L58.43 39.5606L50.6555 43.4399L47.3584 45.0924V29.0163L48.1689 28.6071L63.0961 21.1475Z" fill="url(#paint11_linear_160_574)" fill-opacity="0.2" stroke="#FEFBF5" stroke-width="0.786885" stroke-linecap="round" stroke-linejoin="round"/>
<path d="M63.0968 21.1475L48.1696 28.6071L47.3591 29.0163L39.7421 24.6176L35.0758 21.9265L14.6641 10.1389L30.4018 2.27008L63.0968 21.1475Z" fill="url(#paint12_linear_160_574)" fill-opacity="0.2" stroke="#FEFBF5" stroke-width="0.786885" stroke-linecap="round" stroke-linejoin="round"/>
<path d="M47.3591 29.0163V45.0924L42.6929 42.4012V50.5061C41.8116 50.632 41.0011 50.8917 40.2614 51.293C40.2142 51.3088 40.167 51.3402 40.1198 51.3638C39.3408 51.8124 38.6641 52.4025 38.0818 53.1343L36.3742 52.1507L35.9887 51.9304L31.0155 49.0583V43.6996L35.0995 46.0602L38.0187 47.7442V39.7022L35.0758 38.0025L24.0044 31.613V55.731C24.0044 57.9658 24.689 60.2556 26.0503 62.6084C27.4116 64.9533 29.0641 66.6924 31.0155 67.8176C32.1801 68.4943 33.2423 68.817 34.1945 68.7855C35.1466 68.754 35.9572 68.4156 36.6182 67.7704C36.9329 68.8406 37.2791 69.895 37.6726 70.9258C38.0582 71.9488 38.5303 73.0032 39.0732 74.0812C38.0188 74.632 36.8148 74.8524 35.4535 74.7343C34.0922 74.6163 32.6129 74.097 31.0155 73.1763C27.7814 71.3114 25.0273 68.4156 22.7532 64.4891C20.4713 60.5625 19.3381 56.7383 19.3381 53.032V28.914L14.6641 26.215V10.1389L35.0758 21.9265L39.7421 24.6176L47.3591 29.0163Z" fill="url(#paint13_linear_160_574)" fill-opacity="0.2" stroke="#FEFBF5" stroke-width="0.786885" stroke-linecap="round" stroke-linejoin="round"/>
<path d="M41.0244 59.8701L40.7646 59.996Z" fill="url(#paint14_linear_160_574)" fill-opacity="0.2"/>
<path d="M41.0244 59.8701L40.7646 59.996" stroke="#FEFBF5" stroke-width="0.786885" stroke-linecap="round" stroke-linejoin="round"/>
<path d="M40.3554 63.8281C40.3554 64.497 40.3947 65.1658 40.4813 65.8425L36.6177 67.7705C35.9567 68.4157 35.1462 68.7541 34.1941 68.7856C33.2419 68.8171 32.1797 68.4944 31.0151 67.8177C29.0637 66.6925 27.4111 64.9534 26.0498 62.6085C24.6885 60.2557 24.0039 57.9659 24.0039 55.7311V31.613L35.0754 38.0026L38.0183 39.7022V40.198L35.0754 41.6694L31.0151 43.6997V49.0584L35.9882 51.9304L31.0151 54.417V59.7757L35.7443 62.5062L40.7645 59.996C40.8117 60.0589 40.8511 60.114 40.9062 60.1691C40.5364 61.1921 40.3554 62.4117 40.3554 63.8281Z" fill="url(#paint15_linear_160_574)" fill-opacity="0.2" stroke="#FEFBF5" stroke-width="0.786885" stroke-linecap="round" stroke-linejoin="round"/>
<path d="M42.4804 72.3738L39.0732 74.0812C38.5303 73.0032 38.0582 71.9488 37.6726 70.9259C37.2791 69.8951 36.9329 68.8406 36.6182 67.7705L40.4817 65.8425C40.7335 67.9829 41.4023 70.1626 42.4804 72.3738Z" fill="url(#paint16_linear_160_574)" fill-opacity="0.2" stroke="#FEFBF5" stroke-width="0.786885" stroke-linecap="round" stroke-linejoin="round"/>
<path d="M77.1116 68.1009C77.1116 69.2576 76.9779 70.2963 76.7024 71.2091C76.4349 72.1297 76.0258 72.9166 75.4829 73.5855L71.6429 75.5055L59.7529 81.4544C60.2958 80.7856 60.7051 79.9987 60.9726 79.0779C61.248 78.1652 61.3818 77.1265 61.3818 75.9697C61.3818 72.6176 60.3667 69.1789 58.3208 65.6537C56.2749 62.1284 53.7962 59.5238 50.8769 57.8399C49.7516 57.1868 48.6893 56.754 47.6979 56.5337C46.368 56.2268 45.1641 56.2976 44.0703 56.7461L50.0035 53.7796L51.4198 53.0635L59.1706 49.192C61.2087 48.0274 63.6952 48.2871 66.6146 49.9711C69.5339 51.655 72.0126 54.2596 74.0585 57.7848C76.1044 61.3101 77.1195 64.7488 77.1195 68.1009H77.1116Z" fill="url(#paint17_linear_160_574)" fill-opacity="0.2" stroke="#FEFBF5" stroke-width="0.786885" stroke-linecap="round" stroke-linejoin="round"/>
<defs>
<linearGradient id="paint0_linear_160_574" x1="31.4665" y1="50.6349" x2="37.4216" y2="51.3448" gradientUnits="userSpaceOnUse">
<stop offset="0.1" stop-color="#5D007F"/>
<stop offset="0.56" stop-color="#9E2FF4"/>
<stop offset="1" stop-color="#DE5AF9"/>
</linearGradient>
<linearGradient id="paint1_linear_160_574" x1="42.6389" y1="38.6513" x2="72.712" y2="42.5303" gradientUnits="userSpaceOnUse">
<stop offset="0.1" stop-color="#5D007F"/>
<stop offset="0.56" stop-color="#9E2FF4"/>
<stop offset="1" stop-color="#DE5AF9"/>
</linearGradient>
<linearGradient id="paint2_linear_160_574" x1="40.7877" y1="59.8112" x2="41.0557" y2="59.9162" gradientUnits="userSpaceOnUse">
<stop offset="0.1" stop-color="#5D007F"/>
<stop offset="0.56" stop-color="#9E2FF4"/>
<stop offset="1" stop-color="#DE5AF9"/>
</linearGradient>
<linearGradient id="paint3_linear_160_574" x1="39.526" y1="40.7318" x2="56.5983" y2="46.975" gradientUnits="userSpaceOnUse">
<stop offset="0.1" stop-color="#5D007F"/>
<stop offset="0.56" stop-color="#9E2FF4"/>
<stop offset="1" stop-color="#DE5AF9"/>
</linearGradient>
<linearGradient id="paint4_linear_160_574" x1="37.1126" y1="43.3943" x2="55.3212" y2="47.6852" gradientUnits="userSpaceOnUse">
<stop offset="0.1" stop-color="#5D007F"/>
<stop offset="0.56" stop-color="#9E2FF4"/>
<stop offset="1" stop-color="#DE5AF9"/>
</linearGradient>
<linearGradient id="paint5_linear_160_574" x1="64.4633" y1="79.9093" x2="84.3481" y2="87.2888" gradientUnits="userSpaceOnUse">
<stop offset="0.1" stop-color="#5D007F"/>
<stop offset="0.56" stop-color="#9E2FF4"/>
<stop offset="1" stop-color="#DE5AF9"/>
</linearGradient>
<linearGradient id="paint6_linear_160_574" x1="61.7022" y1="64.8218" x2="86.6836" y2="70.4035" gradientUnits="userSpaceOnUse">
<stop offset="0.1" stop-color="#5D007F"/>
<stop offset="0.56" stop-color="#9E2FF4"/>
<stop offset="1" stop-color="#DE5AF9"/>
</linearGradient>
<linearGradient id="paint7_linear_160_574" x1="46.0667" y1="55.3049" x2="59.6686" y2="57.3058" gradientUnits="userSpaceOnUse">
<stop offset="0.1" stop-color="#5D007F"/>
<stop offset="0.56" stop-color="#9E2FF4"/>
<stop offset="1" stop-color="#DE5AF9"/>
</linearGradient>
<linearGradient id="paint8_linear_160_574" x1="32.8646" y1="43.2637" x2="54.039" y2="51.9865" gradientUnits="userSpaceOnUse">
<stop offset="0.1" stop-color="#5D007F"/>
<stop offset="0.56" stop-color="#9E2FF4"/>
<stop offset="1" stop-color="#DE5AF9"/>
</linearGradient>
<linearGradient id="paint9_linear_160_574" x1="44.0905" y1="34.4429" x2="61.5178" y2="39.2041" gradientUnits="userSpaceOnUse">
<stop offset="0.1" stop-color="#5D007F"/>
<stop offset="0.56" stop-color="#9E2FF4"/>
<stop offset="1" stop-color="#DE5AF9"/>
</linearGradient>
<linearGradient id="paint10_linear_160_574" x1="31.6378" y1="36.6698" x2="39.7203" y2="38.095" gradientUnits="userSpaceOnUse">
<stop offset="0.1" stop-color="#5D007F"/>
<stop offset="0.56" stop-color="#9E2FF4"/>
<stop offset="1" stop-color="#DE5AF9"/>
</linearGradient>
<linearGradient id="paint11_linear_160_574" x1="48.7565" y1="9.95209" x2="67.197" y2="12.255" gradientUnits="userSpaceOnUse">
<stop offset="0.1" stop-color="#5D007F"/>
<stop offset="0.56" stop-color="#9E2FF4"/>
<stop offset="1" stop-color="#DE5AF9"/>
</linearGradient>
<linearGradient id="paint12_linear_160_574" x1="18.9668" y1="-10.235" x2="70.5012" y2="7.49681" gradientUnits="userSpaceOnUse">
<stop offset="0.1" stop-color="#5D007F"/>
<stop offset="0.56" stop-color="#9E2FF4"/>
<stop offset="1" stop-color="#DE5AF9"/>
</linearGradient>
<linearGradient id="paint13_linear_160_574" x1="17.5687" y1="-20.0769" x2="56.1199" y2="-16.371" gradientUnits="userSpaceOnUse">
<stop offset="0.1" stop-color="#5D007F"/>
<stop offset="0.56" stop-color="#9E2FF4"/>
<stop offset="1" stop-color="#DE5AF9"/>
</linearGradient>
<linearGradient id="paint14_linear_160_574" x1="40.7877" y1="59.8112" x2="41.0557" y2="59.9162" gradientUnits="userSpaceOnUse">
<stop offset="0.1" stop-color="#5D007F"/>
<stop offset="0.56" stop-color="#9E2FF4"/>
<stop offset="1" stop-color="#DE5AF9"/>
</linearGradient>
<linearGradient id="paint15_linear_160_574" x1="25.5055" y1="14.2322" x2="45.4704" y2="15.957" gradientUnits="userSpaceOnUse">
<stop offset="0.1" stop-color="#5D007F"/>
<stop offset="0.56" stop-color="#9E2FF4"/>
<stop offset="1" stop-color="#DE5AF9"/>
</linearGradient>
<linearGradient id="paint16_linear_160_574" x1="37.139" y1="61.9906" x2="43.9898" y2="62.9168" gradientUnits="userSpaceOnUse">
<stop offset="0.1" stop-color="#5D007F"/>
<stop offset="0.56" stop-color="#9E2FF4"/>
<stop offset="1" stop-color="#DE5AF9"/>
</linearGradient>
<linearGradient id="paint17_linear_160_574" x1="47.0064" y1="33.0598" x2="84.959" y2="40.2871" gradientUnits="userSpaceOnUse">
<stop offset="0.1" stop-color="#5D007F"/>
<stop offset="0.56" stop-color="#9E2FF4"/>
<stop offset="1" stop-color="#DE5AF9"/>
</linearGradient>
</defs>
</svg>
