<svg width="24" height="25" viewBox="0 0 24 25" fill="none" xmlns="http://www.w3.org/2000/svg">
<path fill-rule="evenodd" clip-rule="evenodd" d="M12 4.88501C12.9352 4.88501 13.8944 4.90907 14.8241 4.94845L15.9222 5.00095L16.9733 5.06329L17.9577 5.13001L18.8567 5.20001C19.8325 5.27427 20.7509 5.69048 21.45 6.37536C22.149 7.06023 22.584 7.96982 22.6783 8.94392L22.722 9.40876L22.8041 10.4041C22.8806 11.4355 22.9375 12.5599 22.9375 13.635C22.9375 14.7102 22.8806 15.8345 22.8041 16.8659L22.722 17.8613L22.6783 18.3261C22.584 19.3004 22.1488 20.2101 21.4495 20.895C20.7502 21.5799 19.8316 21.996 18.8556 22.07L17.9587 22.1389L16.9744 22.2067L15.9222 22.2691L14.8241 22.3216C13.8833 22.3623 12.9417 22.3835 12 22.385C11.0583 22.3835 10.1167 22.3623 9.17594 22.3216L8.07781 22.2691L7.02672 22.2067L6.04234 22.1389L5.14328 22.07C4.16745 21.9958 3.24912 21.5795 2.55005 20.8947C1.85097 20.2098 1.41599 19.3002 1.32172 18.3261L1.27797 17.8613L1.19594 16.8659C1.11263 15.7909 1.06812 14.7132 1.0625 13.635C1.0625 12.5599 1.11937 11.4355 1.19594 10.4041L1.27797 9.40876L1.32172 8.94392C1.41595 7.96999 1.85078 7.06054 2.54963 6.37569C3.24848 5.69084 4.16655 5.27451 5.14219 5.20001L6.04016 5.13001L7.02453 5.06329L8.07672 5.00095L9.17484 4.94845C10.116 4.90768 11.0579 4.88653 12 4.88501ZM9.8125 10.9827V16.2874C9.8125 16.7927 10.3594 17.1077 10.7969 16.8561L15.3906 14.2038C15.4906 14.1462 15.5736 14.0633 15.6313 13.9635C15.6891 13.8637 15.7195 13.7503 15.7195 13.635C15.7195 13.5197 15.6891 13.4064 15.6313 13.3065C15.5736 13.2067 15.4906 13.1238 15.3906 13.0663L10.7969 10.415C10.6971 10.3574 10.5839 10.3271 10.4686 10.3271C10.3534 10.3271 10.2402 10.3575 10.1404 10.4151C10.0407 10.4728 9.95783 10.5557 9.90026 10.6555C9.84269 10.7553 9.81243 10.8685 9.8125 10.9838V10.9827Z" fill="#41294A"/>
</svg>
