<svg width="48" height="48" viewBox="0 0 48 48" fill="none" xmlns="http://www.w3.org/2000/svg">
<g clip-path="url(#clip0_502_646)">
<g clip-path="url(#clip1_502_646)">
<path d="M13.5248 4.47502C13.1926 4.21627 12.736 4.52171 12.7999 4.96149C12.8861 5.55549 13.0384 6.1478 13.2611 6.72718C13.4315 7.17024 13.6358 7.58621 13.8694 7.97349C14.2651 8.62965 14.2034 9.48934 13.7078 10.0591C13.6937 10.0755 13.6795 10.0918 13.6654 10.1081C12.9318 10.9572 12.0116 11.581 10.9897 11.9251C7.64241 13.0524 6.18038 15.4356 4.17975 15.6867C3.99366 15.71 3.93591 16.0601 4.0935 16.2045C4.33519 16.4258 4.66059 16.703 5.06541 17.0021C5.26322 17.1482 5.27175 17.5499 5.08022 17.7125C2.93297 19.5359 0 21.719 0 24.0655C0 27.8041 5.27578 31.1281 9.37313 33.2426C9.92869 33.5293 9.9255 34.6729 9.36431 34.936C9.35578 34.94 9.34725 34.944 9.33862 34.9479C9.09291 35.0601 9.10481 35.5692 9.35372 35.6656C9.77306 35.8281 10.306 36.0121 10.9233 36.1774C11.9978 36.4651 12.9686 37.0944 13.7316 37.9685C13.7415 37.98 13.7515 37.9914 13.7616 38.0027C14.7949 39.1809 14.3349 41.1419 12.9105 41.6355C12.5945 41.745 12.271 41.8303 11.9425 41.8902C11.5388 41.9639 11.4119 42.5314 11.7429 42.7938C12.1889 43.1473 12.6804 43.4486 13.2134 43.6864C15.2515 44.5959 17.4542 44.3809 19.2443 43.307C19.8097 42.9679 20.4846 42.9133 21.0941 43.1439C23.0526 43.8849 25.1597 44.2786 27.354 44.2564C37.5694 44.1533 45.7367 35.1649 45.7463 24.0194C45.756 12.8227 37.4393 3.74255 27.1788 3.74255C24.6831 3.74255 22.3027 4.2803 20.1289 5.25474C18.3576 6.04871 16.3583 6.06399 14.6246 5.17684C14.2403 4.98015 13.8719 4.74549 13.5248 4.47502Z" fill="url(#paint0_linear_502_646)"/>
<path d="M13.5248 4.47502C13.1926 4.21627 12.736 4.52171 12.7999 4.96149C12.8861 5.55549 13.0384 6.1478 13.2611 6.72718C13.4315 7.17024 13.6358 7.58621 13.8694 7.97349C14.2651 8.62965 14.2034 9.48934 13.7078 10.0591C13.6937 10.0755 13.6795 10.0918 13.6654 10.1081C12.9318 10.9572 12.0116 11.581 10.9897 11.9251C7.64241 13.0524 6.18038 15.4356 4.17975 15.6867C3.99366 15.71 3.93591 16.0601 4.0935 16.2045C4.33519 16.4258 4.66059 16.703 5.06541 17.0021C5.26322 17.1482 5.27175 17.5499 5.08022 17.7125C2.93297 19.5359 0 21.719 0 24.0655C0 27.8041 5.27578 31.1281 9.37313 33.2426C9.92869 33.5293 9.9255 34.6729 9.36431 34.936C9.35578 34.94 9.34725 34.944 9.33862 34.9479C9.09291 35.0601 9.10481 35.5692 9.35372 35.6656C9.77306 35.8281 10.306 36.0121 10.9233 36.1774C11.9978 36.4651 12.9686 37.0944 13.7316 37.9685C13.7415 37.98 13.7515 37.9914 13.7616 38.0027C14.7949 39.1809 14.3349 41.1419 12.9105 41.6355C12.5945 41.745 12.271 41.8303 11.9425 41.8902C11.5388 41.9639 11.4119 42.5314 11.7429 42.7938C12.1889 43.1473 12.6804 43.4486 13.2134 43.6864C15.2515 44.5959 17.4542 44.3809 19.2443 43.307C19.8097 42.9679 20.4846 42.9133 21.0941 43.1439C23.0526 43.8849 25.1597 44.2786 27.354 44.2564C37.5694 44.1533 45.7367 35.1649 45.7463 24.0194C45.756 12.8227 37.4393 3.74255 27.1788 3.74255C24.6831 3.74255 22.3027 4.2803 20.1289 5.25474C18.3576 6.04871 16.3583 6.06399 14.6246 5.17684C14.2403 4.98015 13.8719 4.74549 13.5248 4.47502Z" fill="url(#paint1_linear_502_646)"/>
<path d="M0 24.0655C0 27.8041 5.27588 31.1282 9.37313 33.2426C9.92869 33.5293 9.9255 34.6729 9.36431 34.936C9.35578 34.9399 9.34725 34.944 9.33862 34.9479C9.09291 35.0601 9.10481 35.5692 9.35372 35.6657C9.77306 35.8281 10.306 36.0122 10.9233 36.1774C11.9978 36.4651 12.9686 37.0944 13.7316 37.9685C13.7415 37.98 13.7515 37.9913 13.7616 38.0028C14.7949 39.1809 14.3349 41.1419 12.9105 41.6356C12.5945 41.7451 12.271 41.8304 11.9425 41.8903C11.5388 41.964 11.4119 42.5315 11.7429 42.7939C12.1889 43.1474 12.6804 43.4487 13.2134 43.6865C15.2515 44.596 17.4542 44.381 19.2443 43.3071C19.8097 42.968 20.4846 42.9134 21.0941 43.144C23.0526 43.885 25.1597 44.2788 27.354 44.2565C37.5694 44.1534 45.7367 35.165 45.7463 24.0194C45.7467 23.4124 45.7214 22.8121 45.674 22.2186H0.561375C0.211875 22.8202 0 23.4369 0 24.0655Z" fill="url(#paint2_linear_502_646)"/>
<path d="M30.0828 41.9187C39.979 41.9187 48.0015 33.8963 48.0015 24C48.0015 14.1038 39.979 6.0813 30.0828 6.0813C20.1865 6.0813 12.1641 14.1038 12.1641 24C12.1641 33.8963 20.1865 41.9187 30.0828 41.9187Z" fill="url(#paint3_linear_502_646)"/>
<path d="M40.4849 9.40845L39.1263 11.6065C38.6556 12.3681 38.7702 13.3534 39.4033 13.9865L40.0964 14.6796C40.7295 15.3127 41.7148 15.4275 42.4764 14.9567L44.6745 13.598C43.5194 11.9807 42.1023 10.5635 40.4849 9.40845Z" fill="url(#paint4_linear_502_646)"/>
<path d="M43.7539 23.51V24.4902C43.7539 25.3855 44.3696 26.1634 45.241 26.369L47.7563 26.9627C47.9166 25.9988 48.0014 25.0094 48.0014 24.0001C48.0014 22.9908 47.9166 22.0013 47.7563 21.0375L45.241 21.6311C44.3696 21.8368 43.7539 22.6146 43.7539 23.51Z" fill="url(#paint5_linear_502_646)"/>
<path d="M44.6745 34.402L42.4765 33.0434C41.7149 32.5727 40.7295 32.6873 40.0965 33.3205L39.4034 34.0135C38.7703 34.6466 38.6555 35.6319 39.1263 36.3936L40.485 38.5916C42.1023 37.4365 43.5195 36.0194 44.6745 34.402Z" fill="url(#paint6_linear_502_646)"/>
<path d="M30.0836 41.9187C31.0929 41.9187 32.0823 41.8338 33.0462 41.6735L32.4526 39.1582C32.2469 38.2868 31.469 37.6711 30.5737 37.6711H29.5936C28.6983 37.6711 27.9204 38.2868 27.7147 39.1582L27.1211 41.6735C28.0848 41.8339 29.0742 41.9187 30.0836 41.9187Z" fill="url(#paint7_linear_502_646)"/>
<path d="M20.0683 33.3206C19.4352 32.6875 18.4499 32.5728 17.6883 33.0435L15.4902 34.4021C16.6453 36.0195 18.0625 37.4367 19.6798 38.5917L21.0385 36.3936C21.5092 35.632 21.3945 34.6467 20.7614 34.0136L20.0683 33.3206Z" fill="url(#paint8_linear_502_646)"/>
<path d="M12.4092 26.9626L14.9245 26.3689C15.7959 26.1633 16.4116 25.3854 16.4116 24.4901V23.5099C16.4116 22.6146 15.7959 21.8368 14.9245 21.6311L12.4092 21.0375C12.2488 22.0013 12.1641 22.9907 12.1641 24.0001C12.1641 25.0095 12.2488 25.9987 12.4092 26.9626Z" fill="url(#paint9_linear_502_646)"/>
<path d="M15.4902 13.598L17.6883 14.9567C18.4499 15.4274 19.4352 15.3127 20.0683 14.6796L20.7614 13.9865C21.3945 13.3534 21.5093 12.3681 21.0385 11.6065L19.6798 9.40845C18.0625 10.5635 16.6452 11.9807 15.4902 13.598Z" fill="url(#paint10_linear_502_646)"/>
<path d="M30.0837 6.0813C29.0744 6.0813 28.0849 6.16614 27.1211 6.32646L27.7147 8.84177C27.9204 9.71317 28.6983 10.3288 29.5936 10.3288H30.5737C31.469 10.3288 32.2469 9.71317 32.4526 8.84177L33.0462 6.32646C32.0824 6.16605 31.093 6.0813 30.0837 6.0813Z" fill="url(#paint11_linear_502_646)"/>
<path d="M40.483 9.40845L39.1243 11.6065C38.6536 12.3681 38.7683 13.3534 39.4014 13.9865L40.0945 14.6796C40.7276 15.3127 41.7129 15.4275 42.4745 14.9567L44.6726 13.598C43.5175 11.9807 42.1003 10.5635 40.483 9.40845Z" fill="url(#paint12_linear_502_646)"/>
<path d="M43.7539 23.51V24.4902C43.7539 25.3855 44.3696 26.1634 45.241 26.369L47.7563 26.9627C47.9166 25.9988 48.0014 25.0094 48.0014 24.0001C48.0014 22.9908 47.9166 22.0013 47.7563 21.0375L45.241 21.6311C44.3696 21.8368 43.7539 22.6146 43.7539 23.51Z" fill="url(#paint13_linear_502_646)"/>
<path d="M44.6726 34.4021L42.4745 33.0435C41.7129 32.5728 40.7276 32.6875 40.0945 33.3206L39.4014 34.0136C38.7683 34.6467 38.6536 35.632 39.1244 36.3937L40.483 38.5917C42.1004 37.4366 43.5175 36.0195 44.6726 34.4021Z" fill="url(#paint14_linear_502_646)"/>
<path d="M30.0816 41.9188C31.091 41.9188 32.0804 41.834 33.0442 41.6736L32.4506 39.1583C32.2449 38.2869 31.4671 37.6713 30.5718 37.6713H29.5916C28.6963 37.6713 27.9185 38.2869 27.7128 39.1583L27.1191 41.6736C28.0829 41.834 29.0722 41.9188 30.0816 41.9188Z" fill="url(#paint15_linear_502_646)"/>
<path d="M20.0683 33.3206C19.4352 32.6875 18.4499 32.5728 17.6883 33.0435L15.4902 34.4021C16.6453 36.0195 18.0625 37.4367 19.6798 38.5917L21.0385 36.3936C21.5092 35.632 21.3945 34.6467 20.7614 34.0136L20.0683 33.3206Z" fill="url(#paint16_linear_502_646)"/>
<path d="M30.0828 37.1452C37.3427 37.1452 43.228 31.2599 43.228 24C43.228 16.7401 37.3427 10.8547 30.0828 10.8547C22.8228 10.8547 16.9375 16.7401 16.9375 24C16.9375 31.2599 22.8228 37.1452 30.0828 37.1452Z" fill="url(#paint17_linear_502_646)"/>
<path d="M12.1641 24C12.1641 33.8962 20.1865 41.9187 30.0828 41.9187C39.979 41.9187 48.0015 33.8962 48.0015 24C48.0015 23.9219 47.9995 23.8442 47.9985 23.7664H12.167C12.166 23.8442 12.1641 23.9219 12.1641 24Z" fill="url(#paint18_linear_502_646)"/>
<path d="M17.4131 36.6705C24.4108 43.6682 35.7563 43.6682 42.754 36.6705C49.7517 29.6728 49.7517 18.3273 42.754 11.3296C42.6988 11.2744 42.6425 11.2209 42.5867 11.1665L17.25 36.5032C17.3044 36.559 17.3579 36.6152 17.4131 36.6705Z" fill="url(#paint19_linear_502_646)"/>
<path d="M30.0832 41.9187C39.9795 41.9187 48.002 33.8963 48.002 24C48.002 14.1038 39.9795 6.0813 30.0832 6.0813C30.0051 6.0813 29.9274 6.08327 29.8496 6.0843V41.9158C29.9274 41.9168 30.0051 41.9187 30.0832 41.9187Z" fill="url(#paint20_linear_502_646)"/>
<path d="M17.4131 36.6705C24.4108 43.6682 35.7563 43.6682 42.754 36.6705C49.7517 29.6728 49.7517 18.3273 42.754 11.3296C42.6988 11.2744 42.6425 11.2209 42.5867 11.1665L17.25 36.5032C17.3044 36.559 17.3579 36.6152 17.4131 36.6705Z" fill="url(#paint21_linear_502_646)"/>
<path d="M30.0834 34.8822C36.0935 34.8822 40.9656 30.0101 40.9656 24C40.9656 17.9899 36.0935 13.1178 30.0834 13.1178C24.0733 13.1178 19.2012 17.9899 19.2012 24C19.2012 30.0101 24.0733 34.8822 30.0834 34.8822Z" fill="url(#paint22_linear_502_646)"/>
<path d="M19.2012 24C19.2012 30.0101 24.0733 34.8822 30.0834 34.8822C36.0935 34.8822 40.9656 30.01 40.9656 24C40.9656 23.7112 40.9541 23.4249 40.932 23.1417H19.2347C19.2126 23.4249 19.2012 23.7112 19.2012 24Z" fill="url(#paint23_linear_502_646)"/>
<path d="M22.3878 31.695C26.6376 35.9448 33.5278 35.9448 37.7776 31.695C42.0274 27.4452 42.0274 20.555 37.7776 16.3052C37.5733 16.1009 37.3629 15.9066 37.147 15.722L21.8047 31.0643C21.9893 31.2802 22.1835 31.4907 22.3878 31.695Z" fill="url(#paint24_linear_502_646)"/>
<path d="M27.3789 26.7032L34.5852 33.9095C36.9758 32.8214 38.9034 30.8938 39.9915 28.5032L32.7852 21.297L27.3789 26.7032Z" fill="url(#paint25_linear_502_646)"/>
<path d="M30.0843 28.4946C32.5665 28.4946 34.5788 26.4823 34.5788 24.0001C34.5788 21.5179 32.5665 19.5056 30.0843 19.5056C27.6021 19.5056 25.5898 21.5179 25.5898 24.0001C25.5898 26.4823 27.6021 28.4946 30.0843 28.4946Z" fill="url(#paint26_linear_502_646)"/>
<path d="M30.0846 27.8229C32.1959 27.8229 33.9074 26.1114 33.9074 24.0001C33.9074 21.8888 32.1959 20.1772 30.0846 20.1772C27.9733 20.1772 26.2617 21.8888 26.2617 24.0001C26.2617 26.1114 27.9733 27.8229 30.0846 27.8229Z" fill="url(#paint27_linear_502_646)"/>
<path d="M26.2617 24.0001C26.2617 26.1114 27.9732 27.823 30.0846 27.823C32.1958 27.823 33.9074 26.1115 33.9074 24.0001C33.9074 23.8987 33.9034 23.7981 33.8956 23.6986H26.2735C26.2658 23.7981 26.2617 23.8986 26.2617 24.0001Z" fill="url(#paint28_linear_502_646)"/>
<path d="M27.3806 26.7032C28.8735 28.196 31.294 28.196 32.7869 26.7032C34.2798 25.2103 34.2798 22.7898 32.7869 21.2969C32.7152 21.2252 32.6412 21.1569 32.5654 21.092L27.1758 26.4816C27.2407 26.5575 27.3089 26.6314 27.3806 26.7032Z" fill="url(#paint29_linear_502_646)"/>
<path d="M34.8618 21.9321C35.2425 22.8109 36.1877 23.3009 37.123 23.095L38.7181 22.7439C39.3402 22.6069 39.718 21.9751 39.5475 21.3614C39.097 19.7405 38.2418 18.2888 37.0973 17.1224C36.6523 16.669 35.9168 16.6836 35.4883 17.1527L34.3875 18.3579C33.7365 19.0706 33.7029 20.1371 34.2758 20.9141C34.5075 21.2283 34.7047 21.5694 34.8618 21.9321Z" fill="url(#paint30_linear_502_646)"/>
<path d="M38.7181 25.2562L37.123 24.905C36.1877 24.6991 35.2425 25.1892 34.8617 26.068C34.7047 26.4305 34.5075 26.7717 34.2758 27.0859C33.703 27.8629 33.7365 28.9295 34.3875 29.6422L35.4883 30.8473C35.9168 31.3165 36.6523 31.3311 37.0973 30.8776C38.2419 29.7113 39.0971 28.2596 39.5475 26.6386C39.718 26.0249 39.3401 25.3932 38.7181 25.2562Z" fill="url(#paint31_linear_502_646)"/>
<path d="M32.8194 30.5486C32.5283 29.6302 31.624 29.0664 30.6665 29.1732C30.4751 29.1946 30.2806 29.2055 30.0834 29.2055C29.8868 29.2055 29.6928 29.1946 29.5018 29.1733C28.5442 29.0665 27.6398 29.6302 27.3487 30.5487L26.855 32.1061C26.663 32.7117 27.0178 33.3563 27.6331 33.5145C28.4166 33.7159 29.2376 33.823 30.0834 33.823C30.93 33.823 31.7514 33.7159 32.5349 33.5145C33.1502 33.3562 33.505 32.7116 33.313 32.1061L32.8194 30.5486Z" fill="url(#paint32_linear_502_646)"/>
<path d="M25.3059 26.0678C24.9252 25.189 23.9801 24.699 23.0448 24.9049L21.4486 25.2562C20.8264 25.393 20.4485 26.025 20.6192 26.6388C21.0699 28.2596 21.9257 29.7113 23.0705 30.8778C23.5155 31.3312 24.2509 31.3165 24.6794 30.8474L25.7802 29.6422C26.4312 28.9294 26.4648 27.8629 25.8919 27.0859C25.6602 26.7717 25.4631 26.4305 25.3059 26.0678Z" fill="url(#paint33_linear_502_646)"/>
<path d="M24.6794 17.1526C24.2509 16.6835 23.5155 16.6688 23.0704 17.1222C21.9256 18.2886 21.0698 19.7403 20.6192 21.3612C20.4485 21.975 20.8264 22.6069 21.4486 22.7438L23.0448 23.0951C23.9801 23.301 24.9252 22.8109 25.3059 21.9322C25.463 21.5695 25.6602 21.2284 25.8918 20.9141C26.4647 20.1371 26.4312 19.0705 25.7802 18.3578L24.6794 17.1526Z" fill="url(#paint34_linear_502_646)"/>
<path d="M32.5349 14.4857C31.7513 14.2842 30.93 14.1771 30.0834 14.1771C29.2376 14.1771 28.4166 14.2842 27.6331 14.4857C27.0178 14.6439 26.663 15.2885 26.855 15.8941L27.3486 17.4514C27.6398 18.3699 28.5441 18.9335 29.5018 18.8268C29.6928 18.8056 29.8868 18.7946 30.0834 18.7946C30.2806 18.7946 30.4751 18.8056 30.6665 18.8269C31.624 18.9337 32.5282 18.3699 32.8194 17.4515L33.3131 15.8942C33.505 15.2885 33.1502 14.6439 32.5349 14.4857Z" fill="url(#paint35_linear_502_646)"/>
<path d="M34.8618 21.9321C35.2425 22.8109 36.1877 23.3009 37.123 23.095L38.7181 22.7439C39.3402 22.6069 39.718 21.9751 39.5475 21.3614C39.097 19.7405 38.2418 18.2888 37.0973 17.1224C36.6523 16.669 35.9168 16.6836 35.4883 17.1527L34.3875 18.3579C33.7365 19.0706 33.7029 20.1371 34.2758 20.9141C34.5075 21.2283 34.7047 21.5694 34.8618 21.9321Z" fill="url(#paint36_linear_502_646)"/>
<path d="M38.7181 25.2562L37.123 24.905C36.1877 24.6991 35.2425 25.1892 34.8617 26.068C34.7047 26.4305 34.5075 26.7717 34.2758 27.0859C33.703 27.8629 33.7365 28.9295 34.3875 29.6422L35.4883 30.8473C35.9168 31.3165 36.6523 31.3311 37.0973 30.8776C38.2419 29.7113 39.0971 28.2596 39.5475 26.6386C39.718 26.0249 39.3401 25.3932 38.7181 25.2562Z" fill="url(#paint37_linear_502_646)"/>
<path d="M32.8194 30.5486C32.5283 29.6302 31.624 29.0664 30.6665 29.1732C30.4751 29.1946 30.2806 29.2055 30.0834 29.2055C29.8868 29.2055 29.6928 29.1946 29.5018 29.1733C28.5442 29.0665 27.6398 29.6302 27.3487 30.5487L26.855 32.1061C26.663 32.7117 27.0178 33.3563 27.6331 33.5145C28.4166 33.7159 29.2376 33.823 30.0834 33.823C30.93 33.823 31.7514 33.7159 32.5349 33.5145C33.1502 33.3562 33.505 32.7116 33.313 32.1061L32.8194 30.5486Z" fill="url(#paint38_linear_502_646)"/>
<path d="M25.3059 26.0678C24.9252 25.189 23.9801 24.699 23.0448 24.9049L21.4486 25.2562C20.8264 25.393 20.4485 26.025 20.6192 26.6388C21.0699 28.2596 21.9257 29.7113 23.0705 30.8778C23.5155 31.3312 24.2509 31.3165 24.6794 30.8474L25.7802 29.6422C26.4312 28.9294 26.4648 27.8629 25.8919 27.0859C25.6602 26.7717 25.4631 26.4305 25.3059 26.0678Z" fill="url(#paint39_linear_502_646)"/>
<path d="M24.6794 17.1526C24.2509 16.6835 23.5155 16.6688 23.0704 17.1222C21.9256 18.2886 21.0698 19.7403 20.6192 21.3612C20.4485 21.975 20.8264 22.6069 21.4486 22.7438L23.0448 23.0951C23.9801 23.301 24.9252 22.8109 25.3059 21.9322C25.463 21.5695 25.6602 21.2284 25.8918 20.9141C26.4647 20.1371 26.4312 19.0705 25.7802 18.3578L24.6794 17.1526Z" fill="url(#paint40_linear_502_646)"/>
<path d="M32.5349 14.4857C31.7513 14.2842 30.93 14.1771 30.0834 14.1771C29.2376 14.1771 28.4166 14.2842 27.6331 14.4857C27.0178 14.6439 26.663 15.2885 26.855 15.8941L27.3486 17.4514C27.6398 18.3699 28.5441 18.9335 29.5018 18.8268C29.6928 18.8056 29.8868 18.7946 30.0834 18.7946C30.2806 18.7946 30.4751 18.8056 30.6665 18.8269C31.624 18.9337 32.5282 18.3699 32.8194 17.4515L33.3131 15.8942C33.505 15.2885 33.1502 14.6439 32.5349 14.4857Z" fill="url(#paint41_linear_502_646)"/>
<path d="M34.8618 21.9321C35.2425 22.8109 36.1877 23.3009 37.123 23.095L38.7181 22.7439C39.3402 22.6069 39.718 21.9751 39.5475 21.3614C39.097 19.7405 38.2418 18.2888 37.0973 17.1224C36.6523 16.669 35.9168 16.6836 35.4883 17.1527L34.3875 18.3579C33.7365 19.0706 33.7029 20.1371 34.2758 20.9141C34.5075 21.2283 34.7047 21.5694 34.8618 21.9321Z" fill="url(#paint42_linear_502_646)"/>
<path d="M38.7181 25.2562L37.123 24.905C36.1877 24.6991 35.2425 25.1892 34.8617 26.068C34.7047 26.4305 34.5075 26.7717 34.2758 27.0859C33.703 27.8629 33.7365 28.9295 34.3875 29.6422L35.4883 30.8473C35.9168 31.3165 36.6523 31.3311 37.0973 30.8776C38.2419 29.7113 39.0971 28.2596 39.5475 26.6386C39.718 26.0249 39.3401 25.3932 38.7181 25.2562Z" fill="url(#paint43_linear_502_646)"/>
<path d="M32.8194 30.5486C32.5283 29.6302 31.624 29.0664 30.6665 29.1732C30.4751 29.1946 30.2806 29.2055 30.0834 29.2055C29.8868 29.2055 29.6928 29.1946 29.5018 29.1733C28.5442 29.0665 27.6398 29.6302 27.3487 30.5487L26.855 32.1061C26.663 32.7117 27.0178 33.3563 27.6331 33.5145C28.4166 33.7159 29.2376 33.823 30.0834 33.823C30.93 33.823 31.7514 33.7159 32.5349 33.5145C33.1502 33.3562 33.505 32.7116 33.313 32.1061L32.8194 30.5486Z" fill="url(#paint44_linear_502_646)"/>
<path d="M25.3059 26.0678C24.9252 25.189 23.9801 24.699 23.0448 24.9049L21.4486 25.2562C20.8264 25.393 20.4485 26.025 20.6192 26.6388C21.0699 28.2596 21.9257 29.7113 23.0705 30.8778C23.5155 31.3312 24.2509 31.3165 24.6794 30.8474L25.7802 29.6422C26.4312 28.9294 26.4648 27.8629 25.8919 27.0859C25.6602 26.7717 25.4631 26.4305 25.3059 26.0678Z" fill="url(#paint45_linear_502_646)"/>
<path d="M24.6794 17.1526C24.2509 16.6835 23.5155 16.6688 23.0704 17.1222C21.9256 18.2886 21.0698 19.7403 20.6192 21.3612C20.4485 21.975 20.8264 22.6069 21.4486 22.7438L23.0448 23.0951C23.9801 23.301 24.9252 22.8109 25.3059 21.9322C25.463 21.5695 25.6602 21.2284 25.8918 20.9141C26.4647 20.1371 26.4312 19.0705 25.7802 18.3578L24.6794 17.1526Z" fill="url(#paint46_linear_502_646)"/>
<path d="M32.5349 14.4857C31.7513 14.2842 30.93 14.1771 30.0834 14.1771C29.2376 14.1771 28.4166 14.2842 27.6331 14.4857C27.0178 14.6439 26.663 15.2885 26.855 15.8941L27.3486 17.4514C27.6398 18.3699 28.5441 18.9335 29.5018 18.8268C29.6928 18.8056 29.8868 18.7946 30.0834 18.7946C30.2806 18.7946 30.4751 18.8056 30.6665 18.8269C31.624 18.9337 32.5282 18.3699 32.8194 17.4515L33.3131 15.8942C33.505 15.2885 33.1502 14.6439 32.5349 14.4857Z" fill="url(#paint47_linear_502_646)"/>
<path d="M30.0808 41.9187C39.9771 41.9187 47.9995 33.8963 47.9995 24C47.9995 14.1038 39.9771 6.0813 30.0808 6.0813C20.1846 6.0813 12.1621 14.1038 12.1621 24C12.1621 33.8963 20.1846 41.9187 30.0808 41.9187Z" fill="url(#paint48_linear_502_646)"/>
<path d="M30.0808 41.9187C39.9771 41.9187 47.9995 33.8963 47.9995 24C47.9995 14.1038 39.9771 6.0813 30.0808 6.0813C20.1846 6.0813 12.1621 14.1038 12.1621 24C12.1621 33.8963 20.1846 41.9187 30.0808 41.9187Z" fill="url(#paint49_linear_502_646)"/>
<path d="M6.19228 9.55905C6.14897 9.54677 6.14738 9.4742 6.18975 9.45161C6.25463 9.41711 6.34135 9.37473 6.44766 9.33123C6.4996 9.30995 6.51553 9.2297 6.47569 9.1893C6.02991 8.73573 5.4105 8.17802 5.4916 7.70711C5.62078 6.95692 6.96563 6.43042 8.0296 6.24817C10.7113 5.7887 11.6607 7.55223 11.4158 8.97405C11.1708 10.3959 9.70744 11.0628 8.55535 10.8643C7.06772 10.6081 6.8041 9.73267 6.19228 9.55905Z" fill="url(#paint50_linear_502_646)"/>
<path d="M12.2264 34.4888C12.048 34.6278 11.8026 34.4637 11.837 34.2274C11.8833 33.9083 11.9652 33.5901 12.0848 33.279C12.1763 33.0409 12.2861 32.8175 12.4116 32.6095C12.6242 32.257 12.5911 31.7952 12.3248 31.4891C12.3172 31.4804 12.3096 31.4716 12.302 31.4628C11.9079 31.0067 11.4137 30.6716 10.8647 30.4867C9.06653 29.8812 8.28119 28.6009 7.20644 28.466C7.1065 28.4535 7.07547 28.2654 7.16012 28.1879C7.28997 28.069 7.46481 27.92 7.68222 27.7593C7.78853 27.6808 7.79303 27.4651 7.69019 27.3777C6.5365 26.3982 4.96094 25.2255 4.96094 23.9649C4.96094 21.9566 7.79509 20.1708 9.99616 19.0351C10.2946 18.881 10.2929 18.2667 9.99147 18.1253C9.98688 18.1231 9.98228 18.121 9.97769 18.1189C9.84569 18.0586 9.85206 17.7852 9.98584 17.7333C10.2111 17.6461 10.4974 17.5471 10.829 17.4585C11.4062 17.304 11.9278 16.9659 12.3377 16.4963C12.343 16.4902 12.3483 16.484 12.3538 16.4779C12.9089 15.845 12.6618 14.7916 11.8966 14.5264C11.7268 14.4676 11.5531 14.4218 11.3766 14.3896C11.1598 14.35 11.0915 14.0451 11.2695 13.9041C11.509 13.7143 11.7731 13.5524 12.0594 13.4246C13.1543 12.9361 14.3375 13.0516 15.2992 13.6284C15.6029 13.8106 15.9655 13.8399 16.2929 13.7161C17.3449 13.318 18.4769 13.1065 19.6556 13.1184C25.1432 13.1738 29.5307 18.0023 29.5358 23.9896C29.541 30.0046 25.0733 34.8824 19.5614 34.8824C18.2207 34.8824 16.9419 34.5934 15.7743 34.07C14.8227 33.6435 13.7488 33.6353 12.8174 34.1119C12.6108 34.2174 12.4128 34.3435 12.2264 34.4888Z" fill="url(#paint51_linear_502_646)"/>
<path d="M12.2264 34.4888C12.048 34.6278 11.8026 34.4637 11.837 34.2274C11.8833 33.9083 11.9652 33.5901 12.0848 33.279C12.1763 33.0409 12.2861 32.8175 12.4116 32.6095C12.6242 32.257 12.5911 31.7952 12.3248 31.4891C12.3172 31.4804 12.3096 31.4716 12.302 31.4628C11.9079 31.0067 11.4137 30.6716 10.8647 30.4867C9.06653 29.8812 8.28119 28.6009 7.20644 28.466C7.1065 28.4535 7.07547 28.2654 7.16012 28.1879C7.28997 28.069 7.46481 27.92 7.68222 27.7593C7.78853 27.6808 7.79303 27.4651 7.69019 27.3777C6.5365 26.3982 4.96094 25.2255 4.96094 23.9649C4.96094 21.9566 7.79509 20.1708 9.99616 19.0351C10.2946 18.881 10.2929 18.2667 9.99147 18.1253C9.98688 18.1231 9.98228 18.121 9.97769 18.1189C9.84569 18.0586 9.85206 17.7852 9.98584 17.7333C10.2111 17.6461 10.4974 17.5471 10.829 17.4585C11.4062 17.304 11.9278 16.9659 12.3377 16.4963C12.343 16.4902 12.3483 16.484 12.3538 16.4779C12.9089 15.845 12.6618 14.7916 11.8966 14.5264C11.7268 14.4676 11.5531 14.4218 11.3766 14.3896C11.1598 14.35 11.0915 14.0451 11.2695 13.9041C11.509 13.7143 11.7731 13.5524 12.0594 13.4246C13.1543 12.9361 14.3375 13.0516 15.2992 13.6284C15.6029 13.8106 15.9655 13.8399 16.2929 13.7161C17.3449 13.318 18.4769 13.1065 19.6556 13.1184C25.1432 13.1738 29.5307 18.0023 29.5358 23.9896C29.541 30.0046 25.0733 34.8824 19.5614 34.8824C18.2207 34.8824 16.9419 34.5934 15.7743 34.07C14.8227 33.6435 13.7488 33.6353 12.8174 34.1119C12.6108 34.2174 12.4128 34.3435 12.2264 34.4888Z" fill="url(#paint52_linear_502_646)"/>
</g>
</g>
<defs>
<linearGradient id="paint0_linear_502_646" x1="22.8732" y1="16.9664" x2="22.8732" y2="36.6755" gradientUnits="userSpaceOnUse">
<stop stop-color="#FEE45A"/>
<stop offset="1" stop-color="#FEA613"/>
</linearGradient>
<linearGradient id="paint1_linear_502_646" x1="15.5625" y1="24.0001" x2="37.4402" y2="24.0001" gradientUnits="userSpaceOnUse">
<stop stop-color="#FEA613" stop-opacity="0"/>
<stop offset="0.102" stop-color="#FDA314" stop-opacity="0.024"/>
<stop offset="0.2333" stop-color="#FC9C17" stop-opacity="0.093"/>
<stop offset="0.3805" stop-color="#F9911D" stop-opacity="0.207"/>
<stop offset="0.5394" stop-color="#F68224" stop-opacity="0.365"/>
<stop offset="0.7077" stop-color="#F26E2E" stop-opacity="0.569"/>
<stop offset="0.8811" stop-color="#EC563A" stop-opacity="0.813"/>
<stop offset="1" stop-color="#E94444"/>
</linearGradient>
<linearGradient id="paint2_linear_502_646" x1="22.8732" y1="37.0313" x2="22.8732" y2="44.4399" gradientUnits="userSpaceOnUse">
<stop stop-color="#FEA613" stop-opacity="0"/>
<stop offset="0.102" stop-color="#FDA314" stop-opacity="0.024"/>
<stop offset="0.2333" stop-color="#FC9C17" stop-opacity="0.093"/>
<stop offset="0.3805" stop-color="#F9911D" stop-opacity="0.207"/>
<stop offset="0.5394" stop-color="#F68224" stop-opacity="0.365"/>
<stop offset="0.7077" stop-color="#F26E2E" stop-opacity="0.569"/>
<stop offset="0.8811" stop-color="#EC563A" stop-opacity="0.813"/>
<stop offset="1" stop-color="#E94444"/>
</linearGradient>
<linearGradient id="paint3_linear_502_646" x1="19.6859" y1="13.6031" x2="39.2184" y2="33.1356" gradientUnits="userSpaceOnUse">
<stop stop-color="#5A5A5A"/>
<stop offset="1" stop-color="#444444"/>
</linearGradient>
<linearGradient id="paint4_linear_502_646" x1="43.0421" y1="14.6221" x2="38.6418" y2="10.2217" gradientUnits="userSpaceOnUse">
<stop stop-color="#5A5A5A"/>
<stop offset="1" stop-color="#444444"/>
</linearGradient>
<linearGradient id="paint5_linear_502_646" x1="48.2528" y1="25.6612" x2="44.1323" y2="21.5408" gradientUnits="userSpaceOnUse">
<stop stop-color="#5A5A5A"/>
<stop offset="1" stop-color="#444444"/>
</linearGradient>
<linearGradient id="paint6_linear_502_646" x1="43.1548" y1="37.0718" x2="39.3099" y2="33.227" gradientUnits="userSpaceOnUse">
<stop stop-color="#5A5A5A"/>
<stop offset="1" stop-color="#444444"/>
</linearGradient>
<linearGradient id="paint7_linear_502_646" x1="31.3385" y1="41.7637" x2="27.9425" y2="38.3676" gradientUnits="userSpaceOnUse">
<stop stop-color="#5A5A5A"/>
<stop offset="1" stop-color="#444444"/>
</linearGradient>
<linearGradient id="paint8_linear_502_646" x1="20.0789" y1="36.3343" x2="16.9774" y2="33.2328" gradientUnits="userSpaceOnUse">
<stop stop-color="#5A5A5A"/>
<stop offset="1" stop-color="#444444"/>
</linearGradient>
<linearGradient id="paint9_linear_502_646" x1="15.619" y1="26.0449" x2="12.1724" y2="22.5984" gradientUnits="userSpaceOnUse">
<stop stop-color="#5A5A5A"/>
<stop offset="1" stop-color="#444444"/>
</linearGradient>
<linearGradient id="paint10_linear_502_646" x1="20.0288" y1="13.9469" x2="16.5363" y2="10.4545" gradientUnits="userSpaceOnUse">
<stop stop-color="#5A5A5A"/>
<stop offset="1" stop-color="#444444"/>
</linearGradient>
<linearGradient id="paint11_linear_502_646" x1="31.8475" y1="9.25492" x2="28.0599" y2="5.46742" gradientUnits="userSpaceOnUse">
<stop stop-color="#5A5A5A"/>
<stop offset="1" stop-color="#444444"/>
</linearGradient>
<linearGradient id="paint12_linear_502_646" x1="43.0402" y1="14.6221" x2="38.6398" y2="10.2217" gradientUnits="userSpaceOnUse">
<stop stop-color="#433F43" stop-opacity="0"/>
<stop offset="0.4114" stop-color="#373537" stop-opacity="0.269"/>
<stop offset="1" stop-color="#1A1A1A"/>
</linearGradient>
<linearGradient id="paint13_linear_502_646" x1="48.2528" y1="25.6612" x2="44.1323" y2="21.5408" gradientUnits="userSpaceOnUse">
<stop stop-color="#433F43" stop-opacity="0"/>
<stop offset="0.4114" stop-color="#373537" stop-opacity="0.269"/>
<stop offset="1" stop-color="#1A1A1A"/>
</linearGradient>
<linearGradient id="paint14_linear_502_646" x1="43.1528" y1="37.072" x2="39.3079" y2="33.2271" gradientUnits="userSpaceOnUse">
<stop stop-color="#433F43" stop-opacity="0"/>
<stop offset="0.4114" stop-color="#373537" stop-opacity="0.269"/>
<stop offset="1" stop-color="#1A1A1A"/>
</linearGradient>
<linearGradient id="paint15_linear_502_646" x1="31.3366" y1="41.7638" x2="27.9406" y2="38.3677" gradientUnits="userSpaceOnUse">
<stop stop-color="#433F43" stop-opacity="0"/>
<stop offset="0.4114" stop-color="#373537" stop-opacity="0.269"/>
<stop offset="1" stop-color="#1A1A1A"/>
</linearGradient>
<linearGradient id="paint16_linear_502_646" x1="19.4057" y1="35.5942" x2="15.5307" y2="32.6568" gradientUnits="userSpaceOnUse">
<stop stop-color="#433F43" stop-opacity="0"/>
<stop offset="0.4114" stop-color="#373537" stop-opacity="0.269"/>
<stop offset="1" stop-color="#1A1A1A"/>
</linearGradient>
<linearGradient id="paint17_linear_502_646" x1="42.5329" y1="24" x2="15.2097" y2="24" gradientUnits="userSpaceOnUse">
<stop stop-color="#5A5A5A"/>
<stop offset="1" stop-color="#444444"/>
</linearGradient>
<linearGradient id="paint18_linear_502_646" x1="30.0828" y1="30.2812" x2="30.0828" y2="41.7828" gradientUnits="userSpaceOnUse">
<stop stop-color="#433F43" stop-opacity="0"/>
<stop offset="0.4114" stop-color="#373537" stop-opacity="0.269"/>
<stop offset="1" stop-color="#1A1A1A"/>
</linearGradient>
<linearGradient id="paint19_linear_502_646" x1="34.5679" y1="28.4132" x2="42.6995" y2="36.5448" gradientUnits="userSpaceOnUse">
<stop stop-color="#433F43" stop-opacity="0"/>
<stop offset="0.4114" stop-color="#373537" stop-opacity="0.269"/>
<stop offset="1" stop-color="#1A1A1A"/>
</linearGradient>
<linearGradient id="paint20_linear_502_646" x1="36.3644" y1="24" x2="47.8659" y2="24" gradientUnits="userSpaceOnUse">
<stop stop-color="#433F43" stop-opacity="0"/>
<stop offset="0.4114" stop-color="#373537" stop-opacity="0.269"/>
<stop offset="1" stop-color="#1A1A1A"/>
</linearGradient>
<linearGradient id="paint21_linear_502_646" x1="41.2336" y1="35.15" x2="43.4168" y2="37.3332" gradientUnits="userSpaceOnUse">
<stop stop-color="#5A5A5A" stop-opacity="0"/>
<stop offset="0.2334" stop-color="#5A5A5A" stop-opacity="0.039"/>
<stop offset="0.4377" stop-color="#5A5A5A" stop-opacity="0.157"/>
<stop offset="0.6311" stop-color="#5A5A5A" stop-opacity="0.357"/>
<stop offset="0.8167" stop-color="#5A5A5A" stop-opacity="0.636"/>
<stop offset="0.9971" stop-color="#5A5A5A" stop-opacity="0.993"/>
<stop offset="1" stop-color="#5A5A5A"/>
</linearGradient>
<linearGradient id="paint22_linear_502_646" x1="23.9745" y1="17.8911" x2="37.6022" y2="31.5189" gradientUnits="userSpaceOnUse">
<stop stop-color="#EAF6FF"/>
<stop offset="1" stop-color="#B3DAFE"/>
</linearGradient>
<linearGradient id="paint23_linear_502_646" x1="30.0834" y1="27.7501" x2="30.0834" y2="34.9318" gradientUnits="userSpaceOnUse">
<stop stop-color="#7BACDF" stop-opacity="0"/>
<stop offset="0.1269" stop-color="#7BACDF" stop-opacity="0.019"/>
<stop offset="0.2606" stop-color="#7BACDF" stop-opacity="0.076"/>
<stop offset="0.3974" stop-color="#7BACDF" stop-opacity="0.17"/>
<stop offset="0.5365" stop-color="#7BACDF" stop-opacity="0.303"/>
<stop offset="0.6772" stop-color="#7BACDF" stop-opacity="0.474"/>
<stop offset="0.8194" stop-color="#7BACDF" stop-opacity="0.683"/>
<stop offset="0.9602" stop-color="#7BACDF" stop-opacity="0.925"/>
<stop offset="1" stop-color="#7BACDF"/>
</linearGradient>
<linearGradient id="paint24_linear_502_646" x1="33.3017" y1="26.3583" x2="38.7454" y2="30.31" gradientUnits="userSpaceOnUse">
<stop stop-color="#7BACDF" stop-opacity="0"/>
<stop offset="0.1269" stop-color="#7BACDF" stop-opacity="0.019"/>
<stop offset="0.2606" stop-color="#7BACDF" stop-opacity="0.076"/>
<stop offset="0.3974" stop-color="#7BACDF" stop-opacity="0.17"/>
<stop offset="0.5365" stop-color="#7BACDF" stop-opacity="0.303"/>
<stop offset="0.6772" stop-color="#7BACDF" stop-opacity="0.474"/>
<stop offset="0.8194" stop-color="#7BACDF" stop-opacity="0.683"/>
<stop offset="0.9602" stop-color="#7BACDF" stop-opacity="0.925"/>
<stop offset="1" stop-color="#7BACDF"/>
</linearGradient>
<linearGradient id="paint25_linear_502_646" x1="33.3403" y1="27.2583" x2="29.3474" y2="23.2654" gradientUnits="userSpaceOnUse">
<stop stop-color="#7BACDF" stop-opacity="0"/>
<stop offset="0.1269" stop-color="#7BACDF" stop-opacity="0.019"/>
<stop offset="0.2606" stop-color="#7BACDF" stop-opacity="0.076"/>
<stop offset="0.3974" stop-color="#7BACDF" stop-opacity="0.17"/>
<stop offset="0.5365" stop-color="#7BACDF" stop-opacity="0.303"/>
<stop offset="0.6772" stop-color="#7BACDF" stop-opacity="0.474"/>
<stop offset="0.8194" stop-color="#7BACDF" stop-opacity="0.683"/>
<stop offset="0.9602" stop-color="#7BACDF" stop-opacity="0.925"/>
<stop offset="1" stop-color="#7BACDF"/>
</linearGradient>
<linearGradient id="paint26_linear_502_646" x1="32.6469" y1="26.5626" x2="26.9407" y2="20.8565" gradientUnits="userSpaceOnUse">
<stop stop-color="#EAF6FF"/>
<stop offset="1" stop-color="#B3DAFE"/>
</linearGradient>
<linearGradient id="paint27_linear_502_646" x1="28.3678" y1="22.2832" x2="32.2088" y2="26.1243" gradientUnits="userSpaceOnUse">
<stop stop-color="#EAF6FF"/>
<stop offset="1" stop-color="#B3DAFE"/>
</linearGradient>
<linearGradient id="paint28_linear_502_646" x1="30.0846" y1="25.4237" x2="30.0846" y2="27.7824" gradientUnits="userSpaceOnUse">
<stop stop-color="#7BACDF" stop-opacity="0"/>
<stop offset="0.1269" stop-color="#7BACDF" stop-opacity="0.019"/>
<stop offset="0.2606" stop-color="#7BACDF" stop-opacity="0.076"/>
<stop offset="0.3974" stop-color="#7BACDF" stop-opacity="0.17"/>
<stop offset="0.5365" stop-color="#7BACDF" stop-opacity="0.303"/>
<stop offset="0.6772" stop-color="#7BACDF" stop-opacity="0.474"/>
<stop offset="0.8194" stop-color="#7BACDF" stop-opacity="0.683"/>
<stop offset="0.9602" stop-color="#7BACDF" stop-opacity="0.925"/>
<stop offset="1" stop-color="#7BACDF"/>
</linearGradient>
<linearGradient id="paint29_linear_502_646" x1="30.5598" y1="24.3349" x2="33.4027" y2="26.2402" gradientUnits="userSpaceOnUse">
<stop stop-color="#7BACDF" stop-opacity="0"/>
<stop offset="0.1269" stop-color="#7BACDF" stop-opacity="0.019"/>
<stop offset="0.2606" stop-color="#7BACDF" stop-opacity="0.076"/>
<stop offset="0.3974" stop-color="#7BACDF" stop-opacity="0.17"/>
<stop offset="0.5365" stop-color="#7BACDF" stop-opacity="0.303"/>
<stop offset="0.6772" stop-color="#7BACDF" stop-opacity="0.474"/>
<stop offset="0.8194" stop-color="#7BACDF" stop-opacity="0.683"/>
<stop offset="0.9602" stop-color="#7BACDF" stop-opacity="0.925"/>
<stop offset="1" stop-color="#7BACDF"/>
</linearGradient>
<linearGradient id="paint30_linear_502_646" x1="29.6757" y1="13.3235" x2="40.7214" y2="24.3692" gradientUnits="userSpaceOnUse">
<stop stop-color="#5A5A5A"/>
<stop offset="1" stop-color="#444444"/>
</linearGradient>
<linearGradient id="paint31_linear_502_646" x1="26.0866" y1="16.9126" x2="37.1323" y2="27.9583" gradientUnits="userSpaceOnUse">
<stop stop-color="#5A5A5A"/>
<stop offset="1" stop-color="#444444"/>
</linearGradient>
<linearGradient id="paint32_linear_502_646" x1="20.6211" y1="22.3779" x2="31.6668" y2="33.4236" gradientUnits="userSpaceOnUse">
<stop stop-color="#5A5A5A"/>
<stop offset="1" stop-color="#444444"/>
</linearGradient>
<linearGradient id="paint33_linear_502_646" x1="19.4068" y1="23.5913" x2="30.4525" y2="34.6371" gradientUnits="userSpaceOnUse">
<stop stop-color="#5A5A5A"/>
<stop offset="1" stop-color="#444444"/>
</linearGradient>
<linearGradient id="paint34_linear_502_646" x1="22.9957" y1="20.0025" x2="34.0414" y2="31.0482" gradientUnits="userSpaceOnUse">
<stop stop-color="#5A5A5A"/>
<stop offset="1" stop-color="#444444"/>
</linearGradient>
<linearGradient id="paint35_linear_502_646" x1="28.4619" y1="14.5369" x2="39.5076" y2="25.5827" gradientUnits="userSpaceOnUse">
<stop stop-color="#5A5A5A"/>
<stop offset="1" stop-color="#444444"/>
</linearGradient>
<linearGradient id="paint36_linear_502_646" x1="37.6993" y1="20.8924" x2="33.9491" y2="18.2915" gradientUnits="userSpaceOnUse">
<stop stop-color="#433F43" stop-opacity="0"/>
<stop offset="0.4114" stop-color="#373537" stop-opacity="0.269"/>
<stop offset="1" stop-color="#1A1A1A"/>
</linearGradient>
<linearGradient id="paint37_linear_502_646" x1="38.2238" y1="28.6282" x2="34.2922" y2="26.6927" gradientUnits="userSpaceOnUse">
<stop stop-color="#433F43" stop-opacity="0"/>
<stop offset="0.4114" stop-color="#373537" stop-opacity="0.269"/>
<stop offset="1" stop-color="#1A1A1A"/>
</linearGradient>
<linearGradient id="paint38_linear_502_646" x1="31.6443" y1="31.956" x2="27.0473" y2="30.6858" gradientUnits="userSpaceOnUse">
<stop stop-color="#433F43" stop-opacity="0"/>
<stop offset="0.4114" stop-color="#373537" stop-opacity="0.269"/>
<stop offset="1" stop-color="#1A1A1A"/>
</linearGradient>
<linearGradient id="paint39_linear_502_646" x1="25.5579" y1="27.8422" x2="20.1143" y2="28.3865" gradientUnits="userSpaceOnUse">
<stop stop-color="#433F43" stop-opacity="0"/>
<stop offset="0.4114" stop-color="#373537" stop-opacity="0.269"/>
<stop offset="1" stop-color="#1A1A1A"/>
</linearGradient>
<linearGradient id="paint40_linear_502_646" x1="25.3918" y1="21.3206" x2="21.2788" y2="18.9012" gradientUnits="userSpaceOnUse">
<stop stop-color="#433F43" stop-opacity="0"/>
<stop offset="0.4114" stop-color="#373537" stop-opacity="0.269"/>
<stop offset="1" stop-color="#1A1A1A"/>
</linearGradient>
<linearGradient id="paint41_linear_502_646" x1="30.084" y1="18.7982" x2="30.084" y2="13.8751" gradientUnits="userSpaceOnUse">
<stop stop-color="#433F43" stop-opacity="0"/>
<stop offset="0.4114" stop-color="#373537" stop-opacity="0.269"/>
<stop offset="1" stop-color="#1A1A1A"/>
</linearGradient>
<linearGradient id="paint42_linear_502_646" x1="36.4672" y1="21.1326" x2="38.0398" y2="17.8059" gradientUnits="userSpaceOnUse">
<stop stop-color="#433F43" stop-opacity="0"/>
<stop offset="0.4114" stop-color="#373537" stop-opacity="0.269"/>
<stop offset="1" stop-color="#1A1A1A"/>
</linearGradient>
<linearGradient id="paint43_linear_502_646" x1="36.7298" y1="28.5364" x2="36.7298" y2="24.8468" gradientUnits="userSpaceOnUse">
<stop stop-color="#433F43" stop-opacity="0"/>
<stop offset="0.4114" stop-color="#373537" stop-opacity="0.269"/>
<stop offset="1" stop-color="#1A1A1A"/>
</linearGradient>
<linearGradient id="paint44_linear_502_646" x1="30.0841" y1="32.2261" x2="30.0841" y2="29.2231" gradientUnits="userSpaceOnUse">
<stop stop-color="#433F43" stop-opacity="0"/>
<stop offset="0.4114" stop-color="#373537" stop-opacity="0.269"/>
<stop offset="1" stop-color="#1A1A1A"/>
</linearGradient>
<linearGradient id="paint45_linear_502_646" x1="23.9306" y1="28.329" x2="21.8137" y2="24.6394" gradientUnits="userSpaceOnUse">
<stop stop-color="#433F43" stop-opacity="0"/>
<stop offset="0.4114" stop-color="#373537" stop-opacity="0.269"/>
<stop offset="1" stop-color="#1A1A1A"/>
</linearGradient>
<linearGradient id="paint46_linear_502_646" x1="23.2388" y1="21.1707" x2="25.0533" y2="16.7553" gradientUnits="userSpaceOnUse">
<stop stop-color="#433F43" stop-opacity="0"/>
<stop offset="0.4114" stop-color="#373537" stop-opacity="0.269"/>
<stop offset="1" stop-color="#1A1A1A"/>
</linearGradient>
<linearGradient id="paint47_linear_502_646" x1="30.7734" y1="16.5381" x2="26.5394" y2="16.4172" gradientUnits="userSpaceOnUse">
<stop stop-color="#433F43" stop-opacity="0"/>
<stop offset="0.4114" stop-color="#373537" stop-opacity="0.269"/>
<stop offset="1" stop-color="#1A1A1A"/>
</linearGradient>
<linearGradient id="paint48_linear_502_646" x1="26.2787" y1="27.477" x2="12.0286" y2="40.5083" gradientUnits="userSpaceOnUse">
<stop stop-color="#FEA613" stop-opacity="0"/>
<stop offset="0.0859" stop-color="#FEA715" stop-opacity="0.032"/>
<stop offset="0.2193" stop-color="#FEAD1B" stop-opacity="0.118"/>
<stop offset="0.3836" stop-color="#FEB625" stop-opacity="0.259"/>
<stop offset="0.5723" stop-color="#FEC233" stop-opacity="0.455"/>
<stop offset="0.7818" stop-color="#FED145" stop-opacity="0.707"/>
<stop offset="1" stop-color="#FEE45A"/>
</linearGradient>
<linearGradient id="paint49_linear_502_646" x1="26.2787" y1="20.523" x2="12.0286" y2="7.49177" gradientUnits="userSpaceOnUse">
<stop stop-color="#FEA613" stop-opacity="0"/>
<stop offset="0.0859" stop-color="#FEA715" stop-opacity="0.032"/>
<stop offset="0.2193" stop-color="#FEAD1B" stop-opacity="0.118"/>
<stop offset="0.3836" stop-color="#FEB625" stop-opacity="0.259"/>
<stop offset="0.5723" stop-color="#FEC233" stop-opacity="0.455"/>
<stop offset="0.7818" stop-color="#FED145" stop-opacity="0.707"/>
<stop offset="1" stop-color="#FEE45A"/>
</linearGradient>
<linearGradient id="paint50_linear_502_646" x1="7.73035" y1="7.47667" x2="10.5428" y2="10.2266" gradientUnits="userSpaceOnUse">
<stop stop-color="#FEA613"/>
<stop offset="1" stop-color="#E94444"/>
</linearGradient>
<linearGradient id="paint51_linear_502_646" x1="24.4635" y1="19.0218" x2="3.18222" y2="34.1156" gradientUnits="userSpaceOnUse">
<stop stop-color="#FEA613" stop-opacity="0"/>
<stop offset="0.102" stop-color="#FDA314" stop-opacity="0.024"/>
<stop offset="0.2333" stop-color="#FC9C17" stop-opacity="0.093"/>
<stop offset="0.3805" stop-color="#F9911D" stop-opacity="0.207"/>
<stop offset="0.5394" stop-color="#F68224" stop-opacity="0.365"/>
<stop offset="0.7077" stop-color="#F26E2E" stop-opacity="0.569"/>
<stop offset="0.8811" stop-color="#EC563A" stop-opacity="0.813"/>
<stop offset="1" stop-color="#E94444"/>
</linearGradient>
<linearGradient id="paint52_linear_502_646" x1="17.2483" y1="30.3751" x2="17.2483" y2="35.0663" gradientUnits="userSpaceOnUse">
<stop stop-color="#FEA613" stop-opacity="0"/>
<stop offset="0.102" stop-color="#FDA314" stop-opacity="0.024"/>
<stop offset="0.2333" stop-color="#FC9C17" stop-opacity="0.093"/>
<stop offset="0.3805" stop-color="#F9911D" stop-opacity="0.207"/>
<stop offset="0.5394" stop-color="#F68224" stop-opacity="0.365"/>
<stop offset="0.7077" stop-color="#F26E2E" stop-opacity="0.569"/>
<stop offset="0.8811" stop-color="#EC563A" stop-opacity="0.813"/>
<stop offset="1" stop-color="#E94444"/>
</linearGradient>
<clipPath id="clip0_502_646">
<rect width="48" height="48" fill="white"/>
</clipPath>
<clipPath id="clip1_502_646">
<rect width="48" height="48" fill="white"/>
</clipPath>
</defs>
</svg>
