<svg width="1411" height="285" viewBox="0 0 1411 285" fill="none" xmlns="http://www.w3.org/2000/svg">
<g clip-path="url(#clip0_512_661)">
<path opacity="0.7" d="M1365.43 254.181C1350.14 250.324 1327.53 248.111 1308.62 252.085C1307.86 247.859 1306.51 243.735 1304.59 239.811C1294.92 219.859 1273.47 207.132 1250.56 201.515C1186.48 185.838 1130.81 226.213 1078 251.817C1046.02 267.293 1008.23 280.673 971.257 273.614C947.063 268.953 923.979 252.722 914.554 231.864C930.865 229.617 946.348 223.899 954.965 212.062C965.651 197.374 956.075 170.832 932.784 175.946C907.875 181.412 902.777 209.983 909.361 228.779C894.093 230.38 878.628 229.557 863.683 226.347C792.643 211.559 746.701 157.787 703.374 109.833C683.545 87.8348 663.245 63.9753 636.229 48.6167C625.731 42.6476 610.511 36.9971 595.893 35.9408C593.655 30.6752 590.436 25.7835 586.374 21.4708C566.112 0.545567 532.7 -2.50604 503.783 1.53482C472.76 5.87749 443.788 18.0168 418.183 33.9623C361.216 69.4917 322.856 122.241 278.55 168.904C256.35 192.277 230.858 216.975 195.772 223.698C173.572 227.957 148.306 223.279 135.23 208.256C144.129 193.45 147.854 176.6 142.906 159.849C142.828 159.64 142.703 159.446 142.541 159.28C142.378 159.113 142.18 158.977 141.958 158.879C141.736 158.78 141.494 158.722 141.247 158.708C141 158.693 140.751 158.722 140.517 158.793C121.346 165.818 119.352 186.308 126.595 201.616C127.763 204.083 129.2 206.441 130.884 208.658C118.844 227.102 98.0551 241.79 76.6831 249.469C52.3033 257.983 25.7161 260.169 0 255.774L0 258.926C46.4501 266.689 96.6817 255.187 126.67 220.211C129.068 217.406 131.28 214.478 133.292 211.441C145.897 225.375 167.514 230.254 187.851 228.209C219.251 225.073 244.63 207.065 265.494 187.129C289.725 164.075 310.702 138.471 332.996 114.008C375.364 67.3287 426.216 19.8444 494.678 6.51463C527.413 0.126388 569.028 1.87016 588.744 29.9885C590.052 31.8784 591.203 33.851 592.187 35.8905C580.222 35.7061 568.99 38.8918 561.409 47.8789C550.121 61.2926 561.409 86.6779 582.63 78.5123C600.446 71.6379 602.497 54.6193 597.342 39.7134C602.053 40.031 606.717 40.7668 611.264 41.9099C627.65 46.1855 641.911 55.3235 654.347 65.3837C680.027 86.4432 700.609 112.331 722.62 136.342C762.805 180.221 812.247 225.056 878.771 231.914C889.391 233.042 900.122 233.087 910.754 232.048C919.784 252.538 940.855 268.768 964.221 275.173C995.395 283.707 1029.62 275.592 1058.38 264.04C1090.16 251.498 1118.43 233.054 1149.49 219.171C1178.43 206.21 1210.3 197.374 1242.79 203.309C1269.82 208.239 1296.77 223.43 1304.01 248.581C1304.43 250.039 1304.76 251.516 1305.01 253.007C1289.45 257.081 1277.09 265.8 1274.7 281.964C1274.6 282.397 1274.69 282.848 1274.96 283.219C1275.24 283.59 1275.66 283.85 1276.15 283.942C1286.85 287.212 1298.5 282.601 1304.37 274.251C1308.14 268.662 1309.78 262.128 1309.01 255.639C1311.12 255.086 1313.25 254.633 1315.35 254.248C1333.98 250.894 1353.38 254.063 1371.17 259.278C1385.32 263.475 1398.73 269.442 1411 277.001V272.96C1397 264.622 1381.63 258.286 1365.43 254.181ZM133.01 205.355C129.312 200.046 127.117 194.016 126.614 187.783C125.635 177.622 129.53 167.663 139.896 162.851C143.421 177.295 140.976 192.389 133.01 205.355ZM584.248 73.7673C567.053 84.1293 554.542 63.4555 563.459 50.9473C569.875 41.9434 581.878 39.2104 593.692 39.4451C598.264 51.6348 597.079 66.0377 584.248 73.7673ZM913.124 228.225C912.021 225.264 911.209 222.224 910.697 219.138C908.496 205.456 913.331 189.074 927.328 181.512C945.558 171.637 960.082 189.493 954.758 204.684C949.434 219.875 929.322 225.861 913.651 228.158L913.124 228.225ZM1300.17 273.765C1297.78 276.712 1294.47 278.973 1290.65 280.268C1286.83 281.564 1282.67 281.839 1278.69 281.058C1281.3 268.483 1292.53 260.753 1305.38 256.645C1305.96 262.72 1304.11 268.782 1300.17 273.765Z" fill="url(#paint0_linear_512_661)"/>
</g>
<defs>
<linearGradient id="paint0_linear_512_661" x1="105.825" y1="-163.456" x2="1427.47" y2="654.452" gradientUnits="userSpaceOnUse">
<stop offset="0.0992937" stop-color="#5D007F"/>
<stop offset="0.556576" stop-color="#9E2FF4"/>
<stop offset="1" stop-color="#DE5AF9"/>
</linearGradient>
<clipPath id="clip0_512_661">
<rect width="1411" height="285" fill="white"/>
</clipPath>
</defs>
</svg>
