<svg width="48" height="48" viewBox="0 0 48 48" fill="none" xmlns="http://www.w3.org/2000/svg">
<g clip-path="url(#clip0_502_652)">
<path d="M10.4824 46.1623C4.70231 46.1623 0 41.4599 0 35.6798C0 35.0611 0.0549375 34.4394 0.163219 33.8311L2.19731 10.0651C2.22844 5.52296 5.93306 1.83765 10.4824 1.83765C11.166 1.83765 11.8459 1.92146 12.5042 2.08655L35.2611 5.94615C38.6856 6.10918 41.8796 7.56015 44.2628 10.0377C46.6728 12.5431 48 15.8378 48 19.3151C48 24.5341 44.9384 29.3053 40.1966 31.4837L15.7195 44.7616C14.1333 45.678 12.3227 46.1623 10.4824 46.1623ZM10.4824 4.44024C7.34887 4.44024 4.79962 6.98949 4.79962 10.123L4.79494 10.234L2.74566 34.1771L2.73412 34.2393C2.64675 34.7127 2.6025 35.1973 2.6025 35.6799C2.6025 40.0248 6.13734 43.5598 10.4823 43.5598C11.871 43.5598 13.2361 43.1936 14.4301 42.5009L14.4627 42.4826L39.0345 29.1533L39.0759 29.1345C42.916 27.3866 45.3974 23.5322 45.3974 19.3151C45.3974 13.514 40.8606 8.78227 35.0689 8.54274L34.9865 8.53927L34.9051 8.52558L11.9627 4.6343L11.9093 4.62062C11.4458 4.5009 10.9657 4.44024 10.4824 4.44024Z" fill="url(#paint0_linear_502_652)"/>
<path d="M46.6983 19.315C46.6983 12.8115 41.5603 7.50879 35.1222 7.24254L12.2341 3.36063L12.234 3.36073C11.674 3.21607 11.087 3.13892 10.4818 3.13892C6.62466 3.13892 3.49781 6.26576 3.49781 10.1229L1.45406 34.0031C1.35375 34.5468 1.30078 35.1071 1.30078 35.6798C1.30078 40.7504 5.41125 44.8609 10.4819 44.8609C12.1585 44.8609 13.73 44.4112 15.0828 43.6263L39.6146 30.3187C43.7931 28.4169 46.6983 24.2054 46.6983 19.315ZM39.0341 29.1532L14.4622 42.4825L14.4296 42.5008C13.2356 43.1935 11.8705 43.5597 10.4818 43.5597C6.13688 43.5597 2.60203 40.0248 2.60203 35.6798C2.60203 35.1972 2.64628 34.7126 2.73366 34.2393L2.74519 34.177L4.79437 10.2339L4.79906 10.1229C4.79906 6.98951 7.34831 4.44017 10.4818 4.44017C10.9652 4.44017 11.4453 4.50082 11.9088 4.62054L11.9621 4.63423L34.9045 8.52542L34.9859 8.5391L35.0683 8.54257C40.86 8.7821 45.3968 13.5139 45.3968 19.3149C45.3968 23.5321 42.9156 27.3864 39.0754 29.1343L39.0341 29.1532Z" fill="url(#paint1_linear_502_652)"/>
<path d="M35.2613 5.9461L23.7305 3.99048V6.6302L34.9054 8.52554L34.9867 8.53923L35.0692 8.5427C40.8608 8.78223 45.3977 13.514 45.3977 19.315C45.3977 23.5322 42.9164 27.3865 39.0762 29.1344L39.0348 29.1533L23.7305 37.4553V40.4162L40.1969 31.4839C44.9387 29.3051 48.0003 24.5339 48.0003 19.315C48.0003 15.8378 46.6731 12.543 44.263 10.0376C41.8799 7.5601 38.6858 6.10923 35.2613 5.9461Z" fill="url(#paint2_linear_502_652)"/>
<path d="M43.0863 8.95068L40.3377 10.1642C43.3883 12.0689 45.3975 15.4549 45.3975 19.3149C45.3975 23.5321 42.9162 27.3864 39.076 29.1343L39.0346 29.1532L14.4627 42.4824L14.4301 42.5007C13.2361 43.1934 11.871 43.5596 10.4823 43.5596C6.13734 43.5596 2.6025 40.0247 2.6025 35.6797C2.6025 35.1971 2.64675 34.7125 2.73412 34.2392L2.74566 34.1769L3.40528 26.4702L0.690656 27.6688L0.163219 33.8311C0.0549375 34.4394 0 35.0611 0 35.6797C0 41.4597 4.70231 46.1621 10.4824 46.1621C12.3227 46.1621 14.1333 45.6778 15.7195 44.7614L40.1966 31.4836C44.9384 29.3051 48 24.5339 48 19.315C48 15.8377 46.6728 12.543 44.2627 10.0376C43.8897 9.64978 43.4968 9.28715 43.0863 8.95068Z" fill="url(#paint3_linear_502_652)"/>
<path d="M10.4839 44.8608C15.5545 44.8608 19.665 40.7503 19.665 35.6797C19.665 30.6091 15.5545 26.4985 10.4839 26.4985C5.41326 26.4985 1.30273 30.6091 1.30273 35.6797C1.30273 40.7503 5.41326 44.8608 10.4839 44.8608Z" fill="url(#paint4_linear_502_652)"/>
<path d="M10.4815 30.4713C11.221 30.4713 11.8205 29.8719 11.8205 29.1324C11.8205 28.3929 11.221 27.7935 10.4815 27.7935C9.74204 27.7935 9.14258 28.3929 9.14258 29.1324C9.14258 29.8719 9.74204 30.4713 10.4815 30.4713Z" fill="url(#paint5_linear_502_652)"/>
<path d="M10.4807 30.0954C11.0126 30.0954 11.4438 29.6642 11.4438 29.1323C11.4438 28.6004 11.0126 28.1692 10.4807 28.1692C9.94877 28.1692 9.51758 28.6004 9.51758 29.1323C9.51758 29.6642 9.94877 30.0954 10.4807 30.0954Z" fill="url(#paint6_linear_502_652)"/>
<path d="M9.51758 29.1323C9.51758 29.6643 9.94873 30.0954 10.4807 30.0954C11.0126 30.0954 11.4438 29.6643 11.4438 29.1323C11.4438 29.1067 11.4427 29.0814 11.4408 29.0564H9.52048C9.51861 29.0814 9.51758 29.1067 9.51758 29.1323Z" fill="url(#paint7_linear_502_652)"/>
<path d="M9.79961 29.8133C10.1757 30.1894 10.7855 30.1894 11.1616 29.8133C11.5377 29.4372 11.5377 28.8274 11.1616 28.4513C11.1435 28.4332 11.1249 28.4161 11.1058 28.3997L9.74805 29.7574C9.76427 29.7766 9.78152 29.7952 9.79961 29.8133Z" fill="url(#paint8_linear_502_652)"/>
<path d="M10.4815 43.5661C11.221 43.5661 11.8205 42.9666 11.8205 42.2271C11.8205 41.4876 11.221 40.8882 10.4815 40.8882C9.74204 40.8882 9.14258 41.4876 9.14258 42.2271C9.14258 42.9666 9.74204 43.5661 10.4815 43.5661Z" fill="url(#paint9_linear_502_652)"/>
<path d="M10.4807 43.1901C11.0126 43.1901 11.4438 42.7589 11.4438 42.227C11.4438 41.6951 11.0126 41.2639 10.4807 41.2639C9.94877 41.2639 9.51758 41.6951 9.51758 42.227C9.51758 42.7589 9.94877 43.1901 10.4807 43.1901Z" fill="url(#paint10_linear_502_652)"/>
<path d="M9.51758 42.2271C9.51758 42.759 9.94873 43.1902 10.4807 43.1902C11.0126 43.1902 11.4438 42.759 11.4438 42.2271C11.4438 42.2015 11.4427 42.1762 11.4408 42.1511H9.52048C9.51861 42.1762 9.51758 42.2016 9.51758 42.2271Z" fill="url(#paint11_linear_502_652)"/>
<path d="M9.79961 42.908C10.1757 43.2842 10.7855 43.2842 11.1616 42.908C11.5377 42.5319 11.5377 41.9222 11.1616 41.546C11.1435 41.5279 11.1249 41.5108 11.1058 41.4944L9.74805 42.8522C9.76427 42.8714 9.78152 42.89 9.79961 42.908Z" fill="url(#paint12_linear_502_652)"/>
<path d="M17.0303 37.0185C17.7698 37.0185 18.3693 36.419 18.3693 35.6795C18.3693 34.94 17.7698 34.3406 17.0303 34.3406C16.2909 34.3406 15.6914 34.94 15.6914 35.6795C15.6914 36.419 16.2909 37.0185 17.0303 37.0185Z" fill="url(#paint13_linear_502_652)"/>
<path d="M17.0315 36.6425C17.5634 36.6425 17.9945 36.2113 17.9945 35.6794C17.9945 35.1475 17.5634 34.7163 17.0315 34.7163C16.4996 34.7163 16.0684 35.1475 16.0684 35.6794C16.0684 36.2113 16.4996 36.6425 17.0315 36.6425Z" fill="url(#paint14_linear_502_652)"/>
<path d="M16.0684 35.6795C16.0684 36.2114 16.4995 36.6425 17.0315 36.6425C17.5634 36.6425 17.9945 36.2114 17.9945 35.6795C17.9945 35.6539 17.9935 35.6285 17.9915 35.6035H16.0714C16.0694 35.6285 16.0684 35.6539 16.0684 35.6795Z" fill="url(#paint15_linear_502_652)"/>
<path d="M16.3504 36.3604C16.7265 36.7366 17.3363 36.7366 17.7124 36.3604C18.0885 35.9843 18.0885 35.3746 17.7124 34.9984C17.6943 34.9803 17.6756 34.9632 17.6566 34.9468L16.2988 36.3046C16.3151 36.3238 16.3323 36.3423 16.3504 36.3604Z" fill="url(#paint16_linear_502_652)"/>
<path d="M3.93659 37.0185C4.67607 37.0185 5.27553 36.419 5.27553 35.6795C5.27553 34.94 4.67607 34.3406 3.93659 34.3406C3.19712 34.3406 2.59766 34.94 2.59766 35.6795C2.59766 36.419 3.19712 37.0185 3.93659 37.0185Z" fill="url(#paint17_linear_502_652)"/>
<path d="M3.93575 36.6425C4.46765 36.6425 4.89884 36.2113 4.89884 35.6794C4.89884 35.1475 4.46765 34.7163 3.93575 34.7163C3.40385 34.7163 2.97266 35.1475 2.97266 35.6794C2.97266 36.2113 3.40385 36.6425 3.93575 36.6425Z" fill="url(#paint18_linear_502_652)"/>
<path d="M2.97266 35.6795C2.97266 36.2114 3.40381 36.6425 3.93575 36.6425C4.46769 36.6425 4.89884 36.2114 4.89884 35.6795C4.89884 35.6539 4.89781 35.6285 4.89584 35.6035H2.97556C2.97359 35.6285 2.97266 35.6539 2.97266 35.6795Z" fill="url(#paint19_linear_502_652)"/>
<path d="M3.25469 36.3604C3.63081 36.7366 4.24056 36.7366 4.61669 36.3604C4.99281 35.9843 4.99281 35.3746 4.61669 34.9984C4.59859 34.9803 4.57994 34.9632 4.56091 34.9468L3.20312 36.3046C3.21944 36.3238 3.23669 36.3423 3.25469 36.3604Z" fill="url(#paint20_linear_502_652)"/>
<path d="M1.30273 35.6797C1.30273 40.7503 5.4132 44.8608 10.4839 44.8608C15.5544 44.8608 19.665 40.7503 19.665 35.6797C19.665 35.4359 19.6553 35.1945 19.6367 34.9556H1.33105C1.31248 35.1945 1.30273 35.4359 1.30273 35.6797Z" fill="url(#paint21_linear_502_652)"/>
<path d="M3.992 42.1716C7.57747 45.757 13.3906 45.757 16.976 42.1716C20.5615 38.5861 20.5615 32.7729 16.976 29.1876C16.8037 29.0152 16.626 28.8514 16.444 28.6956L3.5 41.6395C3.65572 41.8217 3.81959 41.9992 3.992 42.1716Z" fill="url(#paint22_linear_502_652)"/>
<path d="M10.4828 39.7015C12.704 39.7015 14.5047 37.9008 14.5047 35.6796C14.5047 33.4584 12.704 31.6577 10.4828 31.6577C8.26159 31.6577 6.46094 33.4584 6.46094 35.6796C6.46094 37.9008 8.26159 39.7015 10.4828 39.7015Z" fill="url(#paint23_linear_502_652)"/>
<path d="M10.4828 38.5727C12.0805 38.5727 13.3757 37.2775 13.3757 35.6798C13.3757 34.0821 12.0805 32.7869 10.4828 32.7869C8.88506 32.7869 7.58984 34.0821 7.58984 35.6798C7.58984 37.2775 8.88506 38.5727 10.4828 38.5727Z" fill="url(#paint24_linear_502_652)"/>
<path d="M7.58984 35.6798C7.58984 37.2775 8.885 38.5728 10.4828 38.5728C12.0806 38.5728 13.3757 37.2776 13.3757 35.6798C13.3757 35.6031 13.3726 35.5269 13.3668 35.4517H7.59875C7.59294 35.527 7.58984 35.6031 7.58984 35.6798Z" fill="url(#paint25_linear_502_652)"/>
<path d="M8.43622 37.7255C9.566 38.8552 11.3977 38.8552 12.5274 37.7255C13.6572 36.5957 13.6572 34.764 12.5274 33.6343C12.4731 33.58 12.4171 33.5284 12.3598 33.4792L8.28125 37.5577C8.33028 37.6152 8.38194 37.6712 8.43622 37.7255Z" fill="url(#paint26_linear_502_652)"/>
<path d="M10.484 17.1069C14.3412 17.1069 17.468 13.9801 17.468 10.1229C17.468 6.26576 14.3412 3.13892 10.484 3.13892C6.62684 3.13892 3.5 6.26576 3.5 10.1229C3.5 13.9801 6.62684 17.1069 10.484 17.1069Z" fill="url(#paint27_linear_502_652)"/>
<path d="M3.5 10.1229C3.5 13.9801 6.62684 17.1069 10.484 17.1069C14.3412 17.1069 17.468 13.9801 17.468 10.1229C17.468 9.93746 17.4606 9.7538 17.4464 9.57202H3.52156C3.50731 9.7538 3.5 9.93746 3.5 10.1229Z" fill="url(#paint28_linear_502_652)"/>
<path d="M5.54612 15.0614C8.27359 17.7889 12.6956 17.7889 15.423 15.0614C18.1504 12.3339 18.1503 7.91193 15.423 5.18455C15.2919 5.05349 15.1568 4.9288 15.0182 4.8103L5.17188 14.6566C5.29038 14.7951 5.41506 14.9302 5.54612 15.0614Z" fill="url(#paint29_linear_502_652)"/>
<path d="M10.4834 15.0613C13.2108 15.0613 15.4219 12.8502 15.4219 10.1228C15.4219 7.39535 13.2108 5.18433 10.4834 5.18433C7.75595 5.18433 5.54492 7.39535 5.54492 10.1228C5.54492 12.8502 7.75595 15.0613 10.4834 15.0613Z" fill="url(#paint30_linear_502_652)"/>
<path d="M10.4838 13.6749C12.4456 13.6749 14.036 12.0846 14.036 10.1227C14.036 8.16093 12.4456 6.57056 10.4838 6.57056C8.52201 6.57056 6.93164 8.16093 6.93164 10.1227C6.93164 12.0846 8.52201 13.6749 10.4838 13.6749Z" fill="url(#paint31_linear_502_652)"/>
<path d="M6.93164 10.1227C6.93164 12.0845 8.52202 13.6748 10.4838 13.6748C12.4456 13.6748 14.036 12.0845 14.036 10.1227C14.036 10.0283 14.0323 9.93497 14.025 9.84253H6.94261C6.93539 9.93497 6.93164 10.0283 6.93164 10.1227Z" fill="url(#paint32_linear_502_652)"/>
<path d="M7.97156 12.6346C9.35878 14.0218 11.6079 14.0218 12.9952 12.6346C14.3824 11.2473 14.3824 8.99819 12.9952 7.61097C12.9285 7.54431 12.8598 7.48084 12.7893 7.42065L7.78125 12.4287C7.84153 12.4992 7.90491 12.5679 7.97156 12.6346Z" fill="url(#paint33_linear_502_652)"/>
<path d="M34.6152 31.399C41.2889 31.399 46.6991 25.9889 46.6991 19.3151C46.6991 12.6413 41.2889 7.2312 34.6152 7.2312C27.9414 7.2312 22.5312 12.6413 22.5312 19.3151C22.5312 25.9889 27.9414 31.399 34.6152 31.399Z" fill="url(#paint34_linear_502_652)"/>
<path d="M22.5312 19.3151C22.5312 25.9889 27.9414 31.399 34.6152 31.399C41.2889 31.399 46.6991 25.9889 46.6991 19.3151C46.6991 18.9943 46.6863 18.6766 46.6617 18.3621H22.5686C22.544 18.6766 22.5312 18.9944 22.5312 19.3151Z" fill="url(#paint35_linear_502_652)"/>
<path d="M26.0715 27.8598C30.7905 32.5789 38.4416 32.5789 43.1607 27.8598C47.8798 23.1407 47.8797 15.4897 43.1607 10.7706C42.9338 10.5437 42.7001 10.3281 42.4604 10.123L25.4238 27.1595C25.6289 27.3992 25.8446 27.6329 26.0715 27.8598Z" fill="url(#paint36_linear_502_652)"/>
<path d="M31.6133 22.3168L39.6153 30.3188C42.2698 29.1105 44.4103 26.9701 45.6186 24.3155L37.6166 16.3135L31.6133 22.3168Z" fill="url(#paint37_linear_502_652)"/>
<path d="M34.6138 24.3058C37.3702 24.3058 39.6046 22.0713 39.6046 19.315C39.6046 16.5587 37.3702 14.3242 34.6138 14.3242C31.8575 14.3242 29.623 16.5587 29.623 19.315C29.623 22.0713 31.8575 24.3058 34.6138 24.3058Z" fill="url(#paint38_linear_502_652)"/>
<path d="M34.614 23.5599C36.9584 23.5599 38.859 21.6594 38.859 19.315C38.859 16.9706 36.9584 15.0701 34.614 15.0701C32.2696 15.0701 30.3691 16.9706 30.3691 19.315C30.3691 21.6594 32.2696 23.5599 34.614 23.5599Z" fill="url(#paint39_linear_502_652)"/>
<path d="M30.3691 19.315C30.3691 21.6594 32.2696 23.5599 34.614 23.5599C36.9585 23.5599 38.859 21.6594 38.859 19.315C38.859 19.2023 38.8545 19.0907 38.8458 18.9802H30.3822C30.3735 19.0908 30.3691 19.2023 30.3691 19.315Z" fill="url(#paint40_linear_502_652)"/>
<path d="M31.6122 22.3167C33.27 23.9744 35.9577 23.9744 37.6155 22.3167C39.2733 20.6589 39.2733 17.9712 37.6155 16.3134C37.5358 16.2337 37.4537 16.1579 37.3695 16.0859L31.3848 22.0707C31.4567 22.1548 31.5325 22.237 31.6122 22.3167Z" fill="url(#paint41_linear_502_652)"/>
<path d="M39.9202 17.0187C40.3431 17.9945 41.3926 18.5387 42.4312 18.3101L44.2025 17.9202C44.8932 17.7681 45.3128 17.0666 45.1235 16.385C44.6233 14.5851 43.6737 12.9731 42.4027 11.6779C41.9086 11.1744 41.0919 11.1906 40.6161 11.7115L39.3937 13.0497C38.6708 13.8412 38.6336 15.0255 39.2697 15.8883C39.5269 16.2372 39.7458 16.6161 39.9202 17.0187Z" fill="url(#paint42_linear_502_652)"/>
<path d="M44.2026 20.7099L42.4313 20.32C41.3927 20.0913 40.3432 20.6355 39.9203 21.6114C39.7459 22.0139 39.527 22.3928 39.2697 22.7417C38.6336 23.6045 38.6708 24.7888 39.3937 25.5803L40.6161 26.9186C41.0918 27.4394 41.9086 27.4557 42.4027 26.9521C43.6737 25.657 44.6233 24.0449 45.1235 22.245C45.3129 21.5635 44.8934 20.8619 44.2026 20.7099Z" fill="url(#paint43_linear_502_652)"/>
<path d="M37.6535 26.5868C37.3303 25.567 36.3261 24.9409 35.2629 25.0595C35.0505 25.0832 34.8344 25.0954 34.6156 25.0954C34.3973 25.0954 34.1818 25.0832 33.9697 25.0596C32.9064 24.9411 31.9021 25.567 31.5788 26.5869L31.0306 28.3162C30.8175 28.9887 31.2115 29.7045 31.8946 29.8801C32.7646 30.1038 33.6764 30.2227 34.6156 30.2227C35.5557 30.2227 36.4677 30.1038 37.3378 29.8801C38.021 29.7045 38.415 28.9887 38.2019 28.3162L37.6535 26.5868Z" fill="url(#paint44_linear_502_652)"/>
<path d="M29.3104 21.6113C28.8877 20.6355 27.8381 20.0914 26.7996 20.3199L25.0271 20.71C24.3363 20.8621 23.9166 21.5637 24.1061 22.2453C24.6066 24.0452 25.5569 25.6571 26.8282 26.9524C27.3223 27.4559 28.139 27.4396 28.6148 26.9187L29.8372 25.5804C30.5601 24.789 30.5973 23.6047 29.9612 22.7419C29.7038 22.3928 29.4848 22.0139 29.3104 21.6113Z" fill="url(#paint45_linear_502_652)"/>
<path d="M28.6147 11.7115C28.139 11.1906 27.3223 11.1743 26.8281 11.6779C25.5569 12.973 24.6066 14.585 24.1061 16.3849C23.9166 17.0665 24.3363 17.7682 25.0271 17.9202L26.7995 18.3103C27.8381 18.5389 28.8876 17.9947 29.3104 17.0189C29.4848 16.6162 29.7037 16.2374 29.961 15.8884C30.5971 15.0257 30.5599 13.8413 29.837 13.0499L28.6147 11.7115Z" fill="url(#paint46_linear_502_652)"/>
<path d="M37.3378 8.75003C36.4677 8.52635 35.5557 8.40747 34.6156 8.40747C33.6764 8.40747 32.7647 8.52635 31.8947 8.75003C31.2114 8.92572 30.8175 9.6415 31.0307 10.314L31.5788 12.0433C31.9022 13.0632 32.9063 13.6891 33.9697 13.5706C34.1818 13.5469 34.3972 13.5348 34.6156 13.5348C34.8345 13.5348 35.0505 13.5469 35.2629 13.5707C36.3261 13.6892 37.3303 13.0632 37.6535 12.0434L38.2018 10.314C38.4151 9.6415 38.021 8.92572 37.3378 8.75003Z" fill="url(#paint47_linear_502_652)"/>
<path d="M39.9202 17.0187C40.3431 17.9945 41.3926 18.5387 42.4312 18.3101L44.2025 17.9202C44.8932 17.7681 45.3128 17.0666 45.1235 16.385C44.6233 14.5851 43.6737 12.9731 42.4027 11.6779C41.9086 11.1744 41.0919 11.1906 40.6161 11.7115L39.3937 13.0497C38.6708 13.8412 38.6336 15.0255 39.2697 15.8883C39.5269 16.2372 39.7458 16.6161 39.9202 17.0187Z" fill="url(#paint48_linear_502_652)"/>
<path d="M44.2026 20.7099L42.4313 20.32C41.3927 20.0913 40.3432 20.6355 39.9203 21.6114C39.7459 22.0139 39.527 22.3928 39.2697 22.7417C38.6336 23.6045 38.6708 24.7888 39.3937 25.5803L40.6161 26.9186C41.0918 27.4394 41.9086 27.4557 42.4027 26.9521C43.6737 25.657 44.6233 24.0449 45.1235 22.245C45.3129 21.5635 44.8934 20.8619 44.2026 20.7099Z" fill="url(#paint49_linear_502_652)"/>
<path d="M37.6535 26.5868C37.3303 25.567 36.3261 24.9409 35.2629 25.0595C35.0505 25.0832 34.8344 25.0954 34.6156 25.0954C34.3973 25.0954 34.1818 25.0832 33.9697 25.0596C32.9064 24.9411 31.9021 25.567 31.5788 26.5869L31.0306 28.3162C30.8175 28.9887 31.2115 29.7045 31.8946 29.8801C32.7646 30.1038 33.6764 30.2227 34.6156 30.2227C35.5557 30.2227 36.4677 30.1038 37.3378 29.8801C38.021 29.7045 38.415 28.9887 38.2019 28.3162L37.6535 26.5868Z" fill="url(#paint50_linear_502_652)"/>
<path d="M29.3104 21.6113C28.8877 20.6355 27.8381 20.0914 26.7996 20.3199L25.0271 20.71C24.3363 20.8621 23.9166 21.5637 24.1061 22.2453C24.6066 24.0452 25.5569 25.6571 26.8282 26.9524C27.3223 27.4559 28.139 27.4396 28.6148 26.9187L29.8372 25.5804C30.5601 24.789 30.5973 23.6047 29.9612 22.7419C29.7038 22.3928 29.4848 22.0139 29.3104 21.6113Z" fill="url(#paint51_linear_502_652)"/>
<path d="M28.6147 11.7115C28.139 11.1906 27.3223 11.1743 26.8281 11.6779C25.5569 12.973 24.6066 14.585 24.1061 16.3849C23.9166 17.0665 24.3363 17.7682 25.0271 17.9202L26.7995 18.3103C27.8381 18.5389 28.8876 17.9947 29.3104 17.0189C29.4848 16.6162 29.7037 16.2374 29.961 15.8884C30.5971 15.0257 30.5599 13.8413 29.837 13.0499L28.6147 11.7115Z" fill="url(#paint52_linear_502_652)"/>
<path d="M37.3378 8.75003C36.4677 8.52635 35.5557 8.40747 34.6156 8.40747C33.6764 8.40747 32.7647 8.52635 31.8947 8.75003C31.2114 8.92572 30.8175 9.6415 31.0307 10.314L31.5788 12.0433C31.9022 13.0632 32.9063 13.6891 33.9697 13.5706C34.1818 13.5469 34.3972 13.5348 34.6156 13.5348C34.8345 13.5348 35.0505 13.5469 35.2629 13.5707C36.3261 13.6892 37.3303 13.0632 37.6535 12.0434L38.2018 10.314C38.4151 9.6415 38.021 8.92572 37.3378 8.75003Z" fill="url(#paint53_linear_502_652)"/>
<path d="M39.9202 17.0187C40.3431 17.9945 41.3926 18.5387 42.4312 18.3101L44.2025 17.9202C44.8932 17.7681 45.3128 17.0666 45.1235 16.385C44.6233 14.5851 43.6737 12.9731 42.4027 11.6779C41.9086 11.1744 41.0919 11.1906 40.6161 11.7115L39.3937 13.0497C38.6708 13.8412 38.6336 15.0255 39.2697 15.8883C39.5269 16.2372 39.7458 16.6161 39.9202 17.0187Z" fill="url(#paint54_linear_502_652)"/>
<path d="M44.2026 20.7099L42.4313 20.32C41.3927 20.0913 40.3432 20.6355 39.9203 21.6114C39.7459 22.0139 39.527 22.3928 39.2697 22.7417C38.6336 23.6045 38.6708 24.7888 39.3937 25.5803L40.6161 26.9186C41.0918 27.4394 41.9086 27.4557 42.4027 26.9521C43.6737 25.657 44.6233 24.0449 45.1235 22.245C45.3129 21.5635 44.8934 20.8619 44.2026 20.7099Z" fill="url(#paint55_linear_502_652)"/>
<path d="M37.6535 26.5868C37.3303 25.567 36.3261 24.9409 35.2629 25.0595C35.0505 25.0832 34.8344 25.0954 34.6156 25.0954C34.3973 25.0954 34.1818 25.0832 33.9697 25.0596C32.9064 24.9411 31.9021 25.567 31.5788 26.5869L31.0306 28.3162C30.8175 28.9887 31.2115 29.7045 31.8946 29.8801C32.7646 30.1038 33.6764 30.2227 34.6156 30.2227C35.5557 30.2227 36.4677 30.1038 37.3378 29.8801C38.021 29.7045 38.415 28.9887 38.2019 28.3162L37.6535 26.5868Z" fill="url(#paint56_linear_502_652)"/>
<path d="M29.3104 21.6113C28.8877 20.6355 27.8381 20.0914 26.7996 20.3199L25.0271 20.71C24.3363 20.8621 23.9166 21.5637 24.1061 22.2453C24.6066 24.0452 25.5569 25.6571 26.8282 26.9524C27.3223 27.4559 28.139 27.4396 28.6148 26.9187L29.8372 25.5804C30.5601 24.789 30.5973 23.6047 29.9612 22.7419C29.7038 22.3928 29.4848 22.0139 29.3104 21.6113Z" fill="url(#paint57_linear_502_652)"/>
<path d="M28.6147 11.7115C28.139 11.1906 27.3223 11.1743 26.8281 11.6779C25.5569 12.973 24.6066 14.585 24.1061 16.3849C23.9166 17.0665 24.3363 17.7682 25.0271 17.9202L26.7995 18.3103C27.8381 18.5389 28.8876 17.9947 29.3104 17.0189C29.4848 16.6162 29.7037 16.2374 29.961 15.8884C30.5971 15.0257 30.5599 13.8413 29.837 13.0499L28.6147 11.7115Z" fill="url(#paint58_linear_502_652)"/>
<path d="M37.3378 8.75003C36.4677 8.52635 35.5557 8.40747 34.6156 8.40747C33.6764 8.40747 32.7647 8.52635 31.8947 8.75003C31.2114 8.92572 30.8175 9.6415 31.0307 10.314L31.5788 12.0433C31.9022 13.0632 32.9063 13.6891 33.9697 13.5706C34.1818 13.5469 34.3972 13.5348 34.6156 13.5348C34.8345 13.5348 35.0505 13.5469 35.2629 13.5707C36.3261 13.6892 37.3303 13.0632 37.6535 12.0434L38.2018 10.314C38.4151 9.6415 38.021 8.92572 37.3378 8.75003Z" fill="url(#paint59_linear_502_652)"/>
</g>
<defs>
<linearGradient id="paint0_linear_502_652" x1="3.00028" y1="5.89327" x2="35.8577" y2="38.7508" gradientUnits="userSpaceOnUse">
<stop stop-color="#5A5A5A"/>
<stop offset="1" stop-color="#444444"/>
</linearGradient>
<linearGradient id="paint1_linear_502_652" x1="35.7825" y1="38.6795" x2="2.72062" y2="5.61766" gradientUnits="userSpaceOnUse">
<stop stop-color="#5A5A5A"/>
<stop offset="1" stop-color="#444444"/>
</linearGradient>
<linearGradient id="paint2_linear_502_652" x1="39.2661" y1="22.2033" x2="46.8298" y2="22.2033" gradientUnits="userSpaceOnUse">
<stop stop-color="#433F43" stop-opacity="0"/>
<stop offset="0.4114" stop-color="#373537" stop-opacity="0.269"/>
<stop offset="1" stop-color="#1A1A1A"/>
</linearGradient>
<linearGradient id="paint3_linear_502_652" x1="27.8098" y1="34.57" x2="29.2941" y2="37.4643" gradientUnits="userSpaceOnUse">
<stop stop-color="#433F43" stop-opacity="0"/>
<stop offset="0.4114" stop-color="#373537" stop-opacity="0.269"/>
<stop offset="1" stop-color="#1A1A1A"/>
</linearGradient>
<linearGradient id="paint4_linear_502_652" x1="5.32986" y1="30.5258" x2="16.8274" y2="42.0232" gradientUnits="userSpaceOnUse">
<stop stop-color="#E1D3CE"/>
<stop offset="1" stop-color="#9E9797"/>
</linearGradient>
<linearGradient id="paint5_linear_502_652" x1="11.2748" y1="29.9258" x2="9.41089" y2="28.0618" gradientUnits="userSpaceOnUse">
<stop stop-color="#E1D3CE"/>
<stop offset="1" stop-color="#9E9797"/>
</linearGradient>
<linearGradient id="paint6_linear_502_652" x1="9.94002" y1="28.5916" x2="11.146" y2="29.7977" gradientUnits="userSpaceOnUse">
<stop stop-color="#E1D3CE"/>
<stop offset="1" stop-color="#9E9797"/>
</linearGradient>
<linearGradient id="paint7_linear_502_652" x1="10.4807" y1="29.2728" x2="10.4807" y2="30.4875" gradientUnits="userSpaceOnUse">
<stop stop-color="#433F43" stop-opacity="0"/>
<stop offset="0.4114" stop-color="#373537" stop-opacity="0.269"/>
<stop offset="1" stop-color="#1A1A1A"/>
</linearGradient>
<linearGradient id="paint8_linear_502_652" x1="10.5965" y1="29.2482" x2="11.338" y2="29.9898" gradientUnits="userSpaceOnUse">
<stop stop-color="#433F43" stop-opacity="0"/>
<stop offset="0.4114" stop-color="#373537" stop-opacity="0.269"/>
<stop offset="1" stop-color="#1A1A1A"/>
</linearGradient>
<linearGradient id="paint9_linear_502_652" x1="11.2748" y1="43.0206" x2="9.41089" y2="41.1566" gradientUnits="userSpaceOnUse">
<stop stop-color="#E1D3CE"/>
<stop offset="1" stop-color="#9E9797"/>
</linearGradient>
<linearGradient id="paint10_linear_502_652" x1="9.94002" y1="41.6864" x2="11.146" y2="42.8925" gradientUnits="userSpaceOnUse">
<stop stop-color="#E1D3CE"/>
<stop offset="1" stop-color="#9E9797"/>
</linearGradient>
<linearGradient id="paint11_linear_502_652" x1="10.4807" y1="42.3676" x2="10.4807" y2="43.5822" gradientUnits="userSpaceOnUse">
<stop stop-color="#433F43" stop-opacity="0"/>
<stop offset="0.4114" stop-color="#373537" stop-opacity="0.269"/>
<stop offset="1" stop-color="#1A1A1A"/>
</linearGradient>
<linearGradient id="paint12_linear_502_652" x1="10.5965" y1="42.343" x2="11.338" y2="43.0846" gradientUnits="userSpaceOnUse">
<stop stop-color="#433F43" stop-opacity="0"/>
<stop offset="0.4114" stop-color="#373537" stop-opacity="0.269"/>
<stop offset="1" stop-color="#1A1A1A"/>
</linearGradient>
<linearGradient id="paint13_linear_502_652" x1="17.8237" y1="36.4729" x2="15.9597" y2="34.6089" gradientUnits="userSpaceOnUse">
<stop stop-color="#E1D3CE"/>
<stop offset="1" stop-color="#9E9797"/>
</linearGradient>
<linearGradient id="paint14_linear_502_652" x1="16.4908" y1="35.1387" x2="17.6968" y2="36.3448" gradientUnits="userSpaceOnUse">
<stop stop-color="#E1D3CE"/>
<stop offset="1" stop-color="#9E9797"/>
</linearGradient>
<linearGradient id="paint15_linear_502_652" x1="17.0315" y1="35.8199" x2="17.0315" y2="37.0346" gradientUnits="userSpaceOnUse">
<stop stop-color="#433F43" stop-opacity="0"/>
<stop offset="0.4114" stop-color="#373537" stop-opacity="0.269"/>
<stop offset="1" stop-color="#1A1A1A"/>
</linearGradient>
<linearGradient id="paint16_linear_502_652" x1="17.1473" y1="35.7953" x2="17.8888" y2="36.537" gradientUnits="userSpaceOnUse">
<stop stop-color="#433F43" stop-opacity="0"/>
<stop offset="0.4114" stop-color="#373537" stop-opacity="0.269"/>
<stop offset="1" stop-color="#1A1A1A"/>
</linearGradient>
<linearGradient id="paint17_linear_502_652" x1="4.73" y1="36.473" x2="2.86606" y2="34.609" gradientUnits="userSpaceOnUse">
<stop stop-color="#E1D3CE"/>
<stop offset="1" stop-color="#9E9797"/>
</linearGradient>
<linearGradient id="paint18_linear_502_652" x1="3.39519" y1="35.1388" x2="4.60119" y2="36.3449" gradientUnits="userSpaceOnUse">
<stop stop-color="#E1D3CE"/>
<stop offset="1" stop-color="#9E9797"/>
</linearGradient>
<linearGradient id="paint19_linear_502_652" x1="3.93575" y1="35.82" x2="3.93575" y2="37.0346" gradientUnits="userSpaceOnUse">
<stop stop-color="#433F43" stop-opacity="0"/>
<stop offset="0.4114" stop-color="#373537" stop-opacity="0.269"/>
<stop offset="1" stop-color="#1A1A1A"/>
</linearGradient>
<linearGradient id="paint20_linear_502_652" x1="4.05166" y1="35.7954" x2="4.79322" y2="36.537" gradientUnits="userSpaceOnUse">
<stop stop-color="#433F43" stop-opacity="0"/>
<stop offset="0.4114" stop-color="#373537" stop-opacity="0.269"/>
<stop offset="1" stop-color="#1A1A1A"/>
</linearGradient>
<linearGradient id="paint21_linear_502_652" x1="10.4839" y1="37.0187" x2="10.4839" y2="48.598" gradientUnits="userSpaceOnUse">
<stop stop-color="#433F43" stop-opacity="0"/>
<stop offset="0.4114" stop-color="#373537" stop-opacity="0.269"/>
<stop offset="1" stop-color="#1A1A1A"/>
</linearGradient>
<linearGradient id="paint22_linear_502_652" x1="11.5887" y1="36.7843" x2="18.6583" y2="43.854" gradientUnits="userSpaceOnUse">
<stop stop-color="#433F43" stop-opacity="0"/>
<stop offset="0.4114" stop-color="#373537" stop-opacity="0.269"/>
<stop offset="1" stop-color="#1A1A1A"/>
</linearGradient>
<linearGradient id="paint23_linear_502_652" x1="12.8659" y1="38.0628" x2="7.26691" y2="32.4638" gradientUnits="userSpaceOnUse">
<stop stop-color="#E1D3CE"/>
<stop offset="1" stop-color="#9E9797"/>
</linearGradient>
<linearGradient id="paint24_linear_502_652" x1="8.85875" y1="34.0559" x2="12.4815" y2="37.6786" gradientUnits="userSpaceOnUse">
<stop stop-color="#E1D3CE"/>
<stop offset="1" stop-color="#9E9797"/>
</linearGradient>
<linearGradient id="paint25_linear_502_652" x1="10.4828" y1="36.1018" x2="10.4828" y2="39.7503" gradientUnits="userSpaceOnUse">
<stop stop-color="#433F43" stop-opacity="0"/>
<stop offset="0.4114" stop-color="#373537" stop-opacity="0.269"/>
<stop offset="1" stop-color="#1A1A1A"/>
</linearGradient>
<linearGradient id="paint26_linear_502_652" x1="10.8298" y1="36.0279" x2="13.0575" y2="38.2555" gradientUnits="userSpaceOnUse">
<stop stop-color="#433F43" stop-opacity="0"/>
<stop offset="0.4114" stop-color="#373537" stop-opacity="0.269"/>
<stop offset="1" stop-color="#1A1A1A"/>
</linearGradient>
<linearGradient id="paint27_linear_502_652" x1="6.56338" y1="6.20238" x2="15.3094" y2="14.9484" gradientUnits="userSpaceOnUse">
<stop stop-color="#E1D3CE"/>
<stop offset="1" stop-color="#9E9797"/>
</linearGradient>
<linearGradient id="paint28_linear_502_652" x1="10.484" y1="11.1415" x2="10.484" y2="19.9498" gradientUnits="userSpaceOnUse">
<stop stop-color="#433F43" stop-opacity="0"/>
<stop offset="0.4114" stop-color="#373537" stop-opacity="0.269"/>
<stop offset="1" stop-color="#1A1A1A"/>
</linearGradient>
<linearGradient id="paint29_linear_502_652" x1="11.3249" y1="10.9633" x2="16.7028" y2="16.3412" gradientUnits="userSpaceOnUse">
<stop stop-color="#433F43" stop-opacity="0"/>
<stop offset="0.4114" stop-color="#373537" stop-opacity="0.269"/>
<stop offset="1" stop-color="#1A1A1A"/>
</linearGradient>
<linearGradient id="paint30_linear_502_652" x1="13.4097" y1="13.0491" x2="6.53464" y2="6.17404" gradientUnits="userSpaceOnUse">
<stop stop-color="#E1D3CE"/>
<stop offset="1" stop-color="#9E9797"/>
</linearGradient>
<linearGradient id="paint31_linear_502_652" x1="8.48967" y1="8.12868" x2="12.9381" y2="12.5771" gradientUnits="userSpaceOnUse">
<stop stop-color="#E1D3CE"/>
<stop offset="1" stop-color="#9E9797"/>
</linearGradient>
<linearGradient id="paint32_linear_502_652" x1="10.4838" y1="10.6407" x2="10.4838" y2="15.1208" gradientUnits="userSpaceOnUse">
<stop stop-color="#433F43" stop-opacity="0"/>
<stop offset="0.4114" stop-color="#373537" stop-opacity="0.269"/>
<stop offset="1" stop-color="#1A1A1A"/>
</linearGradient>
<linearGradient id="paint33_linear_502_652" x1="10.9108" y1="10.5502" x2="13.6461" y2="13.2856" gradientUnits="userSpaceOnUse">
<stop stop-color="#433F43" stop-opacity="0"/>
<stop offset="0.4114" stop-color="#373537" stop-opacity="0.269"/>
<stop offset="1" stop-color="#1A1A1A"/>
</linearGradient>
<linearGradient id="paint34_linear_502_652" x1="27.8317" y1="12.5316" x2="42.9642" y2="27.6643" gradientUnits="userSpaceOnUse">
<stop stop-color="#E1D3CE"/>
<stop offset="1" stop-color="#9E9797"/>
</linearGradient>
<linearGradient id="paint35_linear_502_652" x1="34.6152" y1="23.4794" x2="34.6152" y2="31.4542" gradientUnits="userSpaceOnUse">
<stop stop-color="#433F43" stop-opacity="0"/>
<stop offset="0.4114" stop-color="#373537" stop-opacity="0.269"/>
<stop offset="1" stop-color="#1A1A1A"/>
</linearGradient>
<linearGradient id="paint36_linear_502_652" x1="38.1904" y1="21.9339" x2="44.2352" y2="26.3219" gradientUnits="userSpaceOnUse">
<stop stop-color="#433F43" stop-opacity="0"/>
<stop offset="0.4114" stop-color="#373537" stop-opacity="0.269"/>
<stop offset="1" stop-color="#1A1A1A"/>
</linearGradient>
<linearGradient id="paint37_linear_502_652" x1="38.2328" y1="22.9331" x2="33.7991" y2="18.4993" gradientUnits="userSpaceOnUse">
<stop stop-color="#433F43" stop-opacity="0"/>
<stop offset="0.4114" stop-color="#373537" stop-opacity="0.269"/>
<stop offset="1" stop-color="#1A1A1A"/>
</linearGradient>
<linearGradient id="paint38_linear_502_652" x1="37.4594" y1="22.1606" x2="31.123" y2="15.8243" gradientUnits="userSpaceOnUse">
<stop stop-color="#E1D3CE"/>
<stop offset="1" stop-color="#9E9797"/>
</linearGradient>
<linearGradient id="paint39_linear_502_652" x1="32.7076" y1="17.4087" x2="36.9728" y2="21.6737" gradientUnits="userSpaceOnUse">
<stop stop-color="#E1D3CE"/>
<stop offset="1" stop-color="#9E9797"/>
</linearGradient>
<linearGradient id="paint40_linear_502_652" x1="34.614" y1="20.8958" x2="34.614" y2="23.5149" gradientUnits="userSpaceOnUse">
<stop stop-color="#433F43" stop-opacity="0"/>
<stop offset="0.4114" stop-color="#373537" stop-opacity="0.269"/>
<stop offset="1" stop-color="#1A1A1A"/>
</linearGradient>
<linearGradient id="paint41_linear_502_652" x1="35.1424" y1="19.6868" x2="38.2991" y2="21.8025" gradientUnits="userSpaceOnUse">
<stop stop-color="#433F43" stop-opacity="0"/>
<stop offset="0.4114" stop-color="#373537" stop-opacity="0.269"/>
<stop offset="1" stop-color="#1A1A1A"/>
</linearGradient>
<linearGradient id="paint42_linear_502_652" x1="34.1616" y1="7.45953" x2="46.427" y2="19.7249" gradientUnits="userSpaceOnUse">
<stop stop-color="#5A5A5A"/>
<stop offset="1" stop-color="#444444"/>
</linearGradient>
<linearGradient id="paint43_linear_502_652" x1="30.1762" y1="11.4449" x2="42.4417" y2="23.7104" gradientUnits="userSpaceOnUse">
<stop stop-color="#5A5A5A"/>
<stop offset="1" stop-color="#444444"/>
</linearGradient>
<linearGradient id="paint44_linear_502_652" x1="24.1081" y1="17.5139" x2="36.3736" y2="29.7793" gradientUnits="userSpaceOnUse">
<stop stop-color="#5A5A5A"/>
<stop offset="1" stop-color="#444444"/>
</linearGradient>
<linearGradient id="paint45_linear_502_652" x1="22.7598" y1="18.8613" x2="35.0252" y2="31.1267" gradientUnits="userSpaceOnUse">
<stop stop-color="#5A5A5A"/>
<stop offset="1" stop-color="#444444"/>
</linearGradient>
<linearGradient id="paint46_linear_502_652" x1="26.7451" y1="14.876" x2="39.0106" y2="27.1415" gradientUnits="userSpaceOnUse">
<stop stop-color="#5A5A5A"/>
<stop offset="1" stop-color="#444444"/>
</linearGradient>
<linearGradient id="paint47_linear_502_652" x1="32.815" y1="8.80703" x2="45.0805" y2="21.0724" gradientUnits="userSpaceOnUse">
<stop stop-color="#5A5A5A"/>
<stop offset="1" stop-color="#444444"/>
</linearGradient>
<linearGradient id="paint48_linear_502_652" x1="43.0711" y1="15.8642" x2="38.9069" y2="12.9762" gradientUnits="userSpaceOnUse">
<stop stop-color="#433F43" stop-opacity="0"/>
<stop offset="0.4114" stop-color="#373537" stop-opacity="0.269"/>
<stop offset="1" stop-color="#1A1A1A"/>
</linearGradient>
<linearGradient id="paint49_linear_502_652" x1="43.6537" y1="24.4543" x2="39.288" y2="22.305" gradientUnits="userSpaceOnUse">
<stop stop-color="#433F43" stop-opacity="0"/>
<stop offset="0.4114" stop-color="#373537" stop-opacity="0.269"/>
<stop offset="1" stop-color="#1A1A1A"/>
</linearGradient>
<linearGradient id="paint50_linear_502_652" x1="36.3485" y1="28.1495" x2="31.244" y2="26.7391" gradientUnits="userSpaceOnUse">
<stop stop-color="#433F43" stop-opacity="0"/>
<stop offset="0.4114" stop-color="#373537" stop-opacity="0.269"/>
<stop offset="1" stop-color="#1A1A1A"/>
</linearGradient>
<linearGradient id="paint51_linear_502_652" x1="29.5901" y1="23.5815" x2="23.5453" y2="24.186" gradientUnits="userSpaceOnUse">
<stop stop-color="#433F43" stop-opacity="0"/>
<stop offset="0.4114" stop-color="#373537" stop-opacity="0.269"/>
<stop offset="1" stop-color="#1A1A1A"/>
</linearGradient>
<linearGradient id="paint52_linear_502_652" x1="29.4058" y1="16.3398" x2="24.8386" y2="13.6532" gradientUnits="userSpaceOnUse">
<stop stop-color="#433F43" stop-opacity="0"/>
<stop offset="0.4114" stop-color="#373537" stop-opacity="0.269"/>
<stop offset="1" stop-color="#1A1A1A"/>
</linearGradient>
<linearGradient id="paint53_linear_502_652" x1="34.6163" y1="13.5389" x2="34.6163" y2="8.07203" gradientUnits="userSpaceOnUse">
<stop stop-color="#433F43" stop-opacity="0"/>
<stop offset="0.4114" stop-color="#373537" stop-opacity="0.269"/>
<stop offset="1" stop-color="#1A1A1A"/>
</linearGradient>
<linearGradient id="paint54_linear_502_652" x1="41.7029" y1="16.1309" x2="43.4492" y2="12.4369" gradientUnits="userSpaceOnUse">
<stop stop-color="#433F43" stop-opacity="0"/>
<stop offset="0.4114" stop-color="#373537" stop-opacity="0.269"/>
<stop offset="1" stop-color="#1A1A1A"/>
</linearGradient>
<linearGradient id="paint55_linear_502_652" x1="41.9947" y1="24.3523" x2="41.9947" y2="20.2553" gradientUnits="userSpaceOnUse">
<stop stop-color="#433F43" stop-opacity="0"/>
<stop offset="0.4114" stop-color="#373537" stop-opacity="0.269"/>
<stop offset="1" stop-color="#1A1A1A"/>
</linearGradient>
<linearGradient id="paint56_linear_502_652" x1="34.6162" y1="28.4495" x2="34.6162" y2="25.1148" gradientUnits="userSpaceOnUse">
<stop stop-color="#433F43" stop-opacity="0"/>
<stop offset="0.4114" stop-color="#373537" stop-opacity="0.269"/>
<stop offset="1" stop-color="#1A1A1A"/>
</linearGradient>
<linearGradient id="paint57_linear_502_652" x1="27.7831" y1="24.1221" x2="25.4324" y2="20.0251" gradientUnits="userSpaceOnUse">
<stop stop-color="#433F43" stop-opacity="0"/>
<stop offset="0.4114" stop-color="#373537" stop-opacity="0.269"/>
<stop offset="1" stop-color="#1A1A1A"/>
</linearGradient>
<linearGradient id="paint58_linear_502_652" x1="27.0151" y1="16.1734" x2="29.03" y2="11.2703" gradientUnits="userSpaceOnUse">
<stop stop-color="#433F43" stop-opacity="0"/>
<stop offset="0.4114" stop-color="#373537" stop-opacity="0.269"/>
<stop offset="1" stop-color="#1A1A1A"/>
</linearGradient>
<linearGradient id="paint59_linear_502_652" x1="35.3818" y1="11.0292" x2="30.6802" y2="10.8948" gradientUnits="userSpaceOnUse">
<stop stop-color="#433F43" stop-opacity="0"/>
<stop offset="0.4114" stop-color="#373537" stop-opacity="0.269"/>
<stop offset="1" stop-color="#1A1A1A"/>
</linearGradient>
<clipPath id="clip0_502_652">
<rect width="48" height="48" fill="white"/>
</clipPath>
</defs>
</svg>
