<svg width="36" height="184" viewBox="0 0 36 184" fill="none" xmlns="http://www.w3.org/2000/svg">
<g clip-path="url(#clip0_553_1769)">
<path d="M35.5 0H0.5V184H35.5V168.767C28.4846 168.657 22.8316 162.955 22.8316 155.936C22.8316 148.918 28.4846 143.215 35.5 143.105V143.102C28.4846 142.992 22.8316 137.29 22.8316 130.271C22.8316 123.253 28.4846 117.55 35.5 117.44V117.437C28.4846 117.327 22.8316 111.625 22.8316 104.606C22.8316 97.5876 28.4846 91.8851 35.5 91.7751V91.7718C28.4846 91.6618 22.8316 85.9593 22.8316 78.9408C22.8316 71.9224 28.4846 66.2199 35.5 66.1099V66.1066C28.4846 65.9966 22.8316 60.2941 22.8316 53.2756C22.8316 46.2572 28.4846 40.5547 35.5 40.4447V40.4414C28.4846 40.3314 22.8316 34.6289 22.8316 27.6104C22.8316 20.592 28.4846 14.8895 35.5 14.7795V0Z" fill="white"/>
</g>
<defs>
<clipPath id="clip0_553_1769">
<rect width="35" height="184" fill="white" transform="translate(0.5)"/>
</clipPath>
</defs>
</svg>
