<svg width="48" height="48" viewBox="0 0 48 48" fill="none" xmlns="http://www.w3.org/2000/svg">
<g clip-path="url(#clip0_502_644)">
<g clip-path="url(#clip1_502_644)">
<path d="M45.1223 21.0938C31.159 24.3427 16.8363 24.3427 2.87305 21.0938C2.87305 15.5 2.87305 9.90628 2.87305 4.3125C16.8364 7.56141 31.1591 7.56141 45.1223 4.3125V21.0938Z" fill="url(#paint0_linear_502_644)"/>
<path d="M16.6852 6.45703C12.0595 6.09 7.44692 5.37675 2.87305 4.3125V21.0938C7.44692 22.158 12.0594 22.8713 16.6852 23.2383V6.45703Z" fill="url(#paint1_linear_502_644)"/>
<path d="M23.3359 6.74447V23.5257C30.6284 23.5781 37.9238 22.7691 45.1237 21.0938V4.3125C37.9238 5.98772 30.6284 6.79678 23.3359 6.74447Z" fill="url(#paint2_linear_502_644)"/>
<path d="M2.87305 12.9375V21.0938C16.8364 24.3427 31.1591 24.3427 45.1223 21.0938V12.9375H2.87305Z" fill="url(#paint3_linear_502_644)"/>
<path d="M10.7433 12.1838C10.7076 11.8772 11.0692 11.5595 11.8688 11.6676C12.7922 11.7925 13.0068 12.243 13.4129 12.2908C13.9092 12.3492 14.1461 11.7104 14.1125 11.4471C14.0055 10.6092 12.6799 10.3169 11.8688 10.1812C10.5402 9.95903 8.99044 10.5683 8.99082 12.0756C8.99138 14.5049 12.401 14.5821 12.5559 16.3633C12.5987 16.855 11.9812 17.0328 11.4634 16.9604C10.4166 16.8139 10.0799 15.9243 9.5521 15.8389C9.12544 15.7699 8.75766 16.3111 8.78897 16.658C8.8936 17.8176 10.4903 18.3096 11.4972 18.5415C12.8755 18.8588 14.3271 17.9178 14.3157 16.3898C14.2964 13.7952 10.9448 13.9114 10.7433 12.1838Z" fill="url(#paint4_linear_502_644)"/>
<path d="M20.6185 11.7791C20.6185 11.4075 20.4597 10.9969 20.0859 10.9807C18.4526 10.9004 16.8255 10.7858 15.1969 10.6364C14.8242 10.6 14.666 10.9882 14.666 11.3599C14.666 11.7877 14.8579 12.1797 15.1969 12.2128C15.8206 12.2738 16.1326 12.3015 16.757 12.3517V18.4659C16.757 18.8262 17.1982 19.0418 17.6396 19.0729C18.081 19.104 18.5227 18.9505 18.5227 18.5903V12.476C19.1477 12.5138 19.4604 12.5301 20.0859 12.5572C20.4256 12.5719 20.6185 12.2071 20.6185 11.7791Z" fill="url(#paint5_linear_502_644)"/>
<path d="M24.4831 11.582C24.3583 11.1885 23.848 10.9991 23.3264 10.9953C22.8049 10.9915 22.2946 11.1733 22.1699 11.5649C21.4689 13.8326 20.7663 16.0998 20.0618 18.3665C20.0503 18.4111 20.0391 18.4556 20.0391 18.4894C20.0391 18.906 20.685 19.2373 21.1724 19.2525C21.4557 19.2613 21.6825 19.177 21.7505 18.9422C21.9046 18.383 21.9817 18.1032 22.1359 17.5435C23.0928 17.5631 23.5714 17.5666 24.5284 17.561C24.6826 18.1231 24.7597 18.404 24.9139 18.9654C24.9819 19.2011 25.2087 19.2889 25.4921 19.2842C25.9797 19.2761 26.6258 18.9543 26.6258 18.5377C26.6258 18.5039 26.6144 18.4592 26.6032 18.4144C25.8946 16.1375 25.1879 13.86 24.4831 11.582ZM22.4989 16.1988C22.775 15.1962 23.0508 14.1937 23.3265 13.191C23.6022 14.1978 23.8781 15.2044 24.1543 16.2111C23.4921 16.2122 23.1609 16.2098 22.4989 16.1988Z" fill="url(#paint6_linear_502_644)"/>
<path d="M31.5859 15.442C32.5141 15.0091 32.9442 13.9937 32.9536 13.0305C32.969 11.4449 31.6208 10.6805 30.1716 10.8543C29.2344 10.9184 28.7654 10.9444 27.8271 10.9842C27.4986 10.998 27.2832 11.2533 27.2832 11.5349V18.6963C27.2832 19.0566 27.7252 19.2207 28.1671 19.2003C28.609 19.1799 29.0507 18.975 29.0507 18.6148C29.0507 17.7102 29.0507 16.8056 29.0507 15.901C29.3497 15.8843 29.4992 15.8753 29.798 15.8561C30.3138 16.8174 30.8305 17.7781 31.3484 18.7383C31.4728 18.9646 31.6877 19.0369 31.9137 19.017C32.4338 18.9714 33.0214 18.4399 33.0214 18.0008C33.0214 17.9444 33.01 17.8668 32.9648 17.8038C32.5036 17.0174 32.0439 16.23 31.5859 15.442ZM30.1715 14.4801C29.7233 14.5108 29.4991 14.5247 29.0506 14.5498V12.4554C29.4991 12.4303 29.7233 12.4164 30.1715 12.3857C30.8053 12.3424 31.1899 12.5692 31.1899 13.3574C31.1899 14.1457 30.8054 14.4367 30.1715 14.4801Z" fill="url(#paint7_linear_502_644)"/>
<path d="M38.676 9.86661C37.0582 10.1227 35.4393 10.344 33.812 10.5313C33.4396 10.572 33.2812 10.9929 33.2812 11.3645C33.2812 11.7924 33.4733 12.1446 33.812 12.1077C34.4351 12.0397 34.7465 12.003 35.3686 11.9241V18.0384C35.3686 18.3987 35.8082 18.5232 36.2473 18.4632C36.6865 18.4032 37.1253 18.1586 37.1253 17.7984V11.6841C37.7462 11.5931 38.0564 11.5448 38.676 11.443C39.0127 11.3877 39.2034 10.9832 39.2034 10.5552C39.2034 10.1836 39.0464 9.80567 38.676 9.86661Z" fill="url(#paint8_linear_502_644)"/>
<path d="M1.44931 2.06274H4.75428V47.1006C4.75428 47.597 4.35125 48.0001 3.85484 48.0001H2.34866C1.85225 48.0001 1.44922 47.597 1.44922 47.1006L1.44931 2.06274Z" fill="url(#paint9_linear_502_644)"/>
<path d="M2.34766 48.0001H3.85356C4.35025 48.0001 4.753 47.5974 4.753 47.1006V2.06274H2.34766V48.0001Z" fill="url(#paint10_linear_502_644)"/>
<path d="M1.44922 2.06274H4.75419V7.71221H1.44922V2.06274Z" fill="url(#paint11_linear_502_644)"/>
<path d="M1.44922 42.7458V47.1006C1.44922 47.5973 1.85188 48.0001 2.34866 48.0001H3.85484C4.35153 48.0001 4.75428 47.5974 4.75428 47.1006V42.7458H1.44922Z" fill="url(#paint12_linear_502_644)"/>
<path d="M6.04314 1.74712C5.43255 0.729183 4.26939 0.0288705 3.08608 0.000932978C1.86049 -0.0281295 0.748988 0.72712 0.149175 1.76334C-0.2502 2.45315 0.193988 3.32709 0.986644 3.41165C2.40124 3.56259 3.79858 3.56165 5.21346 3.40865C6.01258 3.32231 6.45658 2.43637 6.04314 1.74712Z" fill="url(#paint13_linear_502_644)"/>
<path d="M0.149175 1.76328C-0.2502 2.45318 0.193988 3.32703 0.986644 3.41159C2.40124 3.56253 3.79858 3.56159 5.21346 3.40859C6.01258 3.32224 6.45658 2.43621 6.04314 1.74696C5.91527 1.53378 5.76283 1.33474 5.59136 1.15259H0.591206C0.423863 1.34084 0.275081 1.54578 0.149175 1.76328Z" fill="url(#paint14_linear_502_644)"/>
<path d="M3.086 0.000798355C2.74344 -0.00726415 2.40978 0.0459858 2.09375 0.149392V3.49824C3.13334 3.55102 4.16863 3.52149 5.21338 3.40861C6.0125 3.32227 6.4565 2.43624 6.04306 1.74699C5.43247 0.729048 4.26931 0.0287359 3.086 0.000798355Z" fill="url(#paint15_linear_502_644)"/>
<path d="M43.2481 2.06274H46.5531V47.1006C46.5531 47.597 46.1501 48.0001 45.6537 48.0001H44.1475C43.6511 48.0001 43.248 47.597 43.248 47.1006L43.2481 2.06274Z" fill="url(#paint16_linear_502_644)"/>
<path d="M44.1484 48.0001H45.6543C46.151 48.0001 46.5538 47.5974 46.5538 47.1006V2.06274H44.1484V48.0001Z" fill="url(#paint17_linear_502_644)"/>
<path d="M43.248 2.06274H46.553V7.71221H43.248V2.06274Z" fill="url(#paint18_linear_502_644)"/>
<path d="M43.248 42.746V47.1008C43.248 47.5974 43.6507 48.0002 44.1475 48.0002H45.6537C46.1504 48.0002 46.5531 47.5975 46.5531 47.1008V42.746H43.248Z" fill="url(#paint19_linear_502_644)"/>
<path d="M47.8438 1.74712C47.2333 0.729178 46.0701 0.0288653 44.8869 0.000927841C43.6613 -0.0280409 42.5498 0.727209 41.95 1.76333C41.5506 2.45315 41.9948 3.32708 42.7874 3.41165C44.202 3.56258 45.5994 3.56165 47.0142 3.40865C47.8133 3.3223 48.2573 2.43637 47.8438 1.74712Z" fill="url(#paint20_linear_502_644)"/>
<path d="M41.95 1.76328C41.5506 2.45318 41.9948 3.32703 42.7874 3.41159C44.202 3.56253 45.5994 3.56159 47.0142 3.40859C47.8134 3.32224 48.2574 2.43621 47.8439 1.74696C47.7161 1.53378 47.5636 1.33474 47.3921 1.15259H42.392C42.2246 1.34084 42.0759 1.54578 41.95 1.76328Z" fill="url(#paint21_linear_502_644)"/>
<path d="M44.8868 0.000920425C44.5442 -0.00714208 44.2106 0.0461079 43.8945 0.149514V3.49836C44.9341 3.55114 45.9694 3.52161 47.0142 3.40873C47.8133 3.32239 48.2573 2.43636 47.8438 1.74711C47.2333 0.72917 46.0701 0.0288579 44.8868 0.000920425Z" fill="url(#paint22_linear_502_644)"/>
</g>
</g>
<defs>
<linearGradient id="paint0_linear_502_644" x1="23.9976" y1="17.2065" x2="23.9976" y2="25.3367" gradientUnits="userSpaceOnUse">
<stop stop-color="#FE0364"/>
<stop offset="0.2057" stop-color="#F3075E"/>
<stop offset="0.563" stop-color="#D7134F"/>
<stop offset="1" stop-color="#AC2538"/>
</linearGradient>
<linearGradient id="paint1_linear_502_644" x1="8.06023" y1="13.7753" x2="2.34148" y2="13.7753" gradientUnits="userSpaceOnUse">
<stop stop-color="#972437" stop-opacity="0"/>
<stop offset="0.229" stop-color="#902333" stop-opacity="0.072"/>
<stop offset="0.4928" stop-color="#7E232A" stop-opacity="0.283"/>
<stop offset="0.7726" stop-color="#61221B" stop-opacity="0.632"/>
<stop offset="1" stop-color="#42210B"/>
</linearGradient>
<linearGradient id="paint2_linear_502_644" x1="38.9053" y1="13.9203" x2="44.0828" y2="13.9203" gradientUnits="userSpaceOnUse">
<stop stop-color="#972437" stop-opacity="0"/>
<stop offset="0.229" stop-color="#902333" stop-opacity="0.072"/>
<stop offset="0.4928" stop-color="#7E232A" stop-opacity="0.283"/>
<stop offset="0.7726" stop-color="#61221B" stop-opacity="0.632"/>
<stop offset="1" stop-color="#42210B"/>
</linearGradient>
<linearGradient id="paint3_linear_502_644" x1="23.9977" y1="19.0312" x2="23.9977" y2="24.2812" gradientUnits="userSpaceOnUse">
<stop stop-color="#972437" stop-opacity="0"/>
<stop offset="0.229" stop-color="#902333" stop-opacity="0.072"/>
<stop offset="0.4928" stop-color="#7E232A" stop-opacity="0.283"/>
<stop offset="0.7726" stop-color="#61221B" stop-opacity="0.632"/>
<stop offset="1" stop-color="#42210B"/>
</linearGradient>
<linearGradient id="paint4_linear_502_644" x1="11.5514" y1="12.2469" x2="11.5514" y2="18.3984" gradientUnits="userSpaceOnUse">
<stop stop-color="#EAF6FF"/>
<stop offset="1" stop-color="#B3DAFE"/>
</linearGradient>
<linearGradient id="paint5_linear_502_644" x1="17.6423" y1="12.7148" x2="17.6423" y2="18.9837" gradientUnits="userSpaceOnUse">
<stop stop-color="#EAF6FF"/>
<stop offset="1" stop-color="#B3DAFE"/>
</linearGradient>
<linearGradient id="paint6_linear_502_644" x1="23.3325" y1="13.089" x2="23.3325" y2="19.1936" gradientUnits="userSpaceOnUse">
<stop stop-color="#EAF6FF"/>
<stop offset="1" stop-color="#B3DAFE"/>
</linearGradient>
<linearGradient id="paint7_linear_502_644" x1="30.1522" y1="12.8767" x2="30.1522" y2="19.0424" gradientUnits="userSpaceOnUse">
<stop stop-color="#EAF6FF"/>
<stop offset="1" stop-color="#B3DAFE"/>
</linearGradient>
<linearGradient id="paint8_linear_502_644" x1="36.2423" y1="11.984" x2="36.2423" y2="18.3827" gradientUnits="userSpaceOnUse">
<stop stop-color="#EAF6FF"/>
<stop offset="1" stop-color="#B3DAFE"/>
</linearGradient>
<linearGradient id="paint9_linear_502_644" x1="1.65734" y1="25.0314" x2="4.36869" y2="25.0314" gradientUnits="userSpaceOnUse">
<stop stop-color="#E1D3CE"/>
<stop offset="1" stop-color="#9E9797"/>
</linearGradient>
<linearGradient id="paint10_linear_502_644" x1="2.90097" y1="25.0314" x2="5.62019" y2="25.0314" gradientUnits="userSpaceOnUse">
<stop stop-color="#433F43" stop-opacity="0"/>
<stop offset="0.4114" stop-color="#373537" stop-opacity="0.269"/>
<stop offset="1" stop-color="#1A1A1A"/>
</linearGradient>
<linearGradient id="paint11_linear_502_644" x1="3.10166" y1="5.04868" x2="3.10166" y2="0.414619" gradientUnits="userSpaceOnUse">
<stop stop-color="#433F43" stop-opacity="0"/>
<stop offset="0.4114" stop-color="#373537" stop-opacity="0.269"/>
<stop offset="1" stop-color="#1A1A1A"/>
</linearGradient>
<linearGradient id="paint12_linear_502_644" x1="3.10166" y1="46.271" x2="3.10166" y2="48.4938" gradientUnits="userSpaceOnUse">
<stop stop-color="#433F43" stop-opacity="0"/>
<stop offset="0.4114" stop-color="#373537" stop-opacity="0.269"/>
<stop offset="1" stop-color="#1A1A1A"/>
</linearGradient>
<linearGradient id="paint13_linear_502_644" x1="1.95555" y1="1.76212" x2="4.19205" y2="1.76212" gradientUnits="userSpaceOnUse">
<stop stop-color="#E1D3CE"/>
<stop offset="1" stop-color="#9E9797"/>
</linearGradient>
<linearGradient id="paint14_linear_502_644" x1="3.10024" y1="1.75203" x2="3.10024" y2="4.19956" gradientUnits="userSpaceOnUse">
<stop stop-color="#433F43" stop-opacity="0"/>
<stop offset="0.4114" stop-color="#373537" stop-opacity="0.269"/>
<stop offset="1" stop-color="#1A1A1A"/>
</linearGradient>
<linearGradient id="paint15_linear_502_644" x1="4.15053" y1="1.54158" x2="5.81028" y2="0.550361" gradientUnits="userSpaceOnUse">
<stop stop-color="#433F43" stop-opacity="0"/>
<stop offset="0.4114" stop-color="#373537" stop-opacity="0.269"/>
<stop offset="1" stop-color="#1A1A1A"/>
</linearGradient>
<linearGradient id="paint16_linear_502_644" x1="43.4562" y1="25.0314" x2="46.1675" y2="25.0314" gradientUnits="userSpaceOnUse">
<stop stop-color="#E1D3CE"/>
<stop offset="1" stop-color="#9E9797"/>
</linearGradient>
<linearGradient id="paint17_linear_502_644" x1="44.7018" y1="25.0314" x2="47.4211" y2="25.0314" gradientUnits="userSpaceOnUse">
<stop stop-color="#433F43" stop-opacity="0"/>
<stop offset="0.4114" stop-color="#373537" stop-opacity="0.269"/>
<stop offset="1" stop-color="#1A1A1A"/>
</linearGradient>
<linearGradient id="paint18_linear_502_644" x1="44.9006" y1="5.04868" x2="44.9006" y2="0.414619" gradientUnits="userSpaceOnUse">
<stop stop-color="#433F43" stop-opacity="0"/>
<stop offset="0.4114" stop-color="#373537" stop-opacity="0.269"/>
<stop offset="1" stop-color="#1A1A1A"/>
</linearGradient>
<linearGradient id="paint19_linear_502_644" x1="44.9006" y1="46.2712" x2="44.9006" y2="48.4939" gradientUnits="userSpaceOnUse">
<stop stop-color="#433F43" stop-opacity="0"/>
<stop offset="0.4114" stop-color="#373537" stop-opacity="0.269"/>
<stop offset="1" stop-color="#1A1A1A"/>
</linearGradient>
<linearGradient id="paint20_linear_502_644" x1="43.7562" y1="1.76212" x2="45.9927" y2="1.76212" gradientUnits="userSpaceOnUse">
<stop stop-color="#E1D3CE"/>
<stop offset="1" stop-color="#9E9797"/>
</linearGradient>
<linearGradient id="paint21_linear_502_644" x1="44.9011" y1="1.75203" x2="44.9011" y2="4.19956" gradientUnits="userSpaceOnUse">
<stop stop-color="#433F43" stop-opacity="0"/>
<stop offset="0.4114" stop-color="#373537" stop-opacity="0.269"/>
<stop offset="1" stop-color="#1A1A1A"/>
</linearGradient>
<linearGradient id="paint22_linear_502_644" x1="45.9513" y1="1.5417" x2="47.6112" y2="0.550482" gradientUnits="userSpaceOnUse">
<stop stop-color="#433F43" stop-opacity="0"/>
<stop offset="0.4114" stop-color="#373537" stop-opacity="0.269"/>
<stop offset="1" stop-color="#1A1A1A"/>
</linearGradient>
<clipPath id="clip0_502_644">
<rect width="48" height="48" fill="white"/>
</clipPath>
<clipPath id="clip1_502_644">
<rect width="48" height="48" fill="white"/>
</clipPath>
</defs>
</svg>
