<svg width="133" height="26" viewBox="0 0 133 26" fill="none" xmlns="http://www.w3.org/2000/svg">
<g clip-path="url(#clip0_470_1746)">
<path d="M6.04083 13L3.01911 15.9363L0 13L3.01911 10.0637L6.04083 13ZM13.3666 5.87007L18.5403 10.9045L21.5595 7.96815L13.3666 0L5.17375 7.96815L8.19285 10.9045L13.3666 5.87007ZM23.7167 10.0637L20.6976 13L23.7167 15.9363L26.7332 13L23.7167 10.0637ZM13.3666 20.1299L8.19285 15.0981L5.17375 18.0318L13.3666 26L21.5595 18.0318L18.5403 15.0981L13.3666 20.1299ZM13.3666 15.9363L16.3857 13L13.3666 10.0637L10.3475 13L13.3666 15.9363ZM45.2291 16.2182V16.1776C45.2291 14.2624 44.1845 13.3048 42.4843 12.6749C43.5289 12.1034 44.4117 11.2067 44.4117 9.59887V9.55823C44.4117 7.3179 42.5678 5.87007 39.5722 5.87007H32.7714V20.1299H39.7446C43.0536 20.1299 45.2344 18.8269 45.2344 16.2182H45.2291ZM41.2071 10.1221C41.2071 11.1813 40.3061 11.6309 38.8828 11.6309H35.9133V8.62094H39.0969C40.4576 8.62094 41.2124 9.14928 41.2124 10.0866L41.2071 10.1221ZM42.0246 15.8271C42.0246 16.8863 41.1654 17.374 39.7394 17.374H35.9133V14.2421H39.6401C41.2959 14.2421 42.0298 14.8339 42.0298 15.7915L42.0246 15.8271ZM52.0065 20.1299V5.87007H48.7706V20.1299H52.0065ZM69.3454 20.1299V5.87007H66.1513V14.651L59.2826 5.87007H56.3079V20.1299H59.4916V11.0645L66.5901 20.1299H69.3454ZM87.212 20.1299L80.9178 5.76846H77.9431L71.662 20.1299H74.9501L76.2951 16.932H82.4953L83.8351 20.1299H87.212ZM81.3487 14.1608H77.4417L79.39 9.53791L81.3487 14.1608ZM102.587 20.1299V5.87007H99.3929V14.651L92.5215 5.87007H89.5494V20.1299H92.7305V11.0645L99.8316 20.1299H102.587ZM119.236 17.8286L117.186 15.8118C116.035 16.8279 115.008 17.4807 113.331 17.4807C110.819 17.4807 109.08 15.4486 109.08 13V12.9594C109.08 10.5158 110.861 8.51934 113.331 8.51934C114.797 8.51934 115.943 9.12896 117.082 10.1272L119.127 7.82591C117.766 6.52286 116.113 5.62622 113.347 5.62622C108.845 5.62622 105.703 8.94607 105.703 12.9924V13.033C105.703 17.1276 108.907 20.3662 113.222 20.3662C116.045 20.3738 117.719 19.3959 119.226 17.8286H119.236ZM133 20.1299V17.3359H125.029V14.3361H131.942V11.542H125.029V8.66159H132.885V5.86753H121.825V20.1274L133 20.1299Z" fill="#858585"/>
</g>
<defs>
<clipPath id="clip0_470_1746">
<rect width="133" height="26" fill="white"/>
</clipPath>
</defs>
</svg>
