<svg width="25" height="24" viewBox="0 0 25 24" fill="none" xmlns="http://www.w3.org/2000/svg">
<g clip-path="url(#clip0_512_662)">
<g clip-path="url(#clip1_512_662)">
<path d="M12.7604 2.01099C13.5382 2.01103 14.2893 2.29436 14.8734 2.80799L15.0274 2.95299L15.7254 3.65099C15.917 3.8413 16.1671 3.96144 16.4354 3.99199L16.5704 3.99999H17.5704C18.3876 3.99994 19.1739 4.31256 19.768 4.87373C20.3621 5.4349 20.7189 6.20209 20.7654 7.01799L20.7704 7.19999V8.19999C20.7704 8.46999 20.8624 8.73299 21.0284 8.94299L21.1184 9.04299L21.8154 9.74099C22.3931 10.3154 22.73 11.0886 22.7573 11.9029C22.7846 12.7171 22.5003 13.5111 21.9624 14.123L21.8174 14.277L21.1194 14.975C20.9291 15.1665 20.809 15.4167 20.7784 15.685L20.7704 15.82V16.82C20.7705 17.6372 20.4578 18.4235 19.8967 19.0176C19.3355 19.6116 18.5683 19.9685 17.7524 20.015L17.5704 20.02H16.5704C16.3008 20.0201 16.0391 20.111 15.8274 20.278L15.7274 20.368L15.0294 21.065C14.455 21.6427 13.6818 21.9796 12.8675 22.0069C12.0533 22.0342 11.2593 21.7499 10.6474 21.212L10.4934 21.067L9.79541 20.369C9.60385 20.1787 9.3537 20.0585 9.08541 20.028L8.95041 20.02H7.95041C7.13319 20.02 6.34693 19.7074 5.75284 19.1462C5.15876 18.5851 4.80189 17.8179 4.75541 17.002L4.75041 16.82V15.82C4.75032 15.5504 4.65944 15.2886 4.49241 15.077L4.40241 14.977L3.70541 14.279C3.12769 13.7045 2.79083 12.9314 2.76352 12.1171C2.7362 11.3029 3.02049 10.5089 3.55841 9.89699L3.70341 9.74299L4.40141 9.04499C4.59172 8.85343 4.71187 8.60328 4.74241 8.33499L4.75041 8.19999V7.19999L4.75541 7.01799C4.80006 6.23343 5.13184 5.49274 5.6875 4.93707C6.24316 4.38141 6.98386 4.04964 7.76841 4.00499L7.95041 3.99999H8.95041C9.22003 3.9999 9.48176 3.90901 9.69341 3.74199L9.79341 3.65199L10.4914 2.95499C10.7887 2.65588 11.1423 2.41849 11.5317 2.25649C11.9211 2.09448 12.3387 2.01105 12.7604 2.01099ZM16.4574 9.29299C16.2699 9.10552 16.0156 9.0002 15.7504 9.0002C15.4852 9.0002 15.2309 9.10552 15.0434 9.29299L11.7504 12.585L10.4574 11.293L10.3634 11.21C10.1624 11.0546 9.90981 10.9815 9.65689 11.0056C9.40396 11.0297 9.16969 11.1491 9.00166 11.3397C8.83363 11.5303 8.74443 11.7777 8.75218 12.0316C8.75994 12.2856 8.86406 12.527 9.04341 12.707L11.0434 14.707L11.1374 14.79C11.3298 14.9392 11.5701 15.0132 11.8131 14.9979C12.0561 14.9826 12.2852 14.8792 12.4574 14.707L16.4574 10.707L16.5404 10.613C16.6897 10.4206 16.7636 10.1803 16.7483 9.93731C16.733 9.69428 16.6296 9.46518 16.4574 9.29299Z" fill="url(#paint0_linear_512_662)"/>
</g>
</g>
<defs>
<linearGradient id="paint0_linear_512_662" x1="4.26152" y1="-9.45828" x2="29.7677" y2="-6.27008" gradientUnits="userSpaceOnUse">
<stop offset="0.0992937" stop-color="#5D007F"/>
<stop offset="0.556576" stop-color="#9E2FF4"/>
<stop offset="1" stop-color="#DE5AF9"/>
</linearGradient>
<clipPath id="clip0_512_662">
<rect width="24" height="24" fill="white" transform="translate(0.75)"/>
</clipPath>
<clipPath id="clip1_512_662">
<rect width="24" height="24" fill="white" transform="translate(0.75)"/>
</clipPath>
</defs>
</svg>
