<svg width="48" height="48" viewBox="0 0 48 48" fill="none" xmlns="http://www.w3.org/2000/svg">
<g clip-path="url(#clip0_502_655)">
<g clip-path="url(#clip1_502_655)">
<path d="M20.5589 32.8081L32.8081 20.5589C34.4391 18.9279 36.6593 18.0511 38.9659 18.0532C41.2786 18.0552 43.592 17.1742 45.3565 15.4095C47.4678 13.2983 48.3142 10.4014 47.8964 7.65995C47.8394 7.28589 47.3778 7.13823 47.1102 7.40579L42.4558 12.0602C42.1418 12.3743 41.6841 12.4969 41.2551 12.3819L37.5024 11.3765C37.0734 11.2615 36.7384 10.9265 36.6234 10.4975L35.618 6.74485C35.503 6.31585 35.6257 5.85817 35.9397 5.5441L40.594 0.889791C40.8616 0.622229 40.7139 0.16051 40.3398 0.10351C37.5905 -0.315365 34.685 0.53701 32.5722 2.66157C30.8294 4.41413 29.9569 6.72357 29.9583 9.03329C29.9596 11.3341 29.0844 13.5485 27.4574 15.1754L15.1755 27.4575C13.5486 29.0844 11.3342 29.9598 9.03338 29.9584C6.72367 29.9571 4.41423 30.8295 2.66167 32.5723C0.53701 34.6852 -0.315366 37.5907 0.103509 40.3399C0.160509 40.714 0.622134 40.8617 0.889791 40.5941L5.5441 35.9398C5.85817 35.6258 6.31585 35.5031 6.74485 35.6181L10.4975 36.6235C10.9265 36.7385 11.2615 37.0735 11.3765 37.5025L12.3819 41.2552C12.4969 41.6842 12.3743 42.1419 12.0602 42.4559L7.40579 47.1103C7.13823 47.3779 7.28588 47.8395 7.65995 47.8965C10.4015 48.3143 13.2983 47.4679 15.4095 45.3566C17.1741 43.5921 18.0552 41.2787 18.0532 38.966C18.0511 36.6594 18.9279 34.4392 20.5589 32.8081Z" fill="url(#paint0_linear_502_655)"/>
<path d="M47.897 7.65989C47.84 7.28582 47.3784 7.13817 47.1108 7.40573L42.4564 12.0601C42.1423 12.3742 41.6847 12.4968 41.2557 12.3819L41.0427 12.3248L32.8086 20.5589C34.4396 18.9279 36.6597 18.051 38.9664 18.0531C41.2791 18.0552 43.5925 17.1741 45.357 15.4094C47.4684 13.2982 48.3147 10.4014 47.897 7.65989Z" fill="url(#paint1_linear_502_655)"/>
<path d="M7.66013 47.8965C7.28607 47.8395 7.13841 47.3779 7.40597 47.1103L12.0604 42.4559C12.3744 42.1419 12.4971 41.6842 12.3821 41.2552L12.325 41.0422L20.5591 32.8081C18.9281 34.4391 18.0513 36.6593 18.0533 38.9659C18.0554 41.2786 17.1743 43.592 15.4097 45.3565C13.2984 47.4679 10.4017 48.3142 7.66013 47.8965Z" fill="url(#paint2_linear_502_655)"/>
<path d="M41.2543 12.382L37.5017 11.3766C37.0727 11.2616 36.7376 10.9266 36.6227 10.4976L35.6172 6.74494C35.5023 6.31594 35.6249 5.85825 35.939 5.54419L34.3719 7.11122C34.0579 7.42528 33.9353 7.88297 34.0502 8.31197L35.0557 12.0646C35.1706 12.4936 35.5057 12.8287 35.9347 12.9436L39.6873 13.9491C40.1163 14.064 40.574 13.9414 40.888 13.6273L42.4551 12.0603C42.141 12.3743 41.6833 12.497 41.2543 12.382Z" fill="url(#paint3_linear_502_655)"/>
<path d="M33.1208 14.8785C33.8874 15.6452 33.8874 16.8882 33.1208 17.6549L17.6542 33.1215C16.8875 33.8882 15.6444 33.8882 14.8778 33.1215C14.1111 32.3548 14.1111 31.1118 14.8778 30.3451L30.3442 14.8786C31.111 14.1118 32.3541 14.1118 33.1208 14.8785Z" fill="url(#paint4_linear_502_655)"/>
<path d="M20.4803 22.1536L15.1765 27.4574C14.7981 27.8358 14.3868 28.1717 13.9512 28.4672L19.5366 34.0526C19.8354 33.6098 20.176 33.1921 20.56 32.8081L25.8474 27.5207L20.4803 22.1536Z" fill="url(#paint5_linear_502_655)"/>
<path d="M36.6227 10.4973L35.6172 6.7447C35.5023 6.3157 35.6249 5.85801 35.939 5.54395L34.3719 7.11098C34.0579 7.42504 33.9353 7.88273 34.0502 8.31173L35.0557 12.0644C35.1131 12.2789 35.2256 12.4698 35.3774 12.6216L36.9444 11.0546C36.7927 10.9029 36.6802 10.7118 36.6227 10.4973Z" fill="url(#paint6_linear_502_655)"/>
<path d="M8.57227 11.6639L11.6632 8.573L39.4263 36.3361L36.3354 39.4271L8.57227 11.6639Z" fill="url(#paint7_linear_502_655)"/>
<path d="M8.57227 11.664L10.7498 9.48633L38.513 37.2495L36.3354 39.4271L8.57227 11.664Z" fill="url(#paint8_linear_502_655)"/>
<path d="M8.57227 11.6639L11.6632 8.573L17.8815 14.7912L14.7904 17.8822L8.57227 11.6639Z" fill="url(#paint9_linear_502_655)"/>
<path d="M30.1172 33.209L33.2082 30.1179L39.4264 36.3362L36.3354 39.4271L30.1172 33.209Z" fill="url(#paint10_linear_502_655)"/>
<path d="M47.6725 40.5299L43.3661 36.2235C43.0443 35.9018 42.6346 35.6825 42.1884 35.5933L38.7914 34.9139C38.534 34.8625 38.268 34.943 38.0824 35.1286L35.1284 38.0827C34.9428 38.2682 34.8622 38.5343 34.9137 38.7916L35.593 42.1887C35.6822 42.6348 35.9015 43.0446 36.2233 43.3663L40.5297 47.6728C40.966 48.1091 41.6734 48.1091 42.1097 47.6728L47.6726 42.1099C48.1089 41.6737 48.1089 40.9663 47.6725 40.5299Z" fill="url(#paint11_linear_502_655)"/>
<path d="M42.1097 47.6728L45.6649 44.1175L37.3792 35.8318L35.1284 38.0826C34.9428 38.2682 34.8622 38.5342 34.9137 38.7916L35.593 42.1886C35.6822 42.6348 35.9015 43.0445 36.2233 43.3663L40.5297 47.6727C40.9659 48.1092 41.6733 48.1092 42.1097 47.6728Z" fill="url(#paint12_linear_502_655)"/>
<path d="M43.0877 35.9872C42.8207 35.7938 42.5145 35.6584 42.1884 35.5933L38.7914 34.9139C38.534 34.8625 38.268 34.943 38.0824 35.1286L35.1284 38.0827C34.9428 38.2682 34.8622 38.5343 34.9137 38.7916L35.593 42.1887C35.6582 42.5147 35.7936 42.821 35.9869 43.088L43.0877 35.9872Z" fill="url(#paint13_linear_502_655)"/>
<path d="M43.0877 35.9872C42.8207 35.7938 42.5145 35.6584 42.1884 35.5933L38.7914 34.9139C38.534 34.8625 38.268 34.943 38.0824 35.1286L35.1284 38.0827C34.9428 38.2682 34.8622 38.5343 34.9137 38.7916L35.593 42.1887C35.6582 42.5147 35.7936 42.821 35.9869 43.088L43.0877 35.9872Z" fill="url(#paint14_linear_502_655)"/>
<path d="M43.0877 35.9872C42.8207 35.7938 42.5145 35.6584 42.1884 35.5933L38.7914 34.9139C38.534 34.8625 38.268 34.943 38.0824 35.1286L35.1284 38.0827C34.9428 38.2682 34.8622 38.5343 34.9137 38.7916L35.593 42.1887C35.6582 42.5147 35.7936 42.821 35.9869 43.088L43.0877 35.9872Z" fill="url(#paint15_linear_502_655)"/>
<path d="M7.47005 0.327061L11.7765 4.63347C12.0982 4.95522 12.3175 5.365 12.4067 5.81115L13.086 9.20819C13.1375 9.46553 13.057 9.73159 12.8714 9.91712L9.9173 12.8712C9.73177 13.0568 9.4657 13.1373 9.20836 13.0859L5.81133 12.4066C5.36517 12.3173 4.95539 12.098 4.63364 11.7763L0.327234 7.46987C-0.109078 7.03356 -0.109078 6.32612 0.327234 5.88981L5.88998 0.327061C6.3263 -0.109346 7.03373 -0.109346 7.47005 0.327061Z" fill="url(#paint16_linear_502_655)"/>
<path d="M0.327305 5.89L3.88259 2.33472L12.1683 10.6204L9.91746 12.8713C9.73193 13.0569 9.46587 13.1374 9.20852 13.086L5.81149 12.4067C5.36534 12.3174 4.95555 12.0981 4.6338 11.7764L0.327305 7.47006C-0.109102 7.03375 -0.109102 6.32631 0.327305 5.89Z" fill="url(#paint17_linear_502_655)"/>
<path d="M12.0129 4.91211C12.2063 5.17911 12.3417 5.48539 12.4069 5.81145L13.0862 9.20848C13.1376 9.46583 13.0571 9.73189 12.8715 9.91742L9.91742 12.8715C9.73189 13.0571 9.46583 13.1376 9.20848 13.0862L5.81145 12.4069C5.48539 12.3416 5.17911 12.2062 4.91211 12.0129L12.0129 4.91211Z" fill="url(#paint18_linear_502_655)"/>
<path d="M12.0129 4.91211C12.2063 5.17911 12.3417 5.48539 12.4069 5.81145L13.0862 9.20848C13.1376 9.46583 13.0571 9.73189 12.8715 9.91742L9.91742 12.8715C9.73189 13.0571 9.46583 13.1376 9.20848 13.0862L5.81145 12.4069C5.48539 12.3416 5.17911 12.2062 4.91211 12.0129L12.0129 4.91211Z" fill="url(#paint19_linear_502_655)"/>
<path d="M12.0129 4.91211C12.2063 5.17911 12.3417 5.48539 12.4069 5.81145L13.0862 9.20848C13.1376 9.46583 13.0571 9.73189 12.8715 9.91742L9.91742 12.8715C9.73189 13.0571 9.46583 13.1376 9.20848 13.0862L5.81145 12.4069C5.48539 12.3416 5.17911 12.2062 4.91211 12.0129L12.0129 4.91211Z" fill="url(#paint20_linear_502_655)"/>
</g>
</g>
<defs>
<linearGradient id="paint0_linear_502_655" x1="20.242" y1="20.2488" x2="28.1678" y2="28.1745" gradientUnits="userSpaceOnUse">
<stop stop-color="#E1D3CE"/>
<stop offset="1" stop-color="#9E9797"/>
</linearGradient>
<linearGradient id="paint1_linear_502_655" x1="41.8283" y1="15.5321" x2="43.8694" y2="17.5732" gradientUnits="userSpaceOnUse">
<stop stop-color="#433F43" stop-opacity="0"/>
<stop offset="0.4114" stop-color="#373537" stop-opacity="0.269"/>
<stop offset="1" stop-color="#1A1A1A"/>
</linearGradient>
<linearGradient id="paint2_linear_502_655" x1="15.5381" y1="41.822" x2="17.5792" y2="43.8631" gradientUnits="userSpaceOnUse">
<stop stop-color="#433F43" stop-opacity="0"/>
<stop offset="0.4114" stop-color="#373537" stop-opacity="0.269"/>
<stop offset="1" stop-color="#1A1A1A"/>
</linearGradient>
<linearGradient id="paint3_linear_502_655" x1="39.7248" y1="8.26757" x2="31.8388" y2="16.1536" gradientUnits="userSpaceOnUse">
<stop stop-color="#433F43" stop-opacity="0"/>
<stop offset="0.4114" stop-color="#373537" stop-opacity="0.269"/>
<stop offset="1" stop-color="#1A1A1A"/>
</linearGradient>
<linearGradient id="paint4_linear_502_655" x1="25.4423" y1="25.4498" x2="21.7252" y2="21.7327" gradientUnits="userSpaceOnUse">
<stop stop-color="#E1D3CE"/>
<stop offset="1" stop-color="#9E9797"/>
</linearGradient>
<linearGradient id="paint5_linear_502_655" x1="19.934" y1="28.0698" x2="23.1002" y2="24.9035" gradientUnits="userSpaceOnUse">
<stop stop-color="#433F43" stop-opacity="0"/>
<stop offset="0.4114" stop-color="#373537" stop-opacity="0.269"/>
<stop offset="1" stop-color="#1A1A1A"/>
</linearGradient>
<linearGradient id="paint6_linear_502_655" x1="35.6874" y1="9.12278" x2="33.6189" y2="7.05428" gradientUnits="userSpaceOnUse">
<stop stop-color="#433F43" stop-opacity="0"/>
<stop offset="0.4114" stop-color="#373537" stop-opacity="0.269"/>
<stop offset="1" stop-color="#1A1A1A"/>
</linearGradient>
<linearGradient id="paint7_linear_502_655" x1="25.0324" y1="22.9669" x2="22.031" y2="25.9683" gradientUnits="userSpaceOnUse">
<stop stop-color="#E1D3CE"/>
<stop offset="1" stop-color="#9E9797"/>
</linearGradient>
<linearGradient id="paint8_linear_502_655" x1="23.8072" y1="24.1921" x2="21.378" y2="26.6213" gradientUnits="userSpaceOnUse">
<stop stop-color="#433F43" stop-opacity="0"/>
<stop offset="0.4114" stop-color="#373537" stop-opacity="0.269"/>
<stop offset="1" stop-color="#1A1A1A"/>
</linearGradient>
<linearGradient id="paint9_linear_502_655" x1="12.87" y1="13.0824" x2="9.0383" y2="11.5229" gradientUnits="userSpaceOnUse">
<stop stop-color="#433F43" stop-opacity="0"/>
<stop offset="0.4114" stop-color="#373537" stop-opacity="0.269"/>
<stop offset="1" stop-color="#1A1A1A"/>
</linearGradient>
<linearGradient id="paint10_linear_502_655" x1="34.917" y1="35.1293" x2="36.4764" y2="38.9611" gradientUnits="userSpaceOnUse">
<stop stop-color="#433F43" stop-opacity="0"/>
<stop offset="0.4114" stop-color="#373537" stop-opacity="0.269"/>
<stop offset="1" stop-color="#1A1A1A"/>
</linearGradient>
<linearGradient id="paint11_linear_502_655" x1="42.2474" y1="39.2275" x2="38.1977" y2="43.2772" gradientUnits="userSpaceOnUse">
<stop stop-color="#E1D3CE"/>
<stop offset="1" stop-color="#9E9797"/>
</linearGradient>
<linearGradient id="paint12_linear_502_655" x1="39.3178" y1="42.157" x2="36.4842" y2="44.9906" gradientUnits="userSpaceOnUse">
<stop stop-color="#433F43" stop-opacity="0"/>
<stop offset="0.4114" stop-color="#373537" stop-opacity="0.269"/>
<stop offset="1" stop-color="#1A1A1A"/>
</linearGradient>
<linearGradient id="paint13_linear_502_655" x1="37.2009" y1="38.9929" x2="34.0116" y2="39.9143" gradientUnits="userSpaceOnUse">
<stop stop-color="#433F43" stop-opacity="0"/>
<stop offset="0.4114" stop-color="#373537" stop-opacity="0.269"/>
<stop offset="1" stop-color="#1A1A1A"/>
</linearGradient>
<linearGradient id="paint14_linear_502_655" x1="38.9671" y1="37.5414" x2="38.3056" y2="46.3772" gradientUnits="userSpaceOnUse">
<stop stop-color="#433F43" stop-opacity="0"/>
<stop offset="0.4114" stop-color="#373537" stop-opacity="0.269"/>
<stop offset="1" stop-color="#1A1A1A"/>
</linearGradient>
<linearGradient id="paint15_linear_502_655" x1="37.5776" y1="37.5699" x2="35.9223" y2="35.9146" gradientUnits="userSpaceOnUse">
<stop stop-color="#433F43" stop-opacity="0"/>
<stop offset="0.4114" stop-color="#373537" stop-opacity="0.269"/>
<stop offset="1" stop-color="#1A1A1A"/>
</linearGradient>
<linearGradient id="paint16_linear_502_655" x1="8.77511" y1="5.75475" x2="4.72539" y2="9.80447" gradientUnits="userSpaceOnUse">
<stop stop-color="#E1D3CE"/>
<stop offset="1" stop-color="#9E9797"/>
</linearGradient>
<linearGradient id="paint17_linear_502_655" x1="5.84568" y1="8.68444" x2="3.01209" y2="11.518" gradientUnits="userSpaceOnUse">
<stop stop-color="#433F43" stop-opacity="0"/>
<stop offset="0.4114" stop-color="#373537" stop-opacity="0.269"/>
<stop offset="1" stop-color="#1A1A1A"/>
</linearGradient>
<linearGradient id="paint18_linear_502_655" x1="9.00981" y1="10.8015" x2="8.08843" y2="13.9909" gradientUnits="userSpaceOnUse">
<stop stop-color="#433F43" stop-opacity="0"/>
<stop offset="0.4114" stop-color="#373537" stop-opacity="0.269"/>
<stop offset="1" stop-color="#1A1A1A"/>
</linearGradient>
<linearGradient id="paint19_linear_502_655" x1="10.4614" y1="9.03538" x2="1.62554" y2="9.69686" gradientUnits="userSpaceOnUse">
<stop stop-color="#433F43" stop-opacity="0"/>
<stop offset="0.4114" stop-color="#373537" stop-opacity="0.269"/>
<stop offset="1" stop-color="#1A1A1A"/>
</linearGradient>
<linearGradient id="paint20_linear_502_655" x1="10.4329" y1="10.4249" x2="12.0881" y2="12.0801" gradientUnits="userSpaceOnUse">
<stop stop-color="#433F43" stop-opacity="0"/>
<stop offset="0.4114" stop-color="#373537" stop-opacity="0.269"/>
<stop offset="1" stop-color="#1A1A1A"/>
</linearGradient>
<clipPath id="clip0_502_655">
<rect width="48" height="48" fill="white"/>
</clipPath>
<clipPath id="clip1_502_655">
<rect width="48" height="48" fill="white"/>
</clipPath>
</defs>
</svg>
