<svg width="25" height="24" viewBox="0 0 25 24" fill="none" xmlns="http://www.w3.org/2000/svg">
<g clip-path="url(#clip0_512_679)">
<g clip-path="url(#clip1_512_679)">
<path d="M12.7604 2.01111C13.5382 2.01116 14.2893 2.29448 14.8734 2.80811L15.0274 2.95311L15.7254 3.65111C15.917 3.84142 16.1671 3.96156 16.4354 3.99211L16.5704 4.00011H17.5704C18.3876 4.00006 19.1739 4.31268 19.768 4.87385C20.3621 5.43502 20.7189 6.20221 20.7654 7.01811L20.7704 7.20011V8.20011C20.7704 8.47011 20.8624 8.73311 21.0284 8.94311L21.1184 9.04311L21.8154 9.74111C22.3931 10.3156 22.73 11.0887 22.7573 11.903C22.7846 12.7172 22.5003 13.5112 21.9624 14.1231L21.8174 14.2771L21.1194 14.9751C20.9291 15.1667 20.809 15.4168 20.7784 15.6851L20.7704 15.8201V16.8201C20.7705 17.6373 20.4578 18.4236 19.8967 19.0177C19.3355 19.6118 18.5683 19.9686 17.7524 20.0151L17.5704 20.0201H16.5704C16.3008 20.0202 16.0391 20.1111 15.8274 20.2781L15.7274 20.3681L15.0294 21.0651C14.455 21.6428 13.6818 21.9797 12.8675 22.007C12.0533 22.0343 11.2593 21.75 10.6474 21.2121L10.4934 21.0671L9.79541 20.3691C9.60385 20.1788 9.3537 20.0587 9.08541 20.0281L8.95041 20.0201H7.95041C7.13319 20.0202 6.34693 19.7075 5.75284 19.1464C5.15876 18.5852 4.80189 17.818 4.75541 17.0021L4.75041 16.8201V15.8201C4.75032 15.5505 4.65944 15.2888 4.49241 15.0771L4.40241 14.9771L3.70541 14.2791C3.12769 13.7047 2.79083 12.9315 2.76352 12.1172C2.7362 11.303 3.02049 10.509 3.55841 9.89711L3.70341 9.74311L4.40141 9.04511C4.59172 8.85355 4.71187 8.6034 4.74241 8.33511L4.75041 8.20011V7.20011L4.75541 7.01811C4.80006 6.23355 5.13184 5.49286 5.6875 4.9372C6.24316 4.38153 6.98386 4.04976 7.76841 4.00511L7.95041 4.00011H8.95041C9.22003 4.00002 9.48176 3.90914 9.69341 3.74211L9.79341 3.65211L10.4914 2.95511C10.7887 2.656 11.1423 2.41861 11.5317 2.25661C11.9211 2.0946 12.3387 2.01117 12.7604 2.01111ZM16.4574 9.29311C16.2699 9.10564 16.0156 9.00032 15.7504 9.00032C15.4852 9.00032 15.2309 9.10564 15.0434 9.29311L11.7504 12.5851L10.4574 11.2931L10.3634 11.2101C10.1624 11.0547 9.90981 10.9816 9.65689 11.0057C9.40396 11.0298 9.16969 11.1493 9.00166 11.3398C8.83363 11.5304 8.74443 11.7778 8.75218 12.0317C8.75994 12.2857 8.86406 12.5272 9.04341 12.7071L11.0434 14.7071L11.1374 14.7901C11.3298 14.9394 11.5701 15.0133 11.8131 14.998C12.0561 14.9827 12.2852 14.8793 12.4574 14.7071L16.4574 10.7071L16.5404 10.6131C16.6897 10.4207 16.7636 10.1805 16.7483 9.93743C16.733 9.6944 16.6296 9.4653 16.4574 9.29311Z" fill="url(#paint0_linear_512_679)"/>
</g>
</g>
<defs>
<linearGradient id="paint0_linear_512_679" x1="4.26152" y1="-9.45816" x2="29.7677" y2="-6.26996" gradientUnits="userSpaceOnUse">
<stop offset="0.0992937" stop-color="#5D007F"/>
<stop offset="0.556576" stop-color="#9E2FF4"/>
<stop offset="1" stop-color="#DE5AF9"/>
</linearGradient>
<clipPath id="clip0_512_679">
<rect width="24" height="24" fill="white" transform="translate(0.75 0.00012207)"/>
</clipPath>
<clipPath id="clip1_512_679">
<rect width="24" height="24" fill="white" transform="translate(0.75 0.00012207)"/>
</clipPath>
</defs>
</svg>
