<svg width="1608" height="325" viewBox="0 0 1608 325" fill="none" xmlns="http://www.w3.org/2000/svg">
<g clip-path="url(#clip0_473_1871)">
<path d="M1556.07 289.855C1538.64 285.458 1512.87 282.934 1491.32 287.465C1490.46 282.646 1488.92 277.944 1486.74 273.469C1475.72 250.716 1451.27 236.204 1425.16 229.798C1352.13 211.921 1288.69 257.962 1228.51 287.159C1192.06 304.807 1148.99 320.065 1106.86 312.016C1079.29 306.7 1052.98 288.192 1042.24 264.406C1060.83 261.844 1078.47 255.324 1088.29 241.825C1100.47 225.076 1089.56 194.808 1063.02 200.64C1034.63 206.873 1028.82 239.454 1036.32 260.888C1018.92 262.714 1001.3 261.775 984.268 258.115C903.31 241.251 850.954 179.932 801.577 125.248C778.979 100.163 755.846 72.9543 725.058 55.4401C713.094 48.6333 695.749 42.1897 679.091 40.9851C676.539 34.9805 672.872 29.4022 668.242 24.4843C645.151 0.622137 607.074 -2.85776 574.12 1.75023C538.766 6.7024 505.748 20.5455 476.568 38.7289C411.648 79.2449 367.932 139.397 317.441 192.609C292.141 219.263 263.09 247.427 223.105 255.094C197.805 259.951 169.012 254.616 154.111 237.485C164.252 220.601 168.497 201.385 162.858 182.284C162.769 182.045 162.627 181.825 162.442 181.635C162.256 181.445 162.031 181.289 161.778 181.177C161.524 181.065 161.249 180.999 160.967 180.982C160.686 180.966 160.403 180.999 160.135 181.08C138.288 189.091 136.015 212.456 144.27 229.913C145.601 232.726 147.239 235.415 149.158 237.944C135.436 258.976 111.745 275.725 87.3894 284.482C59.6057 294.192 29.3065 296.684 0 291.672L0 295.266C52.9354 304.119 110.18 291.002 144.356 251.117C147.088 247.919 149.608 244.58 151.902 241.118C166.267 257.006 190.902 262.571 214.078 260.238C249.862 256.662 278.784 236.127 302.561 213.393C330.176 187.103 354.082 157.906 379.488 130.009C427.771 76.7784 485.723 22.6296 563.743 7.42897C601.049 0.144127 648.474 2.13263 670.943 34.1974C672.433 36.3526 673.745 38.602 674.867 40.9278C661.231 40.7174 648.431 44.3503 639.791 54.5988C626.927 69.895 639.791 98.8432 663.975 89.5316C684.279 81.6923 686.616 62.2852 680.741 45.2872C686.11 45.6494 691.425 46.4885 696.607 47.792C715.281 52.6676 731.533 63.0882 745.705 74.5604C774.97 98.5755 798.426 128.097 823.51 155.478C869.306 205.515 925.651 256.643 1001.46 264.463C1013.57 265.75 1025.79 265.801 1037.91 264.616C1048.2 287.981 1072.21 306.49 1098.84 313.794C1134.37 323.526 1173.37 314.272 1206.15 301.098C1242.36 286.796 1274.59 265.764 1309.98 249.932C1342.96 235.152 1379.28 225.076 1416.3 231.844C1447.11 237.466 1477.82 254.789 1486.07 283.469C1486.55 285.132 1486.93 286.817 1487.21 288.517C1469.48 293.163 1455.39 303.106 1452.67 321.538C1452.55 322.032 1452.66 322.546 1452.97 322.969C1453.28 323.392 1453.76 323.688 1454.32 323.794C1466.52 327.522 1479.79 322.264 1486.48 312.742C1490.78 306.369 1492.64 298.918 1491.77 291.519C1494.17 290.888 1496.6 290.371 1499 289.932C1520.22 286.108 1542.33 289.721 1562.61 295.668C1578.74 300.454 1594.02 307.259 1608 315.878V311.27C1592.05 301.762 1574.53 294.536 1556.07 289.855ZM151.581 234.177C147.366 228.123 144.865 221.246 144.291 214.139C143.176 202.552 147.614 191.194 159.428 185.707C163.446 202.179 160.659 219.391 151.581 234.177ZM665.819 84.1206C646.223 95.9369 631.965 72.3616 642.128 58.0978C649.439 47.8302 663.118 44.7136 676.582 44.9813C681.792 58.8817 680.441 75.3061 665.819 84.1206ZM1040.61 260.257C1039.36 256.88 1038.43 253.413 1037.85 249.894C1035.34 234.292 1040.85 215.611 1056.8 206.988C1077.57 195.726 1094.13 216.089 1088.06 233.412C1081.99 250.735 1059.07 257.561 1041.21 260.18L1040.61 260.257ZM1481.7 312.188C1478.97 315.549 1475.2 318.127 1470.85 319.604C1466.5 321.082 1461.76 321.395 1457.21 320.505C1460.19 306.165 1472.99 297.35 1487.64 292.666C1488.29 299.594 1486.19 306.506 1481.7 312.188Z" fill="url(#paint0_linear_473_1871)" fill-opacity="0.1"/>
</g>
<defs>
<linearGradient id="paint0_linear_473_1871" x1="120.6" y1="-186.397" x2="1627.31" y2="745.437" gradientUnits="userSpaceOnUse">
<stop offset="0.0992937" stop-color="#5D007F"/>
<stop offset="0.556576" stop-color="#9E2FF4"/>
<stop offset="1" stop-color="#DE5AF9"/>
</linearGradient>
<clipPath id="clip0_473_1871">
<rect width="1608" height="325" fill="white"/>
</clipPath>
</defs>
</svg>
