<svg width="48" height="48" viewBox="0 0 48 48" fill="none" xmlns="http://www.w3.org/2000/svg">
<g clip-path="url(#clip0_502_649)">
<path d="M29.7441 23.7806L27.6859 22.8579C26.9986 22.5498 26.1925 22.698 25.6596 23.2302L25.2845 23.6048C24.944 23.9449 24.4824 24.136 24.0012 24.136H17.4246V27.2768H26.6726L29.7441 23.7806Z" fill="url(#paint0_linear_502_649)"/>
<path d="M29.7441 23.7806L27.6859 22.8579C26.9986 22.5498 26.1925 22.698 25.6596 23.2302L25.2845 23.6048C24.944 23.9449 24.4824 24.136 24.0012 24.136H17.4246V27.2768H26.6726L29.7441 23.7806Z" fill="url(#paint1_linear_502_649)"/>
<path d="M29.7441 23.7806L27.6859 22.8579C26.9986 22.5498 26.1925 22.698 25.6596 23.2302L25.2845 23.6048C24.944 23.9449 24.4824 24.136 24.0012 24.136H17.4246V27.2768H26.6726L29.7441 23.7806Z" fill="url(#paint2_linear_502_649)"/>
<path d="M29.7441 23.7806L27.6859 22.8579C26.9986 22.5498 26.1925 22.698 25.6596 23.2302L25.2845 23.6048C24.944 23.9449 24.4824 24.136 24.0012 24.136H17.4246V27.2768H26.6726L29.7441 23.7806Z" fill="url(#paint3_linear_502_649)"/>
<path d="M25.8408 24.5351C27.3064 23.6564 28.9831 23.1924 30.6919 23.1924H34.2013C38.6393 23.1924 43.0209 24.187 47.024 26.103L47.5247 26.3428C48.3258 26.7262 48.0527 27.9295 47.1645 27.9295H30.8956L29.6266 29.1985C28.9553 29.8698 28.0449 30.2469 27.0955 30.2469H18.2258V25.8778H20.9897C22.6985 25.8778 24.3752 25.4137 25.8408 24.5351Z" fill="url(#paint4_linear_502_649)"/>
<path d="M35.032 23.7805H40.0792C42.4737 24.264 44.8069 25.0419 47.0239 26.1031L47.5247 26.3428C48.3258 26.7262 48.0527 27.9295 47.1645 27.9295H35.0319L35.032 23.7805Z" fill="url(#paint5_linear_502_649)"/>
<path d="M42.5835 28.6669C41.9253 28.6669 41.3917 28.1333 41.3917 27.475C41.3917 26.8168 41.9253 26.2832 42.5835 26.2832C43.2418 26.2832 43.7754 26.8168 43.7754 27.475C43.7754 28.1333 43.2418 28.6669 42.5835 28.6669Z" fill="url(#paint6_linear_502_649)"/>
<path d="M39.0583 28.5677C39.8137 27.826 41.2529 27.3159 42.7169 27.2955C44.2333 27.2744 45.6085 27.8246 46.3506 28.5796C46.8447 29.0822 46.2951 29.7189 45.3145 29.7805C43.5643 29.8905 41.8353 29.8898 40.0848 29.7784C39.0961 29.7154 38.5467 29.0699 39.0583 28.5677Z" fill="url(#paint7_linear_502_649)"/>
<path d="M39.0583 28.5677C39.8137 27.826 41.2529 27.3159 42.7169 27.2955C44.2333 27.2744 45.6085 27.8246 46.3506 28.5796C46.8447 29.0822 46.2951 29.7189 45.3145 29.7805C43.5643 29.8905 41.8353 29.8898 40.0848 29.7784C39.0961 29.7154 38.5467 29.0699 39.0583 28.5677Z" fill="url(#paint8_linear_502_649)"/>
<path d="M39.0587 28.5677C39.8141 27.826 41.2533 27.3158 42.7173 27.2955C42.7289 27.2953 42.7404 27.2955 42.752 27.2954V29.8621C41.8649 29.8628 40.9778 29.8352 40.0851 29.7784C39.0965 29.7154 38.5471 29.0699 39.0587 28.5677Z" fill="url(#paint9_linear_502_649)"/>
<path d="M0.194999 28.5677C0.950436 27.826 2.38959 27.3159 3.85359 27.2955C5.37 27.2744 6.74522 27.8246 7.48734 28.5796C7.98141 29.0822 7.43184 29.7189 6.45122 29.7805C4.701 29.8905 2.97206 29.8898 1.22156 29.7784C0.232781 29.7154 -0.316595 29.0699 0.194999 28.5677Z" fill="url(#paint10_linear_502_649)"/>
<path d="M0.194999 28.5677C0.950436 27.826 2.38959 27.3159 3.85359 27.2955C5.37 27.2744 6.74522 27.8246 7.48734 28.5796C7.98141 29.0822 7.43184 29.7189 6.45122 29.7805C4.701 29.8905 2.97206 29.8898 1.22156 29.7784C0.232781 29.7154 -0.316595 29.0699 0.194999 28.5677Z" fill="url(#paint11_linear_502_649)"/>
<path d="M0.195392 28.5677C0.950829 27.826 2.38998 27.3158 3.85398 27.2955C3.86561 27.2953 3.87714 27.2955 3.88867 27.2954V29.8621C3.00161 29.8628 2.11455 29.8352 1.22186 29.7784C0.233173 29.7154 -0.316202 29.0699 0.195392 28.5677Z" fill="url(#paint12_linear_502_649)"/>
<path d="M25.6643 24.6371C25.7234 24.6033 25.7828 24.57 25.8412 24.5351C27.3068 23.6564 28.9835 23.1924 30.6923 23.1924H34.2016C34.2803 23.1924 34.3588 23.1934 34.4375 23.1941V27.9295H30.8961L29.6271 29.1985C28.9557 29.8698 28.0453 30.2469 27.0959 30.2469H25.6644L25.6643 24.6371Z" fill="url(#paint13_linear_502_649)"/>
<path d="M32.8594 27.9296H30.8964L29.6274 29.1986C28.9561 29.87 28.0457 30.2471 27.0963 30.2471H18.2266V25.8779H32.8594V27.9296Z" fill="url(#paint14_linear_502_649)"/>
<path d="M25.6641 24.6372V30.2471H18.2259V25.8779H20.99C22.6306 25.8779 24.241 25.449 25.6641 24.6372Z" fill="url(#paint15_linear_502_649)"/>
<path d="M19.1211 26.054V17.5955C19.1211 17.1461 18.671 16.8365 18.2512 16.997C15.5689 18.0227 7.60597 21.3754 7.60597 25.0296V26.0541H19.1211V26.054Z" fill="url(#paint16_linear_502_649)"/>
<path d="M17.1058 18.6207L18.6103 16.9685C18.893 17.0278 19.1211 17.2757 19.1211 17.5955V26.054H16.3067V20.6849C16.3068 19.9214 16.5917 19.1852 17.1058 18.6207Z" fill="url(#paint17_linear_502_649)"/>
<path d="M14.5781 18.5864V26.0542H7.60641V25.0297C7.6065 22.5216 11.3577 20.1555 14.5781 18.5864Z" fill="url(#paint18_linear_502_649)"/>
<path d="M19.1211 26.0541H7.60597V25.0296C7.60597 23.4239 9.14366 21.8766 11.095 20.5591H19.121L19.1211 26.0541Z" fill="url(#paint19_linear_502_649)"/>
<path d="M19.6612 24.6284L17.6942 23.7753C16.5586 23.2829 15.2753 23.2545 14.1191 23.6962L5.83713 26.8599C4.87169 27.2287 4.23391 28.1551 4.23391 29.1885C4.23391 29.7732 4.70781 30.2472 5.29253 30.2472H19.7188C20.312 30.2472 20.793 29.7662 20.793 29.173L20.7929 26.3526C20.7928 25.6036 20.3482 24.9263 19.6612 24.6284Z" fill="url(#paint20_linear_502_649)"/>
<path d="M13.0413 25.3872H11.2495C10.9314 25.3872 10.6736 25.645 10.6736 25.9631V26.1095C10.6736 26.4276 10.9314 26.6854 11.2495 26.6854H13.0413C13.3594 26.6854 13.6172 26.4276 13.6172 26.1095V25.9631C13.6173 25.645 13.3594 25.3872 13.0413 25.3872Z" fill="url(#paint21_linear_502_649)"/>
<path d="M13.0413 27.2805H11.2495C10.9314 27.2805 10.6736 27.5383 10.6736 27.8564V28.0028C10.6736 28.3209 10.9314 28.5787 11.2495 28.5787H13.0413C13.3594 28.5787 13.6172 28.3209 13.6172 28.0028V27.8564C13.6173 27.5383 13.3594 27.2805 13.0413 27.2805Z" fill="url(#paint22_linear_502_649)"/>
<path d="M20.7929 26.3524L20.793 29.1728C20.793 29.7661 20.312 30.247 19.7188 30.247H5.29244C4.70781 30.247 4.23381 29.7731 4.23381 29.1884C4.23381 28.1549 4.87159 27.2285 5.83703 26.8597L8.40775 25.8777H20.7307C20.7707 26.0306 20.7929 26.1896 20.7929 26.3524Z" fill="url(#paint23_linear_502_649)"/>
<path d="M5.83692 26.8598L14.1189 23.6962C14.9306 23.3861 15.8047 23.3087 16.6465 23.4598V30.247H5.29223C4.70761 30.247 4.23361 29.7731 4.23361 29.1884C4.2337 28.1549 4.87148 27.2287 5.83692 26.8598Z" fill="url(#paint24_linear_502_649)"/>
<path d="M16.306 27.7832C15.3511 27.7832 14.5769 27.009 14.5769 26.0541C14.5769 25.0991 15.3511 24.325 16.306 24.325C17.261 24.325 18.0352 25.0991 18.0352 26.0541C18.0352 27.009 17.261 27.7832 16.306 27.7832Z" fill="url(#paint25_linear_502_649)"/>
<path d="M16.3063 27.1715C15.6891 27.1715 15.1888 26.6712 15.1888 26.054C15.1888 25.4368 15.6891 24.9365 16.3063 24.9365C16.9235 24.9365 17.4238 25.4368 17.4238 26.054C17.4238 26.6712 16.9235 27.1715 16.3063 27.1715Z" fill="url(#paint26_linear_502_649)"/>
<path d="M18.0352 26.0541C18.0352 27.0091 17.261 27.7833 16.306 27.7833C15.3511 27.7833 14.5769 27.0091 14.5769 26.0541C14.5769 26.0082 14.5787 25.9627 14.5823 25.9177H18.0298C18.0333 25.9628 18.0352 26.0083 18.0352 26.0541Z" fill="url(#paint27_linear_502_649)"/>
<path d="M17.5284 27.2767C16.8531 27.952 15.7583 27.952 15.0831 27.2767C14.4079 26.6014 14.4078 25.5066 15.0831 24.8314C15.1155 24.799 15.149 24.7681 15.1833 24.7388L17.6211 27.1765C17.5917 27.2108 17.5608 27.2442 17.5284 27.2767Z" fill="url(#paint28_linear_502_649)"/>
<path d="M17.7745 28.3499H14.8376C14.6937 28.3499 14.577 28.4666 14.577 28.6105V28.8538C14.577 28.9977 14.6937 29.1144 14.8376 29.1144H17.7745C17.9184 29.1144 18.0352 28.9977 18.0352 28.8538V28.6105C18.0352 28.4666 17.9184 28.3499 17.7745 28.3499Z" fill="url(#paint29_linear_502_649)"/>
<path d="M0.00148392 20.4066V23.619C0.00148392 24.1493 0.431422 24.5793 0.961766 24.5793H7.9362C8.46655 24.5793 8.89648 24.1493 8.89648 23.619V17.4991C8.89648 16.9688 8.46655 16.5388 7.9362 16.5388H4.04511C3.62942 16.5388 3.2682 16.8087 3.13217 17.2015C2.74817 18.3109 1.83383 19.1727 0.692985 19.4849C0.281328 19.5975 0.00148392 19.9797 0.00148392 20.4066Z" fill="url(#paint30_linear_502_649)"/>
<path d="M0.692704 19.4849C1.83355 19.1727 2.74789 18.3109 3.13189 17.2015C3.26783 16.8087 3.62914 16.5388 4.04483 16.5388H5.98452C6.01864 16.7759 6.03711 17.018 6.03711 17.2645C6.03711 20.0567 3.77361 22.3202 0.981453 22.3202C0.645922 22.3202 0.31836 22.2867 0.00120354 22.2244V20.4066C0.00120354 19.9798 0.281048 19.5976 0.692704 19.4849Z" fill="url(#paint31_linear_502_649)"/>
<path d="M4.44842 19.0109L4.21274 19.1571C4.13961 19.2058 4.06648 19.2222 4.00958 19.2222C3.77389 19.2222 3.61133 18.9702 3.61133 18.7183C3.61133 18.5476 3.68455 18.3851 3.84711 18.2876L4.9198 17.6376C4.98477 17.5968 5.06605 17.5806 5.15549 17.5806C5.41555 17.5806 5.7162 17.735 5.7162 17.9789V23.1474C5.7162 23.4074 5.39923 23.5375 5.08227 23.5375C4.7653 23.5375 4.44833 23.4074 4.44833 23.1474L4.44842 19.0109Z" fill="white"/>
<path d="M8.89648 23.6189C8.89648 24.1492 8.46655 24.5792 7.9362 24.5792H0.961766C0.431422 24.5792 0.00148392 24.1492 0.00148392 23.6189V20.4064C0.00148392 20.3031 0.0181723 20.2026 0.0489225 20.1077H8.89648V23.6189Z" fill="url(#paint32_linear_502_649)"/>
<path d="M0.693219 19.4849C1.83406 19.1727 2.74841 18.3109 3.13241 17.2015C3.26834 16.8087 3.62965 16.5388 4.04534 16.5388H4.44922V24.5792H0.962001C0.431657 24.5792 0.00171852 24.1493 0.00171852 23.6189V20.4065C0.00171852 19.9798 0.281563 19.5976 0.693219 19.4849Z" fill="url(#paint33_linear_502_649)"/>
<path d="M5.15555 17.5806C5.06621 17.5806 4.98483 17.5968 4.91986 17.6376L4.3418 17.9879C4.49648 19.0673 4.99224 20.0362 5.71627 20.7829V17.9789C5.71627 17.735 5.41561 17.5806 5.15555 17.5806Z" fill="url(#paint34_linear_502_649)"/>
<path d="M34.0382 31.4611C31.5212 31.4611 29.4808 29.4207 29.4808 26.9037C29.4808 24.3866 31.5212 22.3462 34.0382 22.3462C36.5553 22.3462 38.5957 24.3866 38.5957 26.9037C38.5957 29.4207 36.5553 31.4611 34.0382 31.4611Z" fill="url(#paint35_linear_502_649)"/>
<path d="M31.3916 23.1924L31.7372 23.7514C31.8569 23.9451 31.8278 24.1957 31.6667 24.3568L31.4904 24.533C31.3294 24.6941 31.0788 24.7232 30.8851 24.6035L30.3261 24.2579C30.6199 23.8467 30.9803 23.4862 31.3916 23.1924Z" fill="url(#paint36_linear_502_649)"/>
<path d="M30.5605 26.7789V27.0282C30.5605 27.2559 30.404 27.4537 30.1824 27.5061L29.5426 27.6571C29.5018 27.4119 29.4803 27.1603 29.4803 26.9036C29.4803 26.6469 29.5018 26.3953 29.5426 26.1501L30.1824 26.3012C30.404 26.3534 30.5605 26.5512 30.5605 26.7789Z" fill="url(#paint37_linear_502_649)"/>
<path d="M30.3261 29.5493L30.8851 29.2037C31.0788 29.084 31.3294 29.1132 31.4904 29.2742L31.6667 29.4505C31.8278 29.6115 31.8569 29.8621 31.7372 30.0558L31.3916 30.6148C30.9803 30.321 30.6199 29.9607 30.3261 29.5493Z" fill="url(#paint38_linear_502_649)"/>
<path d="M34.0375 31.4611C33.7808 31.4611 33.529 31.4396 33.284 31.3988L33.435 30.759C33.4873 30.5374 33.6851 30.3809 33.9129 30.3809H34.1621C34.3899 30.3809 34.5877 30.5374 34.64 30.759L34.791 31.3988C34.5459 31.4396 34.2942 31.4611 34.0375 31.4611Z" fill="url(#paint39_linear_502_649)"/>
<path d="M36.5856 29.2742C36.7467 29.1132 36.9973 29.084 37.191 29.2037L37.75 29.5493C37.4562 29.9607 37.0958 30.3211 36.6844 30.6148L36.3389 30.0558C36.2192 29.8621 36.2483 29.6115 36.4094 29.4505L36.5856 29.2742Z" fill="url(#paint40_linear_502_649)"/>
<path d="M38.5334 27.6572L37.8936 27.5061C37.672 27.4538 37.5154 27.256 37.5154 27.0283V26.779C37.5154 26.5513 37.672 26.3535 37.8936 26.3012L38.5334 26.1501C38.5741 26.3953 38.5957 26.6469 38.5957 26.9036C38.5957 27.1603 38.5741 27.412 38.5334 27.6572Z" fill="url(#paint41_linear_502_649)"/>
<path d="M37.75 24.2579L37.191 24.6035C36.9973 24.7232 36.7467 24.6941 36.5856 24.533L36.4094 24.3568C36.2483 24.1957 36.2192 23.9451 36.3389 23.7514L36.6844 23.1924C37.0957 23.4862 37.4562 23.8467 37.75 24.2579Z" fill="url(#paint42_linear_502_649)"/>
<path d="M34.0375 22.3462C34.2942 22.3462 34.5459 22.3678 34.791 22.4085L34.64 23.0483C34.5877 23.2699 34.3899 23.4265 34.1621 23.4265H33.9129C33.6851 23.4265 33.4873 23.2699 33.435 23.0483L33.284 22.4085C33.5292 22.3678 33.7809 22.3462 34.0375 22.3462Z" fill="url(#paint43_linear_502_649)"/>
<path d="M31.3916 23.1926L31.7372 23.7517C31.8569 23.9453 31.8278 24.1959 31.6667 24.357L31.4904 24.5333C31.3294 24.6943 31.0788 24.7235 30.8851 24.6038L30.3261 24.2582C30.6199 23.8469 30.9803 23.4864 31.3916 23.1926Z" fill="url(#paint44_linear_502_649)"/>
<path d="M30.5605 26.7792V27.0285C30.5605 27.2562 30.404 27.454 30.1824 27.5063L29.5426 27.6573C29.5018 27.4122 29.4803 27.1605 29.4803 26.9039C29.4803 26.6472 29.5018 26.3955 29.5426 26.1504L30.1824 26.3014C30.404 26.3536 30.5605 26.5515 30.5605 26.7792Z" fill="url(#paint45_linear_502_649)"/>
<path d="M30.3261 29.5495L30.8851 29.204C31.0788 29.0842 31.3294 29.1134 31.4904 29.2745L31.6667 29.4507C31.8278 29.6118 31.8569 29.8624 31.7372 30.0561L31.3916 30.6151C30.9803 30.3213 30.6199 29.9609 30.3261 29.5495Z" fill="url(#paint46_linear_502_649)"/>
<path d="M34.0375 31.4614C33.7808 31.4614 33.529 31.4398 33.284 31.399L33.435 30.7593C33.4873 30.5377 33.6851 30.3811 33.9129 30.3811H34.1621C34.3899 30.3811 34.5877 30.5377 34.64 30.7593L34.791 31.399C34.5459 31.4398 34.2942 31.4614 34.0375 31.4614Z" fill="url(#paint47_linear_502_649)"/>
<path d="M36.5837 29.2745C36.7447 29.1134 36.9953 29.0842 37.189 29.204L37.748 29.5495C37.4542 29.9609 37.0939 30.3214 36.6825 30.6151L36.3369 30.0561C36.2172 29.8624 36.2464 29.6118 36.4074 29.4507L36.5837 29.2745Z" fill="url(#paint48_linear_502_649)"/>
<path d="M34.0375 30.2472C32.1911 30.2472 30.6942 28.7503 30.6942 26.9039C30.6942 25.0574 32.1911 23.5605 34.0375 23.5605C35.884 23.5605 37.3809 25.0574 37.3809 26.9039C37.3809 28.7503 35.884 30.2472 34.0375 30.2472Z" fill="url(#paint49_linear_502_649)"/>
<path d="M34.0388 30.6619C36.1111 30.6619 37.7969 28.9761 37.7969 26.9038C37.7969 24.8316 36.1111 23.1458 34.0388 23.1458C31.9666 23.1458 30.2807 24.8317 30.2807 26.9038C30.2807 28.976 31.9667 30.6619 34.0388 30.6619ZM34.0388 23.5047C35.9131 23.5047 37.4378 25.0296 37.4378 26.9037C37.4378 28.7779 35.9131 30.3027 34.0388 30.3027C32.1646 30.3027 30.6398 28.778 30.6398 26.9037C30.6398 25.0295 32.1647 23.5047 34.0388 23.5047Z" fill="url(#paint50_linear_502_649)"/>
<path d="M38.5957 26.9037C38.5957 29.4207 36.5552 31.4611 34.0382 31.4611C31.5212 31.4611 29.4808 29.4207 29.4808 26.9037C29.4808 26.8838 29.4812 26.864 29.4815 26.8442H38.5949C38.5952 26.864 38.5957 26.8838 38.5957 26.9037Z" fill="url(#paint51_linear_502_649)"/>
<path d="M37.2613 30.1264C35.4815 31.9061 32.5959 31.9061 30.8161 30.1264C29.0362 28.3466 29.0363 25.461 30.8161 23.6812C30.8301 23.6671 30.8445 23.6535 30.8586 23.6396L37.3027 30.0837C37.289 30.098 37.2754 30.1123 37.2613 30.1264Z" fill="url(#paint52_linear_502_649)"/>
<path d="M34.0382 31.4611C31.5212 31.4611 29.4808 29.4207 29.4808 26.9037C29.4808 24.3867 31.5212 22.3462 34.0382 22.3462C34.0581 22.3462 34.0779 22.3467 34.0977 22.3469V31.4603C34.0779 31.4607 34.0581 31.4611 34.0382 31.4611Z" fill="url(#paint53_linear_502_649)"/>
<path d="M37.2613 30.1264C35.4815 31.9061 32.5959 31.9061 30.8161 30.1264C29.0362 28.3466 29.0363 25.461 30.8161 23.6812C30.8301 23.6671 30.8445 23.6535 30.8586 23.6396L37.3027 30.0837C37.289 30.098 37.2754 30.1123 37.2613 30.1264Z" fill="url(#paint54_linear_502_649)"/>
<path d="M34.0408 29.6715C32.5122 29.6715 31.273 28.4324 31.273 26.9038C31.273 25.3752 32.5122 24.136 34.0408 24.136C35.5694 24.136 36.8086 25.3752 36.8086 26.9038C36.8086 28.4324 35.5694 29.6715 34.0408 29.6715Z" fill="url(#paint55_linear_502_649)"/>
<path d="M36.8086 26.9038C36.8086 28.4324 35.5694 29.6716 34.0408 29.6716C32.5122 29.6716 31.273 28.4324 31.273 26.9038C31.273 26.8303 31.2759 26.7575 31.2816 26.6855H36.8001C36.8057 26.7575 36.8086 26.8303 36.8086 26.9038Z" fill="url(#paint56_linear_502_649)"/>
<path d="M35.9982 28.8609C34.9173 29.9417 33.1649 29.9417 32.0839 28.8609C31.0031 27.7801 31.0031 26.0276 32.0839 24.9467C32.1359 24.8947 32.1894 24.8453 32.2443 24.7983L36.1465 28.7005C36.0995 28.7554 36.0501 28.809 35.9982 28.8609Z" fill="url(#paint57_linear_502_649)"/>
<path d="M34.7266 27.5913L32.8937 29.4242C32.2857 29.1474 31.7955 28.6572 31.5187 28.0491L33.3515 26.2163L34.7266 27.5913Z" fill="url(#paint58_linear_502_649)"/>
<path d="M34.0385 28.0469C33.4072 28.0469 32.8955 27.5351 32.8955 26.9038C32.8955 26.2725 33.4072 25.7607 34.0385 25.7607C34.6699 25.7607 35.1816 26.2725 35.1816 26.9038C35.1816 27.5351 34.6699 28.0469 34.0385 28.0469Z" fill="url(#paint59_linear_502_649)"/>
<path d="M34.0394 27.8762C33.5025 27.8762 33.0672 27.4409 33.0672 26.9039C33.0672 26.3669 33.5025 25.9316 34.0394 25.9316C34.5764 25.9316 35.0117 26.3669 35.0117 26.9039C35.0117 27.4409 34.5764 27.8762 34.0394 27.8762Z" fill="url(#paint60_linear_502_649)"/>
<path d="M35.0117 26.9038C35.0117 27.4408 34.5764 27.8761 34.0394 27.8761C33.5024 27.8761 33.0672 27.4408 33.0672 26.9038C33.0672 26.8781 33.0682 26.8525 33.0702 26.8271H35.0087C35.0108 26.8525 35.0117 26.878 35.0117 26.9038Z" fill="url(#paint61_linear_502_649)"/>
<path d="M34.7252 27.5912C34.3455 27.9709 33.7299 27.9709 33.3502 27.5912C32.9705 27.2115 32.9705 26.5959 33.3502 26.2162C33.3685 26.1979 33.3872 26.1806 33.4065 26.1641L34.7773 27.5349C34.7608 27.5542 34.7435 27.5729 34.7252 27.5912Z" fill="url(#paint62_linear_502_649)"/>
<path d="M32.8243 26.3779C32.7274 26.6014 32.4871 26.726 32.2491 26.6736L31.8435 26.5843C31.6852 26.5494 31.5891 26.3888 31.6325 26.2326C31.7471 25.8204 31.9646 25.4511 32.2557 25.1545C32.3688 25.0392 32.556 25.0429 32.6649 25.1622L32.9448 25.4688C33.1104 25.6501 33.1189 25.9213 32.9732 26.1189C32.9144 26.1989 32.8642 26.2857 32.8243 26.3779Z" fill="url(#paint63_linear_502_649)"/>
<path d="M31.8434 27.2233L32.249 27.134C32.487 27.0816 32.7273 27.2062 32.8242 27.4297C32.8641 27.522 32.9143 27.6087 32.9732 27.6887C33.1189 27.8863 33.1104 28.1575 32.9448 28.3388L32.6649 28.6454C32.556 28.7647 32.3688 28.7684 32.2557 28.6531C31.9646 28.3565 31.7471 27.9872 31.6325 27.575C31.589 27.4188 31.6851 27.2581 31.8434 27.2233Z" fill="url(#paint64_linear_502_649)"/>
<path d="M33.3447 28.5694C33.4188 28.3358 33.6488 28.1924 33.8923 28.2196C33.941 28.225 33.9905 28.2279 34.0407 28.2279C34.0906 28.2279 34.14 28.225 34.1886 28.2197C34.4322 28.1925 34.6621 28.3359 34.7362 28.5695L34.8617 28.9656C34.9106 29.1196 34.8203 29.2836 34.6638 29.3238C34.4646 29.3751 34.2557 29.4023 34.0406 29.4023C33.8252 29.4023 33.6163 29.3751 33.417 29.3238C33.2606 29.2836 33.1703 29.1196 33.2191 28.9656L33.3447 28.5694Z" fill="url(#paint65_linear_502_649)"/>
<path d="M35.2547 27.4297C35.3515 27.2062 35.5919 27.0816 35.8297 27.134L36.2357 27.2233C36.3939 27.2581 36.49 27.4189 36.4466 27.575C36.3319 27.9872 36.1143 28.3565 35.8232 28.6531C35.71 28.7684 35.523 28.7647 35.4139 28.6454L35.134 28.3388C34.9684 28.1575 34.9599 27.8863 35.1056 27.6887C35.1646 27.6087 35.2146 27.5219 35.2547 27.4297Z" fill="url(#paint66_linear_502_649)"/>
<path d="M35.4139 25.1622C35.5229 25.0429 35.71 25.0392 35.8232 25.1545C36.1143 25.4511 36.332 25.8204 36.4466 26.2326C36.49 26.3887 36.3939 26.5494 36.2357 26.5843L35.8297 26.6736C35.5919 26.726 35.3514 26.6014 35.2547 26.3779C35.2147 26.2856 35.1646 26.1989 35.1056 26.1189C34.9599 25.9213 34.9684 25.6501 35.134 25.4688L35.4139 25.1622Z" fill="url(#paint67_linear_502_649)"/>
<path d="M33.417 24.484C33.6163 24.4327 33.8252 24.4055 34.0406 24.4055C34.2557 24.4055 34.4645 24.4327 34.6638 24.484C34.8203 24.5242 34.9106 24.6882 34.8617 24.8422L34.7362 25.2383C34.6621 25.4719 34.4322 25.6153 34.1886 25.5881C34.14 25.5826 34.0906 25.5799 34.0407 25.5799C33.9905 25.5799 33.941 25.5827 33.8923 25.5882C33.6488 25.6154 33.4188 25.4719 33.3447 25.2384L33.2192 24.8423C33.1703 24.6882 33.2605 24.5242 33.417 24.484Z" fill="url(#paint68_linear_502_649)"/>
<path d="M32.8243 26.3779C32.7274 26.6014 32.4871 26.726 32.2491 26.6736L31.8435 26.5843C31.6852 26.5494 31.5891 26.3888 31.6325 26.2326C31.7471 25.8204 31.9646 25.4511 32.2557 25.1545C32.3688 25.0392 32.556 25.0429 32.6649 25.1622L32.9448 25.4688C33.1104 25.6501 33.1189 25.9213 32.9732 26.1189C32.9144 26.1989 32.8642 26.2857 32.8243 26.3779Z" fill="url(#paint69_linear_502_649)"/>
<path d="M31.8434 27.2233L32.249 27.134C32.487 27.0816 32.7273 27.2062 32.8242 27.4297C32.8641 27.522 32.9143 27.6087 32.9732 27.6887C33.1189 27.8863 33.1104 28.1575 32.9448 28.3388L32.6649 28.6454C32.556 28.7647 32.3688 28.7684 32.2557 28.6531C31.9646 28.3565 31.7471 27.9872 31.6325 27.575C31.589 27.4188 31.6851 27.2581 31.8434 27.2233Z" fill="url(#paint70_linear_502_649)"/>
<path d="M33.3447 28.5694C33.4188 28.3358 33.6488 28.1924 33.8923 28.2196C33.941 28.225 33.9905 28.2279 34.0407 28.2279C34.0906 28.2279 34.14 28.225 34.1886 28.2197C34.4322 28.1925 34.6621 28.3359 34.7362 28.5695L34.8617 28.9656C34.9106 29.1196 34.8203 29.2836 34.6638 29.3238C34.4646 29.3751 34.2557 29.4023 34.0406 29.4023C33.8252 29.4023 33.6163 29.3751 33.417 29.3238C33.2606 29.2836 33.1703 29.1196 33.2191 28.9656L33.3447 28.5694Z" fill="url(#paint71_linear_502_649)"/>
<path d="M35.2547 27.4297C35.3515 27.2062 35.5919 27.0816 35.8297 27.134L36.2357 27.2233C36.3939 27.2581 36.49 27.4189 36.4466 27.575C36.3319 27.9872 36.1143 28.3565 35.8232 28.6531C35.71 28.7684 35.523 28.7647 35.4139 28.6454L35.134 28.3388C34.9684 28.1575 34.9599 27.8863 35.1056 27.6887C35.1646 27.6087 35.2146 27.5219 35.2547 27.4297Z" fill="url(#paint72_linear_502_649)"/>
<path d="M35.4139 25.1622C35.5229 25.0429 35.71 25.0392 35.8232 25.1545C36.1143 25.4511 36.332 25.8204 36.4466 26.2326C36.49 26.3887 36.3939 26.5494 36.2357 26.5843L35.8297 26.6736C35.5919 26.726 35.3514 26.6014 35.2547 26.3779C35.2147 26.2856 35.1646 26.1989 35.1056 26.1189C34.9599 25.9213 34.9684 25.6501 35.134 25.4688L35.4139 25.1622Z" fill="url(#paint73_linear_502_649)"/>
<path d="M33.417 24.484C33.6163 24.4327 33.8252 24.4055 34.0406 24.4055C34.2557 24.4055 34.4645 24.4327 34.6638 24.484C34.8203 24.5242 34.9106 24.6882 34.8617 24.8422L34.7362 25.2383C34.6621 25.4719 34.4322 25.6153 34.1886 25.5881C34.14 25.5826 34.0906 25.5799 34.0407 25.5799C33.9905 25.5799 33.941 25.5827 33.8923 25.5882C33.6488 25.6154 33.4188 25.4719 33.3447 25.2384L33.2192 24.8423C33.1703 24.6882 33.2605 24.5242 33.417 24.484Z" fill="url(#paint74_linear_502_649)"/>
<path d="M32.8243 26.3779C32.7274 26.6014 32.4871 26.726 32.2491 26.6736L31.8435 26.5843C31.6852 26.5494 31.5891 26.3888 31.6325 26.2326C31.7471 25.8204 31.9646 25.4511 32.2557 25.1545C32.3688 25.0392 32.556 25.0429 32.6649 25.1622L32.9448 25.4688C33.1104 25.6501 33.1189 25.9213 32.9732 26.1189C32.9144 26.1989 32.8642 26.2857 32.8243 26.3779Z" fill="url(#paint75_linear_502_649)"/>
<path d="M31.8434 27.2233L32.249 27.134C32.487 27.0816 32.7273 27.2062 32.8242 27.4297C32.8641 27.522 32.9143 27.6087 32.9732 27.6887C33.1189 27.8863 33.1104 28.1575 32.9448 28.3388L32.6649 28.6454C32.556 28.7647 32.3688 28.7684 32.2557 28.6531C31.9646 28.3565 31.7471 27.9872 31.6325 27.575C31.589 27.4188 31.6851 27.2581 31.8434 27.2233Z" fill="url(#paint76_linear_502_649)"/>
<path d="M33.3447 28.5694C33.4188 28.3358 33.6488 28.1924 33.8923 28.2196C33.941 28.225 33.9905 28.2279 34.0407 28.2279C34.0906 28.2279 34.14 28.225 34.1886 28.2197C34.4322 28.1925 34.6621 28.3359 34.7362 28.5695L34.8617 28.9656C34.9106 29.1196 34.8203 29.2836 34.6638 29.3238C34.4646 29.3751 34.2557 29.4023 34.0406 29.4023C33.8252 29.4023 33.6163 29.3751 33.417 29.3238C33.2606 29.2836 33.1703 29.1196 33.2191 28.9656L33.3447 28.5694Z" fill="url(#paint77_linear_502_649)"/>
<path d="M35.2547 27.4297C35.3515 27.2062 35.5919 27.0816 35.8297 27.134L36.2357 27.2233C36.3939 27.2581 36.49 27.4189 36.4466 27.575C36.3319 27.9872 36.1143 28.3565 35.8232 28.6531C35.71 28.7684 35.523 28.7647 35.4139 28.6454L35.134 28.3388C34.9684 28.1575 34.9599 27.8863 35.1056 27.6887C35.1646 27.6087 35.2146 27.5219 35.2547 27.4297Z" fill="url(#paint78_linear_502_649)"/>
<path d="M35.4139 25.1622C35.5229 25.0429 35.71 25.0392 35.8232 25.1545C36.1143 25.4511 36.332 25.8204 36.4466 26.2326C36.49 26.3887 36.3939 26.5494 36.2357 26.5843L35.8297 26.6736C35.5919 26.726 35.3514 26.6014 35.2547 26.3779C35.2147 26.2856 35.1646 26.1989 35.1056 26.1189C34.9599 25.9213 34.9684 25.6501 35.134 25.4688L35.4139 25.1622Z" fill="url(#paint79_linear_502_649)"/>
<path d="M33.417 24.484C33.6163 24.4327 33.8252 24.4055 34.0406 24.4055C34.2557 24.4055 34.4645 24.4327 34.6638 24.484C34.8203 24.5242 34.9106 24.6882 34.8617 24.8422L34.7362 25.2383C34.6621 25.4719 34.4322 25.6153 34.1886 25.5881C34.14 25.5826 34.0906 25.5799 34.0407 25.5799C33.9905 25.5799 33.941 25.5827 33.8923 25.5882C33.6488 25.6154 33.4188 25.4719 33.3447 25.2384L33.2192 24.8423C33.1703 24.6882 33.2605 24.5242 33.417 24.484Z" fill="url(#paint80_linear_502_649)"/>
<path d="M7.54605 31.4611C5.02903 31.4611 2.98858 29.4207 2.98858 26.9037C2.98858 24.3866 5.02903 22.3462 7.54605 22.3462C10.0631 22.3462 12.1035 24.3866 12.1035 26.9037C12.1035 29.4207 10.0631 31.4611 7.54605 31.4611Z" fill="url(#paint81_linear_502_649)"/>
<path d="M4.9014 23.1926L5.24696 23.7517C5.36668 23.9453 5.33753 24.1959 5.17647 24.357L5.00022 24.5333C4.83915 24.6943 4.58856 24.7235 4.39487 24.6038L3.83584 24.2582C4.12956 23.8469 4.49003 23.4864 4.9014 23.1926Z" fill="url(#paint82_linear_502_649)"/>
<path d="M4.06836 26.7792V27.0285C4.06836 27.2562 3.9118 27.454 3.69017 27.5063L3.05042 27.6573C3.00964 27.4122 2.98808 27.1605 2.98808 26.9039C2.98808 26.6472 3.00964 26.3955 3.05042 26.1504L3.69017 26.3014C3.9118 26.3536 4.06836 26.5515 4.06836 26.7792Z" fill="url(#paint83_linear_502_649)"/>
<path d="M3.83389 29.5495L4.39292 29.204C4.5866 29.0842 4.8372 29.1134 4.99826 29.2745L5.17451 29.4507C5.33557 29.6118 5.36473 29.8624 5.24501 30.0561L4.89945 30.6151C4.48817 30.3213 4.1277 29.9609 3.83389 29.5495Z" fill="url(#paint84_linear_502_649)"/>
<path d="M7.54527 31.4614C7.28858 31.4614 7.03695 31.4398 6.7918 31.399L6.94283 30.7593C6.99514 30.5377 7.19295 30.3811 7.42067 30.3811H7.66995C7.89767 30.3811 8.09548 30.5377 8.14779 30.7593L8.29883 31.399C8.05358 31.4398 7.80195 31.4614 7.54527 31.4614Z" fill="url(#paint85_linear_502_649)"/>
<path d="M10.0934 29.2745C10.2545 29.1134 10.5051 29.0842 10.6988 29.204L11.2578 29.5495C10.964 29.9609 10.6036 30.3214 10.1922 30.6151L9.84669 30.0561C9.72697 29.8624 9.75612 29.6118 9.91719 29.4507L10.0934 29.2745Z" fill="url(#paint86_linear_502_649)"/>
<path d="M12.0412 27.6574L11.4014 27.5064C11.1798 27.4541 11.0232 27.2563 11.0232 27.0285V26.7793C11.0232 26.5515 11.1798 26.3537 11.4014 26.3014L12.0412 26.1504C12.082 26.3955 12.1035 26.6472 12.1035 26.9039C12.1035 27.1605 12.082 27.4123 12.0412 27.6574Z" fill="url(#paint87_linear_502_649)"/>
<path d="M11.2578 24.2582L10.6988 24.6038C10.5051 24.7235 10.2545 24.6943 10.0934 24.5333L9.91719 24.357C9.75612 24.1959 9.72697 23.9453 9.84669 23.7517L10.1922 23.1926C10.6036 23.4864 10.964 23.8469 11.2578 24.2582Z" fill="url(#paint88_linear_502_649)"/>
<path d="M7.54536 22.3464C7.80205 22.3464 8.05367 22.368 8.29883 22.4088L8.1478 23.0485C8.09549 23.2702 7.89767 23.4267 7.66995 23.4267H7.42067C7.19295 23.4267 6.99514 23.2702 6.94283 23.0485L6.7918 22.4088C7.03695 22.368 7.28858 22.3464 7.54536 22.3464Z" fill="url(#paint89_linear_502_649)"/>
<path d="M4.9014 23.1926L5.24696 23.7517C5.36668 23.9453 5.33753 24.1959 5.17647 24.357L5.00022 24.5333C4.83915 24.6943 4.58856 24.7235 4.39487 24.6038L3.83584 24.2582C4.12956 23.8469 4.49003 23.4864 4.9014 23.1926Z" fill="url(#paint90_linear_502_649)"/>
<path d="M4.07031 26.7792V27.0285C4.07031 27.2562 3.91375 27.454 3.69213 27.5063L3.05237 27.6573C3.01159 27.4122 2.99003 27.1605 2.99003 26.9039C2.99003 26.6472 3.01159 26.3955 3.05237 26.1504L3.69213 26.3014C3.91375 26.3536 4.07031 26.5515 4.07031 26.7792Z" fill="url(#paint91_linear_502_649)"/>
<path d="M3.83584 29.5495L4.39487 29.204C4.58856 29.0842 4.83915 29.1134 5.00021 29.2745L5.17646 29.4507C5.33753 29.6118 5.36668 29.8624 5.24697 30.0561L4.9014 30.6151C4.49012 30.3213 4.12965 29.9609 3.83584 29.5495Z" fill="url(#paint92_linear_502_649)"/>
<path d="M7.54722 31.4614C7.29053 31.4614 7.03891 31.4398 6.79375 31.399L6.94478 30.7593C6.99709 30.5377 7.19491 30.3811 7.42262 30.3811H7.67191C7.89962 30.3811 8.09744 30.5377 8.14975 30.7593L8.30078 31.399C8.05553 31.4398 7.80391 31.4614 7.54722 31.4614Z" fill="url(#paint93_linear_502_649)"/>
<path d="M10.0934 29.2745C10.2545 29.1134 10.5051 29.0842 10.6988 29.204L11.2578 29.5495C10.964 29.9609 10.6036 30.3214 10.1922 30.6151L9.84669 30.0561C9.72697 29.8624 9.75612 29.6118 9.91719 29.4507L10.0934 29.2745Z" fill="url(#paint94_linear_502_649)"/>
<path d="M7.54536 30.2472C5.6989 30.2472 4.20205 28.7503 4.20205 26.9039C4.20205 25.0574 5.6989 23.5605 7.54536 23.5605C9.39182 23.5605 10.8887 25.0574 10.8887 26.9039C10.8887 28.7503 9.39182 30.2472 7.54536 30.2472Z" fill="url(#paint95_linear_502_649)"/>
<path d="M7.54467 30.6619C9.61692 30.6619 11.3027 28.9761 11.3027 26.9038C11.3027 24.8316 9.61692 23.1458 7.54467 23.1458C5.47242 23.1458 3.78661 24.8317 3.78661 26.9038C3.78661 28.976 5.47242 30.6619 7.54467 30.6619ZM7.54467 23.5047C9.41892 23.5047 10.9437 25.0296 10.9437 26.9037C10.9437 28.7779 9.41892 30.3027 7.54467 30.3027C5.67042 30.3027 4.14567 28.778 4.14567 26.9037C4.14567 25.0295 5.67042 23.5047 7.54467 23.5047Z" fill="url(#paint96_linear_502_649)"/>
<path d="M12.1035 26.9037C12.1035 29.4207 10.063 31.4611 7.54605 31.4611C5.02905 31.4611 2.98858 29.4207 2.98858 26.9037C2.98858 26.8838 2.98905 26.864 2.98933 26.8442H12.1027C12.103 26.864 12.1035 26.8838 12.1035 26.9037Z" fill="url(#paint97_linear_502_649)"/>
<path d="M10.7672 30.1264C8.98741 31.9061 6.10178 31.9061 4.32194 30.1264C2.5421 28.3466 2.54219 25.461 4.32194 23.6812C4.336 23.6671 4.35034 23.6535 4.3645 23.6396L10.8086 30.0837C10.7948 30.098 10.7812 30.1123 10.7672 30.1264Z" fill="url(#paint98_linear_502_649)"/>
<path d="M7.54603 31.4611C5.02903 31.4611 2.98856 29.4207 2.98856 26.9037C2.98856 24.3867 5.02903 22.3462 7.54603 22.3462C7.56591 22.3462 7.58569 22.3467 7.60547 22.3469V31.4603C7.58559 31.4607 7.56591 31.4611 7.54603 31.4611Z" fill="url(#paint99_linear_502_649)"/>
<path d="M10.7672 30.1264C8.98741 31.9061 6.10178 31.9061 4.32194 30.1264C2.5421 28.3466 2.54219 25.461 4.32194 23.6812C4.336 23.6671 4.35034 23.6535 4.3645 23.6396L10.8086 30.0837C10.7948 30.098 10.7812 30.1123 10.7672 30.1264Z" fill="url(#paint100_linear_502_649)"/>
<path d="M7.54667 29.6715C6.01807 29.6715 4.77889 28.4324 4.77889 26.9038C4.77889 25.3752 6.01807 24.136 7.54667 24.136C9.07528 24.136 10.3145 25.3752 10.3145 26.9038C10.3145 28.4324 9.07528 29.6715 7.54667 29.6715Z" fill="url(#paint101_linear_502_649)"/>
<path d="M10.3145 26.9038C10.3145 28.4324 9.07527 29.6716 7.54667 29.6716C6.01808 29.6716 4.77889 28.4324 4.77889 26.9038C4.77889 26.8303 4.7818 26.7575 4.78742 26.6855H10.3059C10.3115 26.7575 10.3145 26.8303 10.3145 26.9038Z" fill="url(#paint102_linear_502_649)"/>
<path d="M9.50403 28.8609C8.42319 29.9417 6.67072 29.9417 5.58978 28.8609C4.50885 27.7801 4.50894 26.0276 5.58978 24.9467C5.64172 24.8947 5.69525 24.8453 5.75019 24.7983L9.65234 28.7005C9.60537 28.7554 9.55597 28.809 9.50403 28.8609Z" fill="url(#paint103_linear_502_649)"/>
<path d="M8.23438 27.5913L6.40156 29.4242C5.7935 29.1474 5.30328 28.6572 5.02653 28.0491L6.85934 26.2163L8.23438 27.5913Z" fill="url(#paint104_linear_502_649)"/>
<path d="M7.54636 28.0469C6.91505 28.0469 6.40326 27.5351 6.40326 26.9038C6.40326 26.2725 6.91505 25.7607 7.54636 25.7607C8.17767 25.7607 8.68945 26.2725 8.68945 26.9038C8.68945 27.5351 8.17767 28.0469 7.54636 28.0469Z" fill="url(#paint105_linear_502_649)"/>
<path d="M7.54725 27.8762C7.01028 27.8762 6.57497 27.4409 6.57497 26.9039C6.57497 26.3669 7.01028 25.9316 7.54725 25.9316C8.08423 25.9316 8.51953 26.3669 8.51953 26.9039C8.51953 27.4409 8.08423 27.8762 7.54725 27.8762Z" fill="url(#paint106_linear_502_649)"/>
<path d="M8.51953 26.9038C8.51953 27.4408 8.08425 27.8761 7.54725 27.8761C7.01025 27.8761 6.57497 27.4408 6.57497 26.9038C6.57497 26.8781 6.576 26.8525 6.57797 26.8271H8.51653C8.5185 26.8525 8.51953 26.878 8.51953 26.9038Z" fill="url(#paint107_linear_502_649)"/>
<path d="M8.23303 27.5912C7.85334 27.9709 7.23769 27.9709 6.858 27.5912C6.47831 27.2115 6.47831 26.5959 6.858 26.2162C6.87628 26.1979 6.89503 26.1806 6.91435 26.1641L8.28516 27.5349C8.26866 27.5542 8.25131 27.5729 8.23303 27.5912Z" fill="url(#paint108_linear_502_649)"/>
<path d="M6.33014 26.3779C6.23329 26.6014 5.99292 26.726 5.75498 26.6736L5.34932 26.5843C5.19107 26.5494 5.09498 26.3888 5.13839 26.2326C5.25295 25.8204 5.47045 25.4511 5.76154 25.1545C5.8747 25.0392 6.06182 25.0429 6.17076 25.1622L6.4507 25.4688C6.61626 25.6501 6.62479 25.9213 6.4791 26.1189C6.42023 26.1989 6.37017 26.2857 6.33014 26.3779Z" fill="url(#paint109_linear_502_649)"/>
<path d="M5.34923 27.2233L5.75489 27.134C5.99282 27.0816 6.2332 27.2062 6.33004 27.4297C6.36998 27.522 6.42014 27.6087 6.4791 27.6887C6.62479 27.8863 6.61626 28.1575 6.4507 28.3388L6.17076 28.6454C6.06182 28.7647 5.8747 28.7684 5.76154 28.6531C5.47045 28.3565 5.25295 27.9872 5.13839 27.575C5.09498 27.4188 5.19107 27.2581 5.34923 27.2233Z" fill="url(#paint110_linear_502_649)"/>
<path d="M6.85061 28.5694C6.92467 28.3358 7.15464 28.1924 7.3982 28.2196C7.44686 28.225 7.49636 28.2279 7.54651 28.2279C7.59648 28.2279 7.64589 28.225 7.69445 28.2197C7.93801 28.1925 8.16798 28.3359 8.24204 28.5695L8.36757 28.9656C8.41642 29.1196 8.32614 29.2836 8.16967 29.3238C7.97045 29.3751 7.76158 29.4023 7.54642 29.4023C7.33108 29.4023 7.1222 29.3751 6.92289 29.3238C6.76642 29.2836 6.67614 29.1196 6.72498 28.9656L6.85061 28.5694Z" fill="url(#paint111_linear_502_649)"/>
<path d="M8.76051 27.4297C8.85736 27.2062 9.09773 27.0816 9.33558 27.134L9.74151 27.2233C9.89976 27.2581 9.99586 27.4189 9.95245 27.575C9.83779 27.9872 9.6202 28.3565 9.32901 28.6531C9.21586 28.7684 9.02883 28.7647 8.91979 28.6454L8.63985 28.3388C8.47429 28.1575 8.46576 27.8863 8.61145 27.6887C8.67042 27.6087 8.72058 27.5219 8.76051 27.4297Z" fill="url(#paint112_linear_502_649)"/>
<path d="M8.91979 25.1622C9.02873 25.0429 9.21586 25.0392 9.32901 25.1545C9.6202 25.4511 9.83789 25.8204 9.95245 26.2326C9.99586 26.3887 9.89976 26.5494 9.74151 26.5843L9.33557 26.6736C9.09773 26.726 8.85726 26.6014 8.76051 26.3779C8.72058 26.2856 8.67042 26.1989 8.61145 26.1189C8.46576 25.9213 8.47429 25.6501 8.63985 25.4688L8.91979 25.1622Z" fill="url(#paint113_linear_502_649)"/>
<path d="M6.92289 24.484C7.1222 24.4327 7.33107 24.4055 7.54642 24.4055C7.76157 24.4055 7.97036 24.4327 8.16967 24.484C8.32614 24.5242 8.41642 24.6882 8.36757 24.8422L8.24204 25.2383C8.16798 25.4719 7.93801 25.6153 7.69445 25.5881C7.64589 25.5826 7.59648 25.5799 7.54651 25.5799C7.49636 25.5799 7.44686 25.5827 7.3982 25.5882C7.15464 25.6154 6.92467 25.4719 6.85061 25.2384L6.72507 24.8423C6.67614 24.6882 6.76642 24.5242 6.92289 24.484Z" fill="url(#paint114_linear_502_649)"/>
<path d="M6.33014 26.3779C6.23329 26.6014 5.99292 26.726 5.75498 26.6736L5.34932 26.5843C5.19107 26.5494 5.09498 26.3888 5.13839 26.2326C5.25295 25.8204 5.47045 25.4511 5.76154 25.1545C5.8747 25.0392 6.06182 25.0429 6.17076 25.1622L6.4507 25.4688C6.61626 25.6501 6.62479 25.9213 6.4791 26.1189C6.42023 26.1989 6.37017 26.2857 6.33014 26.3779Z" fill="url(#paint115_linear_502_649)"/>
<path d="M5.34923 27.2233L5.75489 27.134C5.99282 27.0816 6.2332 27.2062 6.33004 27.4297C6.36998 27.522 6.42014 27.6087 6.4791 27.6887C6.62479 27.8863 6.61626 28.1575 6.4507 28.3388L6.17076 28.6454C6.06182 28.7647 5.8747 28.7684 5.76154 28.6531C5.47045 28.3565 5.25295 27.9872 5.13839 27.575C5.09498 27.4188 5.19107 27.2581 5.34923 27.2233Z" fill="url(#paint116_linear_502_649)"/>
<path d="M6.85061 28.5694C6.92467 28.3358 7.15464 28.1924 7.3982 28.2196C7.44686 28.225 7.49636 28.2279 7.54651 28.2279C7.59648 28.2279 7.64589 28.225 7.69445 28.2197C7.93801 28.1925 8.16798 28.3359 8.24204 28.5695L8.36757 28.9656C8.41642 29.1196 8.32614 29.2836 8.16967 29.3238C7.97045 29.3751 7.76158 29.4023 7.54642 29.4023C7.33108 29.4023 7.1222 29.3751 6.92289 29.3238C6.76642 29.2836 6.67614 29.1196 6.72498 28.9656L6.85061 28.5694Z" fill="url(#paint117_linear_502_649)"/>
<path d="M8.76051 27.4297C8.85736 27.2062 9.09773 27.0816 9.33558 27.134L9.74151 27.2233C9.89976 27.2581 9.99586 27.4189 9.95245 27.575C9.83779 27.9872 9.6202 28.3565 9.32901 28.6531C9.21586 28.7684 9.02883 28.7647 8.91979 28.6454L8.63985 28.3388C8.47429 28.1575 8.46576 27.8863 8.61145 27.6887C8.67042 27.6087 8.72058 27.5219 8.76051 27.4297Z" fill="url(#paint118_linear_502_649)"/>
<path d="M8.91979 25.1622C9.02873 25.0429 9.21586 25.0392 9.32901 25.1545C9.6202 25.4511 9.83789 25.8204 9.95245 26.2326C9.99586 26.3887 9.89976 26.5494 9.74151 26.5843L9.33557 26.6736C9.09773 26.726 8.85726 26.6014 8.76051 26.3779C8.72058 26.2856 8.67042 26.1989 8.61145 26.1189C8.46576 25.9213 8.47429 25.6501 8.63985 25.4688L8.91979 25.1622Z" fill="url(#paint119_linear_502_649)"/>
<path d="M6.92289 24.484C7.1222 24.4327 7.33107 24.4055 7.54642 24.4055C7.76157 24.4055 7.97036 24.4327 8.16967 24.484C8.32614 24.5242 8.41642 24.6882 8.36757 24.8422L8.24204 25.2383C8.16798 25.4719 7.93801 25.6153 7.69445 25.5881C7.64589 25.5826 7.59648 25.5799 7.54651 25.5799C7.49636 25.5799 7.44686 25.5827 7.3982 25.5882C7.15464 25.6154 6.92467 25.4719 6.85061 25.2384L6.72507 24.8423C6.67614 24.6882 6.76642 24.5242 6.92289 24.484Z" fill="url(#paint120_linear_502_649)"/>
<path d="M6.33014 26.3779C6.23329 26.6014 5.99292 26.726 5.75498 26.6736L5.34932 26.5843C5.19107 26.5494 5.09498 26.3888 5.13839 26.2326C5.25295 25.8204 5.47045 25.4511 5.76154 25.1545C5.8747 25.0392 6.06182 25.0429 6.17076 25.1622L6.4507 25.4688C6.61626 25.6501 6.62479 25.9213 6.4791 26.1189C6.42023 26.1989 6.37017 26.2857 6.33014 26.3779Z" fill="url(#paint121_linear_502_649)"/>
<path d="M5.34923 27.2233L5.75489 27.134C5.99282 27.0816 6.2332 27.2062 6.33004 27.4297C6.36998 27.522 6.42014 27.6087 6.4791 27.6887C6.62479 27.8863 6.61626 28.1575 6.4507 28.3388L6.17076 28.6454C6.06182 28.7647 5.8747 28.7684 5.76154 28.6531C5.47045 28.3565 5.25295 27.9872 5.13839 27.575C5.09498 27.4188 5.19107 27.2581 5.34923 27.2233Z" fill="url(#paint122_linear_502_649)"/>
<path d="M6.85061 28.5694C6.92467 28.3358 7.15464 28.1924 7.3982 28.2196C7.44686 28.225 7.49636 28.2279 7.54651 28.2279C7.59648 28.2279 7.64589 28.225 7.69445 28.2197C7.93801 28.1925 8.16798 28.3359 8.24204 28.5695L8.36757 28.9656C8.41642 29.1196 8.32614 29.2836 8.16967 29.3238C7.97045 29.3751 7.76158 29.4023 7.54642 29.4023C7.33108 29.4023 7.1222 29.3751 6.92289 29.3238C6.76642 29.2836 6.67614 29.1196 6.72498 28.9656L6.85061 28.5694Z" fill="url(#paint123_linear_502_649)"/>
<path d="M8.76051 27.4297C8.85736 27.2062 9.09773 27.0816 9.33558 27.134L9.74151 27.2233C9.89976 27.2581 9.99586 27.4189 9.95245 27.575C9.83779 27.9872 9.6202 28.3565 9.32901 28.6531C9.21586 28.7684 9.02883 28.7647 8.91979 28.6454L8.63985 28.3388C8.47429 28.1575 8.46576 27.8863 8.61145 27.6887C8.67042 27.6087 8.72058 27.5219 8.76051 27.4297Z" fill="url(#paint124_linear_502_649)"/>
<path d="M8.91979 25.1622C9.02873 25.0429 9.21586 25.0392 9.32901 25.1545C9.6202 25.4511 9.83789 25.8204 9.95245 26.2326C9.99586 26.3887 9.89976 26.5494 9.74151 26.5843L9.33557 26.6736C9.09773 26.726 8.85726 26.6014 8.76051 26.3779C8.72058 26.2856 8.67042 26.1989 8.61145 26.1189C8.46576 25.9213 8.47429 25.6501 8.63985 25.4688L8.91979 25.1622Z" fill="url(#paint125_linear_502_649)"/>
<path d="M6.92289 24.484C7.1222 24.4327 7.33107 24.4055 7.54642 24.4055C7.76157 24.4055 7.97036 24.4327 8.16967 24.484C8.32614 24.5242 8.41642 24.6882 8.36757 24.8422L8.24204 25.2383C8.16798 25.4719 7.93801 25.6153 7.69445 25.5881C7.64589 25.5826 7.59648 25.5799 7.54651 25.5799C7.49636 25.5799 7.44686 25.5827 7.3982 25.5882C7.15464 25.6154 6.92467 25.4719 6.85061 25.2384L6.72507 24.8423C6.67614 24.6882 6.76642 24.5242 6.92289 24.484Z" fill="url(#paint126_linear_502_649)"/>
</g>
<defs>
<linearGradient id="paint0_linear_502_649" x1="23.5844" y1="24.0435" x2="23.5844" y2="25.9355" gradientUnits="userSpaceOnUse">
<stop stop-color="#5A5A5A"/>
<stop offset="1" stop-color="#444444"/>
</linearGradient>
<linearGradient id="paint1_linear_502_649" x1="23.5844" y1="24.0115" x2="23.5844" y2="25.7265" gradientUnits="userSpaceOnUse">
<stop stop-color="#433F43" stop-opacity="0"/>
<stop offset="0.4114" stop-color="#373537" stop-opacity="0.269"/>
<stop offset="1" stop-color="#1A1A1A"/>
</linearGradient>
<linearGradient id="paint2_linear_502_649" x1="22.9287" y1="23.6709" x2="23.5046" y2="25.3027" gradientUnits="userSpaceOnUse">
<stop stop-color="#433F43" stop-opacity="0"/>
<stop offset="0.4114" stop-color="#373537" stop-opacity="0.269"/>
<stop offset="1" stop-color="#1A1A1A"/>
</linearGradient>
<linearGradient id="paint3_linear_502_649" x1="22.5947" y1="25.2034" x2="21.3788" y2="26.3233" gradientUnits="userSpaceOnUse">
<stop stop-color="#433F43" stop-opacity="0"/>
<stop offset="0.4114" stop-color="#373537" stop-opacity="0.269"/>
<stop offset="1" stop-color="#1A1A1A"/>
</linearGradient>
<linearGradient id="paint4_linear_502_649" x1="32.8691" y1="23.7783" x2="33.189" y2="30.1775" gradientUnits="userSpaceOnUse">
<stop stop-color="#FE0364"/>
<stop offset="0.2057" stop-color="#F3075E"/>
<stop offset="0.563" stop-color="#D7134F"/>
<stop offset="1" stop-color="#AC2538"/>
</linearGradient>
<linearGradient id="paint5_linear_502_649" x1="41.516" y1="25.9951" x2="41.516" y2="28.2349" gradientUnits="userSpaceOnUse">
<stop stop-color="#972437" stop-opacity="0"/>
<stop offset="0.229" stop-color="#902333" stop-opacity="0.072"/>
<stop offset="0.4928" stop-color="#7E232A" stop-opacity="0.283"/>
<stop offset="0.7726" stop-color="#61221B" stop-opacity="0.632"/>
<stop offset="1" stop-color="#42210B"/>
</linearGradient>
<linearGradient id="paint6_linear_502_649" x1="42.9259" y1="26.611" x2="42.5899" y2="27.4589" gradientUnits="userSpaceOnUse">
<stop stop-color="#EAF6FF"/>
<stop offset="1" stop-color="#B3DAFE"/>
</linearGradient>
<linearGradient id="paint7_linear_502_649" x1="43.7916" y1="28.5787" x2="41.1955" y2="28.5787" gradientUnits="userSpaceOnUse">
<stop stop-color="#FE0364"/>
<stop offset="0.2057" stop-color="#F3075E"/>
<stop offset="0.563" stop-color="#D7134F"/>
<stop offset="1" stop-color="#AC2538"/>
</linearGradient>
<linearGradient id="paint8_linear_502_649" x1="42.6992" y1="28.3365" x2="42.6992" y2="30.1105" gradientUnits="userSpaceOnUse">
<stop stop-color="#972437" stop-opacity="0"/>
<stop offset="0.229" stop-color="#902333" stop-opacity="0.072"/>
<stop offset="0.4928" stop-color="#7E232A" stop-opacity="0.283"/>
<stop offset="0.7726" stop-color="#61221B" stop-opacity="0.632"/>
<stop offset="1" stop-color="#42210B"/>
</linearGradient>
<linearGradient id="paint9_linear_502_649" x1="40.4777" y1="28.3033" x2="38.9883" y2="27.8955" gradientUnits="userSpaceOnUse">
<stop stop-color="#972437" stop-opacity="0"/>
<stop offset="0.229" stop-color="#902333" stop-opacity="0.072"/>
<stop offset="0.4928" stop-color="#7E232A" stop-opacity="0.283"/>
<stop offset="0.7726" stop-color="#61221B" stop-opacity="0.632"/>
<stop offset="1" stop-color="#42210B"/>
</linearGradient>
<linearGradient id="paint10_linear_502_649" x1="4.92834" y1="28.5787" x2="2.33222" y2="28.5787" gradientUnits="userSpaceOnUse">
<stop stop-color="#FE0364"/>
<stop offset="0.2057" stop-color="#F3075E"/>
<stop offset="0.563" stop-color="#D7134F"/>
<stop offset="1" stop-color="#AC2538"/>
</linearGradient>
<linearGradient id="paint11_linear_502_649" x1="3.83597" y1="28.3365" x2="3.83597" y2="30.1105" gradientUnits="userSpaceOnUse">
<stop stop-color="#972437" stop-opacity="0"/>
<stop offset="0.229" stop-color="#902333" stop-opacity="0.072"/>
<stop offset="0.4928" stop-color="#7E232A" stop-opacity="0.283"/>
<stop offset="0.7726" stop-color="#61221B" stop-opacity="0.632"/>
<stop offset="1" stop-color="#42210B"/>
</linearGradient>
<linearGradient id="paint12_linear_502_649" x1="1.61439" y1="28.3033" x2="0.124986" y2="27.8955" gradientUnits="userSpaceOnUse">
<stop stop-color="#972437" stop-opacity="0"/>
<stop offset="0.229" stop-color="#902333" stop-opacity="0.072"/>
<stop offset="0.4928" stop-color="#7E232A" stop-opacity="0.283"/>
<stop offset="0.7726" stop-color="#61221B" stop-opacity="0.632"/>
<stop offset="1" stop-color="#42210B"/>
</linearGradient>
<linearGradient id="paint13_linear_502_649" x1="28.1165" y1="26.2369" x2="30.5055" y2="26.8342" gradientUnits="userSpaceOnUse">
<stop stop-color="#972437" stop-opacity="0"/>
<stop offset="0.229" stop-color="#902333" stop-opacity="0.072"/>
<stop offset="0.4928" stop-color="#7E232A" stop-opacity="0.283"/>
<stop offset="0.7726" stop-color="#61221B" stop-opacity="0.632"/>
<stop offset="1" stop-color="#42210B"/>
</linearGradient>
<linearGradient id="paint14_linear_502_649" x1="25.5429" y1="28.3842" x2="25.5429" y2="30.2231" gradientUnits="userSpaceOnUse">
<stop stop-color="#972437" stop-opacity="0"/>
<stop offset="0.229" stop-color="#902333" stop-opacity="0.072"/>
<stop offset="0.4928" stop-color="#7E232A" stop-opacity="0.283"/>
<stop offset="0.7726" stop-color="#61221B" stop-opacity="0.632"/>
<stop offset="1" stop-color="#42210B"/>
</linearGradient>
<linearGradient id="paint15_linear_502_649" x1="23.0894" y1="27.4422" x2="20.2899" y2="27.4422" gradientUnits="userSpaceOnUse">
<stop stop-color="#972437" stop-opacity="0"/>
<stop offset="0.229" stop-color="#902333" stop-opacity="0.072"/>
<stop offset="0.4928" stop-color="#7E232A" stop-opacity="0.283"/>
<stop offset="0.7726" stop-color="#61221B" stop-opacity="0.632"/>
<stop offset="1" stop-color="#42210B"/>
</linearGradient>
<linearGradient id="paint16_linear_502_649" x1="16.9828" y1="19.2261" x2="13.8472" y2="24.3455" gradientUnits="userSpaceOnUse">
<stop stop-color="#FE0364"/>
<stop offset="0.2057" stop-color="#F3075E"/>
<stop offset="0.563" stop-color="#D7134F"/>
<stop offset="1" stop-color="#AC2538"/>
</linearGradient>
<linearGradient id="paint17_linear_502_649" x1="18.2104" y1="21.6783" x2="15.9067" y2="21.1664" gradientUnits="userSpaceOnUse">
<stop stop-color="#FE0364"/>
<stop offset="0.2057" stop-color="#F3075E"/>
<stop offset="0.563" stop-color="#D7134F"/>
<stop offset="1" stop-color="#AC2538"/>
</linearGradient>
<linearGradient id="paint18_linear_502_649" x1="12.9353" y1="22.8641" x2="11.3994" y2="24.5918" gradientUnits="userSpaceOnUse">
<stop stop-color="#972437" stop-opacity="0"/>
<stop offset="0.229" stop-color="#902333" stop-opacity="0.072"/>
<stop offset="0.4928" stop-color="#7E232A" stop-opacity="0.283"/>
<stop offset="0.7726" stop-color="#61221B" stop-opacity="0.632"/>
<stop offset="1" stop-color="#42210B"/>
</linearGradient>
<linearGradient id="paint19_linear_502_649" x1="13.3635" y1="22.4757" x2="13.3635" y2="24.7874" gradientUnits="userSpaceOnUse">
<stop stop-color="#972437" stop-opacity="0"/>
<stop offset="0.229" stop-color="#902333" stop-opacity="0.072"/>
<stop offset="0.4928" stop-color="#7E232A" stop-opacity="0.283"/>
<stop offset="0.7726" stop-color="#61221B" stop-opacity="0.632"/>
<stop offset="1" stop-color="#42210B"/>
</linearGradient>
<linearGradient id="paint20_linear_502_649" x1="12.5133" y1="24.4594" x2="12.5133" y2="29.3867" gradientUnits="userSpaceOnUse">
<stop stop-color="#FE0364"/>
<stop offset="0.2057" stop-color="#F3075E"/>
<stop offset="0.563" stop-color="#D7134F"/>
<stop offset="1" stop-color="#AC2538"/>
</linearGradient>
<linearGradient id="paint21_linear_502_649" x1="12.1454" y1="26.635" x2="12.1454" y2="25.4827" gradientUnits="userSpaceOnUse">
<stop stop-color="#FE0364"/>
<stop offset="0.2057" stop-color="#F3075E"/>
<stop offset="0.563" stop-color="#D7134F"/>
<stop offset="1" stop-color="#AC2538"/>
</linearGradient>
<linearGradient id="paint22_linear_502_649" x1="12.1454" y1="28.5283" x2="12.1454" y2="27.376" gradientUnits="userSpaceOnUse">
<stop stop-color="#FE0364"/>
<stop offset="0.2057" stop-color="#F3075E"/>
<stop offset="0.563" stop-color="#D7134F"/>
<stop offset="1" stop-color="#AC2538"/>
</linearGradient>
<linearGradient id="paint23_linear_502_649" x1="12.5133" y1="28.8961" x2="12.5133" y2="30.3466" gradientUnits="userSpaceOnUse">
<stop stop-color="#972437" stop-opacity="0"/>
<stop offset="0.229" stop-color="#902333" stop-opacity="0.072"/>
<stop offset="0.4928" stop-color="#7E232A" stop-opacity="0.283"/>
<stop offset="0.7726" stop-color="#61221B" stop-opacity="0.632"/>
<stop offset="1" stop-color="#42210B"/>
</linearGradient>
<linearGradient id="paint24_linear_502_649" x1="13.6264" y1="27.035" x2="11.1947" y2="27.2482" gradientUnits="userSpaceOnUse">
<stop stop-color="#972437" stop-opacity="0"/>
<stop offset="0.229" stop-color="#902333" stop-opacity="0.072"/>
<stop offset="0.4928" stop-color="#7E232A" stop-opacity="0.283"/>
<stop offset="0.7726" stop-color="#61221B" stop-opacity="0.632"/>
<stop offset="1" stop-color="#42210B"/>
</linearGradient>
<linearGradient id="paint25_linear_502_649" x1="17.2312" y1="25.129" x2="15.3069" y2="27.0532" gradientUnits="userSpaceOnUse">
<stop stop-color="#FEE45A"/>
<stop offset="1" stop-color="#FEA613"/>
</linearGradient>
<linearGradient id="paint26_linear_502_649" x1="16.03" y1="26.3303" x2="17.596" y2="24.7644" gradientUnits="userSpaceOnUse">
<stop stop-color="#FEE45A"/>
<stop offset="1" stop-color="#FEA613"/>
</linearGradient>
<linearGradient id="paint27_linear_502_649" x1="16.306" y1="26.65" x2="16.306" y2="27.7911" gradientUnits="userSpaceOnUse">
<stop stop-color="#FEA613" stop-opacity="0"/>
<stop offset="0.102" stop-color="#FDA314" stop-opacity="0.024"/>
<stop offset="0.2333" stop-color="#FC9C17" stop-opacity="0.093"/>
<stop offset="0.3805" stop-color="#F9911D" stop-opacity="0.207"/>
<stop offset="0.5394" stop-color="#F68224" stop-opacity="0.365"/>
<stop offset="0.7077" stop-color="#F26E2E" stop-opacity="0.569"/>
<stop offset="0.8811" stop-color="#EC563A" stop-opacity="0.813"/>
<stop offset="1" stop-color="#E94444"/>
</linearGradient>
<linearGradient id="paint28_linear_502_649" x1="15.7942" y1="26.4287" x2="14.9293" y2="27.0566" gradientUnits="userSpaceOnUse">
<stop stop-color="#FEA613" stop-opacity="0"/>
<stop offset="0.102" stop-color="#FDA314" stop-opacity="0.024"/>
<stop offset="0.2333" stop-color="#FC9C17" stop-opacity="0.093"/>
<stop offset="0.3805" stop-color="#F9911D" stop-opacity="0.207"/>
<stop offset="0.5394" stop-color="#F68224" stop-opacity="0.365"/>
<stop offset="0.7077" stop-color="#F26E2E" stop-opacity="0.569"/>
<stop offset="0.8811" stop-color="#EC563A" stop-opacity="0.813"/>
<stop offset="1" stop-color="#E94444"/>
</linearGradient>
<linearGradient id="paint29_linear_502_649" x1="16.5912" y1="27.9509" x2="16.0269" y2="29.4965" gradientUnits="userSpaceOnUse">
<stop stop-color="#EAF6FF"/>
<stop offset="1" stop-color="#B3DAFE"/>
</linearGradient>
<linearGradient id="paint30_linear_502_649" x1="6.61658" y1="17.9473" x2="3.2037" y2="24.3465" gradientUnits="userSpaceOnUse">
<stop stop-color="#FE0364"/>
<stop offset="0.2057" stop-color="#F3075E"/>
<stop offset="0.563" stop-color="#D7134F"/>
<stop offset="1" stop-color="#AC2538"/>
</linearGradient>
<linearGradient id="paint31_linear_502_649" x1="2.51867" y1="18.7178" x2="4.01183" y2="20.8082" gradientUnits="userSpaceOnUse">
<stop stop-color="#FE0364"/>
<stop offset="0.2057" stop-color="#F3075E"/>
<stop offset="0.563" stop-color="#D7134F"/>
<stop offset="1" stop-color="#AC2538"/>
</linearGradient>
<linearGradient id="paint32_linear_502_649" x1="4.44898" y1="22.4968" x2="4.44898" y2="24.3332" gradientUnits="userSpaceOnUse">
<stop stop-color="#972437" stop-opacity="0"/>
<stop offset="0.229" stop-color="#902333" stop-opacity="0.072"/>
<stop offset="0.4928" stop-color="#7E232A" stop-opacity="0.283"/>
<stop offset="0.7726" stop-color="#61221B" stop-opacity="0.632"/>
<stop offset="1" stop-color="#42210B"/>
</linearGradient>
<linearGradient id="paint33_linear_502_649" x1="1.42625" y1="20.5591" x2="-0.138344" y2="20.5591" gradientUnits="userSpaceOnUse">
<stop stop-color="#972437" stop-opacity="0"/>
<stop offset="0.229" stop-color="#902333" stop-opacity="0.072"/>
<stop offset="0.4928" stop-color="#7E232A" stop-opacity="0.283"/>
<stop offset="0.7726" stop-color="#61221B" stop-opacity="0.632"/>
<stop offset="1" stop-color="#42210B"/>
</linearGradient>
<linearGradient id="paint34_linear_502_649" x1="5.41711" y1="19.025" x2="4.52123" y2="19.8568" gradientUnits="userSpaceOnUse">
<stop stop-color="#7BACDF" stop-opacity="0"/>
<stop offset="0.1269" stop-color="#7BACDF" stop-opacity="0.019"/>
<stop offset="0.2606" stop-color="#7BACDF" stop-opacity="0.076"/>
<stop offset="0.3974" stop-color="#7BACDF" stop-opacity="0.17"/>
<stop offset="0.5365" stop-color="#7BACDF" stop-opacity="0.303"/>
<stop offset="0.6772" stop-color="#7BACDF" stop-opacity="0.474"/>
<stop offset="0.8194" stop-color="#7BACDF" stop-opacity="0.683"/>
<stop offset="0.9602" stop-color="#7BACDF" stop-opacity="0.925"/>
<stop offset="1" stop-color="#7BACDF"/>
</linearGradient>
<linearGradient id="paint35_linear_502_649" x1="36.6826" y1="24.2593" x2="31.7147" y2="29.2272" gradientUnits="userSpaceOnUse">
<stop stop-color="#5A5A5A"/>
<stop offset="1" stop-color="#444444"/>
</linearGradient>
<linearGradient id="paint36_linear_502_649" x1="30.7413" y1="24.5185" x2="31.8605" y2="23.3993" gradientUnits="userSpaceOnUse">
<stop stop-color="#5A5A5A"/>
<stop offset="1" stop-color="#444444"/>
</linearGradient>
<linearGradient id="paint37_linear_502_649" x1="29.4163" y1="27.3261" x2="30.4644" y2="26.2781" gradientUnits="userSpaceOnUse">
<stop stop-color="#5A5A5A"/>
<stop offset="1" stop-color="#444444"/>
</linearGradient>
<linearGradient id="paint38_linear_502_649" x1="30.7126" y1="30.2283" x2="31.6905" y2="29.2504" gradientUnits="userSpaceOnUse">
<stop stop-color="#5A5A5A"/>
<stop offset="1" stop-color="#444444"/>
</linearGradient>
<linearGradient id="paint39_linear_502_649" x1="33.7183" y1="31.4218" x2="34.582" y2="30.558" gradientUnits="userSpaceOnUse">
<stop stop-color="#5A5A5A"/>
<stop offset="1" stop-color="#444444"/>
</linearGradient>
<linearGradient id="paint40_linear_502_649" x1="36.5829" y1="30.0407" x2="37.3717" y2="29.2519" gradientUnits="userSpaceOnUse">
<stop stop-color="#5A5A5A"/>
<stop offset="1" stop-color="#444444"/>
</linearGradient>
<linearGradient id="paint41_linear_502_649" x1="37.717" y1="27.4238" x2="38.5935" y2="26.5472" gradientUnits="userSpaceOnUse">
<stop stop-color="#5A5A5A"/>
<stop offset="1" stop-color="#444444"/>
</linearGradient>
<linearGradient id="paint42_linear_502_649" x1="36.5957" y1="24.3467" x2="37.4839" y2="23.4584" gradientUnits="userSpaceOnUse">
<stop stop-color="#5A5A5A"/>
<stop offset="1" stop-color="#444444"/>
</linearGradient>
<linearGradient id="paint43_linear_502_649" x1="33.589" y1="23.1534" x2="34.5523" y2="22.1901" gradientUnits="userSpaceOnUse">
<stop stop-color="#5A5A5A"/>
<stop offset="1" stop-color="#444444"/>
</linearGradient>
<linearGradient id="paint44_linear_502_649" x1="30.7413" y1="24.5187" x2="31.8605" y2="23.3995" gradientUnits="userSpaceOnUse">
<stop stop-color="#433F43" stop-opacity="0"/>
<stop offset="0.4114" stop-color="#373537" stop-opacity="0.269"/>
<stop offset="1" stop-color="#1A1A1A"/>
</linearGradient>
<linearGradient id="paint45_linear_502_649" x1="29.4163" y1="27.3263" x2="30.4644" y2="26.2784" gradientUnits="userSpaceOnUse">
<stop stop-color="#433F43" stop-opacity="0"/>
<stop offset="0.4114" stop-color="#373537" stop-opacity="0.269"/>
<stop offset="1" stop-color="#1A1A1A"/>
</linearGradient>
<linearGradient id="paint46_linear_502_649" x1="30.7126" y1="30.2286" x2="31.6905" y2="29.2506" gradientUnits="userSpaceOnUse">
<stop stop-color="#433F43" stop-opacity="0"/>
<stop offset="0.4114" stop-color="#373537" stop-opacity="0.269"/>
<stop offset="1" stop-color="#1A1A1A"/>
</linearGradient>
<linearGradient id="paint47_linear_502_649" x1="33.7183" y1="31.422" x2="34.582" y2="30.5582" gradientUnits="userSpaceOnUse">
<stop stop-color="#433F43" stop-opacity="0"/>
<stop offset="0.4114" stop-color="#373537" stop-opacity="0.269"/>
<stop offset="1" stop-color="#1A1A1A"/>
</linearGradient>
<linearGradient id="paint48_linear_502_649" x1="36.7521" y1="29.8527" x2="37.7377" y2="29.1056" gradientUnits="userSpaceOnUse">
<stop stop-color="#433F43" stop-opacity="0"/>
<stop offset="0.4114" stop-color="#373537" stop-opacity="0.269"/>
<stop offset="1" stop-color="#1A1A1A"/>
</linearGradient>
<linearGradient id="paint49_linear_502_649" x1="30.871" y1="26.9039" x2="37.8204" y2="26.9039" gradientUnits="userSpaceOnUse">
<stop stop-color="#5A5A5A"/>
<stop offset="1" stop-color="#444444"/>
</linearGradient>
<linearGradient id="paint50_linear_502_649" x1="36.9681" y1="23.9745" x2="30.6072" y2="30.3353" gradientUnits="userSpaceOnUse">
<stop stop-color="#EAF6FF"/>
<stop offset="1" stop-color="#B3DAFE"/>
</linearGradient>
<linearGradient id="paint51_linear_502_649" x1="34.0382" y1="28.5012" x2="34.0382" y2="31.4265" gradientUnits="userSpaceOnUse">
<stop stop-color="#433F43" stop-opacity="0"/>
<stop offset="0.4114" stop-color="#373537" stop-opacity="0.269"/>
<stop offset="1" stop-color="#1A1A1A"/>
</linearGradient>
<linearGradient id="paint52_linear_502_649" x1="32.893" y1="28.0118" x2="30.8248" y2="30.08" gradientUnits="userSpaceOnUse">
<stop stop-color="#433F43" stop-opacity="0"/>
<stop offset="0.4114" stop-color="#373537" stop-opacity="0.269"/>
<stop offset="1" stop-color="#1A1A1A"/>
</linearGradient>
<linearGradient id="paint53_linear_502_649" x1="32.4406" y1="26.9037" x2="29.5153" y2="26.9037" gradientUnits="userSpaceOnUse">
<stop stop-color="#433F43" stop-opacity="0"/>
<stop offset="0.4114" stop-color="#373537" stop-opacity="0.269"/>
<stop offset="1" stop-color="#1A1A1A"/>
</linearGradient>
<linearGradient id="paint54_linear_502_649" x1="31.2028" y1="29.7397" x2="30.6475" y2="30.295" gradientUnits="userSpaceOnUse">
<stop stop-color="#5A5A5A" stop-opacity="0"/>
<stop offset="0.2334" stop-color="#5A5A5A" stop-opacity="0.039"/>
<stop offset="0.4377" stop-color="#5A5A5A" stop-opacity="0.157"/>
<stop offset="0.6311" stop-color="#5A5A5A" stop-opacity="0.357"/>
<stop offset="0.8167" stop-color="#5A5A5A" stop-opacity="0.636"/>
<stop offset="0.9971" stop-color="#5A5A5A" stop-opacity="0.993"/>
<stop offset="1" stop-color="#5A5A5A"/>
</linearGradient>
<linearGradient id="paint55_linear_502_649" x1="35.5946" y1="25.35" x2="32.1285" y2="28.8161" gradientUnits="userSpaceOnUse">
<stop stop-color="#E1D3CE"/>
<stop offset="1" stop-color="#9E9797"/>
</linearGradient>
<linearGradient id="paint56_linear_502_649" x1="34.0408" y1="27.8575" x2="34.0408" y2="29.6841" gradientUnits="userSpaceOnUse">
<stop stop-color="#433F43" stop-opacity="0"/>
<stop offset="0.4114" stop-color="#373537" stop-opacity="0.269"/>
<stop offset="1" stop-color="#1A1A1A"/>
</linearGradient>
<linearGradient id="paint57_linear_502_649" x1="33.2223" y1="27.5036" x2="31.8378" y2="28.5087" gradientUnits="userSpaceOnUse">
<stop stop-color="#433F43" stop-opacity="0"/>
<stop offset="0.4114" stop-color="#373537" stop-opacity="0.269"/>
<stop offset="1" stop-color="#1A1A1A"/>
</linearGradient>
<linearGradient id="paint58_linear_502_649" x1="33.2103" y1="27.7325" x2="34.2259" y2="26.7169" gradientUnits="userSpaceOnUse">
<stop stop-color="#433F43" stop-opacity="0"/>
<stop offset="0.4114" stop-color="#373537" stop-opacity="0.269"/>
<stop offset="1" stop-color="#1A1A1A"/>
</linearGradient>
<linearGradient id="paint59_linear_502_649" x1="33.3868" y1="27.5556" x2="34.8381" y2="26.1042" gradientUnits="userSpaceOnUse">
<stop stop-color="#E1D3CE"/>
<stop offset="1" stop-color="#9E9797"/>
</linearGradient>
<linearGradient id="paint60_linear_502_649" x1="34.4761" y1="26.4672" x2="33.4992" y2="27.4441" gradientUnits="userSpaceOnUse">
<stop stop-color="#E1D3CE"/>
<stop offset="1" stop-color="#9E9797"/>
</linearGradient>
<linearGradient id="paint61_linear_502_649" x1="34.0394" y1="27.2659" x2="34.0394" y2="27.8658" gradientUnits="userSpaceOnUse">
<stop stop-color="#433F43" stop-opacity="0"/>
<stop offset="0.4114" stop-color="#373537" stop-opacity="0.269"/>
<stop offset="1" stop-color="#1A1A1A"/>
</linearGradient>
<linearGradient id="paint62_linear_502_649" x1="33.9166" y1="26.9889" x2="33.1936" y2="27.4735" gradientUnits="userSpaceOnUse">
<stop stop-color="#433F43" stop-opacity="0"/>
<stop offset="0.4114" stop-color="#373537" stop-opacity="0.269"/>
<stop offset="1" stop-color="#1A1A1A"/>
</linearGradient>
<linearGradient id="paint63_linear_502_649" x1="34.1432" y1="24.1884" x2="31.3339" y2="26.9977" gradientUnits="userSpaceOnUse">
<stop stop-color="#5A5A5A"/>
<stop offset="1" stop-color="#444444"/>
</linearGradient>
<linearGradient id="paint64_linear_502_649" x1="35.0561" y1="25.1012" x2="32.2467" y2="27.9105" gradientUnits="userSpaceOnUse">
<stop stop-color="#5A5A5A"/>
<stop offset="1" stop-color="#444444"/>
</linearGradient>
<linearGradient id="paint65_linear_502_649" x1="36.4473" y1="26.4913" x2="33.6379" y2="29.3006" gradientUnits="userSpaceOnUse">
<stop stop-color="#5A5A5A"/>
<stop offset="1" stop-color="#444444"/>
</linearGradient>
<linearGradient id="paint66_linear_502_649" x1="36.755" y1="26.7998" x2="33.9456" y2="29.6092" gradientUnits="userSpaceOnUse">
<stop stop-color="#5A5A5A"/>
<stop offset="1" stop-color="#444444"/>
</linearGradient>
<linearGradient id="paint67_linear_502_649" x1="35.8422" y1="25.887" x2="33.0329" y2="28.6964" gradientUnits="userSpaceOnUse">
<stop stop-color="#5A5A5A"/>
<stop offset="1" stop-color="#444444"/>
</linearGradient>
<linearGradient id="paint68_linear_502_649" x1="34.4529" y1="24.497" x2="31.6436" y2="27.3063" gradientUnits="userSpaceOnUse">
<stop stop-color="#5A5A5A"/>
<stop offset="1" stop-color="#444444"/>
</linearGradient>
<linearGradient id="paint69_linear_502_649" x1="32.1026" y1="26.1135" x2="33.0564" y2="25.452" gradientUnits="userSpaceOnUse">
<stop stop-color="#433F43" stop-opacity="0"/>
<stop offset="0.4114" stop-color="#373537" stop-opacity="0.269"/>
<stop offset="1" stop-color="#1A1A1A"/>
</linearGradient>
<linearGradient id="paint70_linear_502_649" x1="31.9691" y1="28.0809" x2="32.969" y2="27.5887" gradientUnits="userSpaceOnUse">
<stop stop-color="#433F43" stop-opacity="0"/>
<stop offset="0.4114" stop-color="#373537" stop-opacity="0.269"/>
<stop offset="1" stop-color="#1A1A1A"/>
</linearGradient>
<linearGradient id="paint71_linear_502_649" x1="33.6436" y1="28.9274" x2="34.8128" y2="28.6044" gradientUnits="userSpaceOnUse">
<stop stop-color="#433F43" stop-opacity="0"/>
<stop offset="0.4114" stop-color="#373537" stop-opacity="0.269"/>
<stop offset="1" stop-color="#1A1A1A"/>
</linearGradient>
<linearGradient id="paint72_linear_502_649" x1="35.1905" y1="27.881" x2="36.575" y2="28.0194" gradientUnits="userSpaceOnUse">
<stop stop-color="#433F43" stop-opacity="0"/>
<stop offset="0.4114" stop-color="#373537" stop-opacity="0.269"/>
<stop offset="1" stop-color="#1A1A1A"/>
</linearGradient>
<linearGradient id="paint73_linear_502_649" x1="35.2328" y1="26.2222" x2="36.2789" y2="25.607" gradientUnits="userSpaceOnUse">
<stop stop-color="#433F43" stop-opacity="0"/>
<stop offset="0.4114" stop-color="#373537" stop-opacity="0.269"/>
<stop offset="1" stop-color="#1A1A1A"/>
</linearGradient>
<linearGradient id="paint74_linear_502_649" x1="34.0404" y1="25.5808" x2="34.0404" y2="24.3286" gradientUnits="userSpaceOnUse">
<stop stop-color="#433F43" stop-opacity="0"/>
<stop offset="0.4114" stop-color="#373537" stop-opacity="0.269"/>
<stop offset="1" stop-color="#1A1A1A"/>
</linearGradient>
<linearGradient id="paint75_linear_502_649" x1="32.416" y1="26.1745" x2="32.016" y2="25.3284" gradientUnits="userSpaceOnUse">
<stop stop-color="#433F43" stop-opacity="0"/>
<stop offset="0.4114" stop-color="#373537" stop-opacity="0.269"/>
<stop offset="1" stop-color="#1A1A1A"/>
</linearGradient>
<linearGradient id="paint76_linear_502_649" x1="32.3491" y1="28.0576" x2="32.3491" y2="27.1192" gradientUnits="userSpaceOnUse">
<stop stop-color="#433F43" stop-opacity="0"/>
<stop offset="0.4114" stop-color="#373537" stop-opacity="0.269"/>
<stop offset="1" stop-color="#1A1A1A"/>
</linearGradient>
<linearGradient id="paint77_linear_502_649" x1="34.0405" y1="28.996" x2="34.0405" y2="28.2323" gradientUnits="userSpaceOnUse">
<stop stop-color="#433F43" stop-opacity="0"/>
<stop offset="0.4114" stop-color="#373537" stop-opacity="0.269"/>
<stop offset="1" stop-color="#1A1A1A"/>
</linearGradient>
<linearGradient id="paint78_linear_502_649" x1="35.6044" y1="28.0048" x2="36.1428" y2="27.0664" gradientUnits="userSpaceOnUse">
<stop stop-color="#433F43" stop-opacity="0"/>
<stop offset="0.4114" stop-color="#373537" stop-opacity="0.269"/>
<stop offset="1" stop-color="#1A1A1A"/>
</linearGradient>
<linearGradient id="paint79_linear_502_649" x1="35.7804" y1="26.1842" x2="35.3189" y2="25.0611" gradientUnits="userSpaceOnUse">
<stop stop-color="#433F43" stop-opacity="0"/>
<stop offset="0.4114" stop-color="#373537" stop-opacity="0.269"/>
<stop offset="1" stop-color="#1A1A1A"/>
</linearGradient>
<linearGradient id="paint80_linear_502_649" x1="33.865" y1="25.006" x2="34.9419" y2="24.9752" gradientUnits="userSpaceOnUse">
<stop stop-color="#433F43" stop-opacity="0"/>
<stop offset="0.4114" stop-color="#373537" stop-opacity="0.269"/>
<stop offset="1" stop-color="#1A1A1A"/>
</linearGradient>
<linearGradient id="paint81_linear_502_649" x1="10.1904" y1="24.2593" x2="5.22245" y2="29.2272" gradientUnits="userSpaceOnUse">
<stop stop-color="#5A5A5A"/>
<stop offset="1" stop-color="#444444"/>
</linearGradient>
<linearGradient id="paint82_linear_502_649" x1="4.25096" y1="24.5187" x2="5.37015" y2="23.3995" gradientUnits="userSpaceOnUse">
<stop stop-color="#5A5A5A"/>
<stop offset="1" stop-color="#444444"/>
</linearGradient>
<linearGradient id="paint83_linear_502_649" x1="2.92414" y1="27.3263" x2="3.97217" y2="26.2784" gradientUnits="userSpaceOnUse">
<stop stop-color="#5A5A5A"/>
<stop offset="1" stop-color="#444444"/>
</linearGradient>
<linearGradient id="paint84_linear_502_649" x1="4.22042" y1="30.2286" x2="5.19832" y2="29.2506" gradientUnits="userSpaceOnUse">
<stop stop-color="#5A5A5A"/>
<stop offset="1" stop-color="#444444"/>
</linearGradient>
<linearGradient id="paint85_linear_502_649" x1="7.22605" y1="31.422" x2="8.08976" y2="30.5582" gradientUnits="userSpaceOnUse">
<stop stop-color="#5A5A5A"/>
<stop offset="1" stop-color="#444444"/>
</linearGradient>
<linearGradient id="paint86_linear_502_649" x1="10.0907" y1="30.041" x2="10.8795" y2="29.2521" gradientUnits="userSpaceOnUse">
<stop stop-color="#5A5A5A"/>
<stop offset="1" stop-color="#444444"/>
</linearGradient>
<linearGradient id="paint87_linear_502_649" x1="11.2248" y1="27.4241" x2="12.1015" y2="26.5474" gradientUnits="userSpaceOnUse">
<stop stop-color="#5A5A5A"/>
<stop offset="1" stop-color="#444444"/>
</linearGradient>
<linearGradient id="paint88_linear_502_649" x1="10.1035" y1="24.347" x2="10.9917" y2="23.4587" gradientUnits="userSpaceOnUse">
<stop stop-color="#5A5A5A"/>
<stop offset="1" stop-color="#444444"/>
</linearGradient>
<linearGradient id="paint89_linear_502_649" x1="7.09676" y1="23.1536" x2="8.06005" y2="22.1903" gradientUnits="userSpaceOnUse">
<stop stop-color="#5A5A5A"/>
<stop offset="1" stop-color="#444444"/>
</linearGradient>
<linearGradient id="paint90_linear_502_649" x1="4.25096" y1="24.5187" x2="5.37015" y2="23.3995" gradientUnits="userSpaceOnUse">
<stop stop-color="#433F43" stop-opacity="0"/>
<stop offset="0.4114" stop-color="#373537" stop-opacity="0.269"/>
<stop offset="1" stop-color="#1A1A1A"/>
</linearGradient>
<linearGradient id="paint91_linear_502_649" x1="2.9261" y1="27.3263" x2="3.97413" y2="26.2784" gradientUnits="userSpaceOnUse">
<stop stop-color="#433F43" stop-opacity="0"/>
<stop offset="0.4114" stop-color="#373537" stop-opacity="0.269"/>
<stop offset="1" stop-color="#1A1A1A"/>
</linearGradient>
<linearGradient id="paint92_linear_502_649" x1="4.22237" y1="30.2286" x2="5.20028" y2="29.2506" gradientUnits="userSpaceOnUse">
<stop stop-color="#433F43" stop-opacity="0"/>
<stop offset="0.4114" stop-color="#373537" stop-opacity="0.269"/>
<stop offset="1" stop-color="#1A1A1A"/>
</linearGradient>
<linearGradient id="paint93_linear_502_649" x1="7.228" y1="31.422" x2="8.09172" y2="30.5582" gradientUnits="userSpaceOnUse">
<stop stop-color="#433F43" stop-opacity="0"/>
<stop offset="0.4114" stop-color="#373537" stop-opacity="0.269"/>
<stop offset="1" stop-color="#1A1A1A"/>
</linearGradient>
<linearGradient id="paint94_linear_502_649" x1="10.262" y1="29.8527" x2="11.2475" y2="29.1056" gradientUnits="userSpaceOnUse">
<stop stop-color="#433F43" stop-opacity="0"/>
<stop offset="0.4114" stop-color="#373537" stop-opacity="0.269"/>
<stop offset="1" stop-color="#1A1A1A"/>
</linearGradient>
<linearGradient id="paint95_linear_502_649" x1="4.37877" y1="26.9039" x2="11.3282" y2="26.9039" gradientUnits="userSpaceOnUse">
<stop stop-color="#5A5A5A"/>
<stop offset="1" stop-color="#444444"/>
</linearGradient>
<linearGradient id="paint96_linear_502_649" x1="10.474" y1="23.9745" x2="4.11305" y2="30.3353" gradientUnits="userSpaceOnUse">
<stop stop-color="#EAF6FF"/>
<stop offset="1" stop-color="#B3DAFE"/>
</linearGradient>
<linearGradient id="paint97_linear_502_649" x1="7.54614" y1="28.5012" x2="7.54614" y2="31.4265" gradientUnits="userSpaceOnUse">
<stop stop-color="#433F43" stop-opacity="0"/>
<stop offset="0.4114" stop-color="#373537" stop-opacity="0.269"/>
<stop offset="1" stop-color="#1A1A1A"/>
</linearGradient>
<linearGradient id="paint98_linear_502_649" x1="6.40293" y1="28.0118" x2="4.33476" y2="30.08" gradientUnits="userSpaceOnUse">
<stop stop-color="#433F43" stop-opacity="0"/>
<stop offset="0.4114" stop-color="#373537" stop-opacity="0.269"/>
<stop offset="1" stop-color="#1A1A1A"/>
</linearGradient>
<linearGradient id="paint99_linear_502_649" x1="5.94844" y1="26.9037" x2="3.02316" y2="26.9037" gradientUnits="userSpaceOnUse">
<stop stop-color="#433F43" stop-opacity="0"/>
<stop offset="0.4114" stop-color="#373537" stop-opacity="0.269"/>
<stop offset="1" stop-color="#1A1A1A"/>
</linearGradient>
<linearGradient id="paint100_linear_502_649" x1="4.70866" y1="29.7397" x2="4.15338" y2="30.295" gradientUnits="userSpaceOnUse">
<stop stop-color="#5A5A5A" stop-opacity="0"/>
<stop offset="0.2334" stop-color="#5A5A5A" stop-opacity="0.039"/>
<stop offset="0.4377" stop-color="#5A5A5A" stop-opacity="0.157"/>
<stop offset="0.6311" stop-color="#5A5A5A" stop-opacity="0.357"/>
<stop offset="0.8167" stop-color="#5A5A5A" stop-opacity="0.636"/>
<stop offset="0.9971" stop-color="#5A5A5A" stop-opacity="0.993"/>
<stop offset="1" stop-color="#5A5A5A"/>
</linearGradient>
<linearGradient id="paint101_linear_502_649" x1="9.10039" y1="25.35" x2="5.63427" y2="28.8161" gradientUnits="userSpaceOnUse">
<stop stop-color="#E1D3CE"/>
<stop offset="1" stop-color="#9E9797"/>
</linearGradient>
<linearGradient id="paint102_linear_502_649" x1="7.54667" y1="27.8575" x2="7.54667" y2="29.6841" gradientUnits="userSpaceOnUse">
<stop stop-color="#433F43" stop-opacity="0"/>
<stop offset="0.4114" stop-color="#373537" stop-opacity="0.269"/>
<stop offset="1" stop-color="#1A1A1A"/>
</linearGradient>
<linearGradient id="paint103_linear_502_649" x1="6.72819" y1="27.5036" x2="5.3436" y2="28.5087" gradientUnits="userSpaceOnUse">
<stop stop-color="#433F43" stop-opacity="0"/>
<stop offset="0.4114" stop-color="#373537" stop-opacity="0.269"/>
<stop offset="1" stop-color="#1A1A1A"/>
</linearGradient>
<linearGradient id="paint104_linear_502_649" x1="6.71816" y1="27.7325" x2="7.73375" y2="26.7169" gradientUnits="userSpaceOnUse">
<stop stop-color="#433F43" stop-opacity="0"/>
<stop offset="0.4114" stop-color="#373537" stop-opacity="0.269"/>
<stop offset="1" stop-color="#1A1A1A"/>
</linearGradient>
<linearGradient id="paint105_linear_502_649" x1="6.89461" y1="27.5556" x2="8.34586" y2="26.1042" gradientUnits="userSpaceOnUse">
<stop stop-color="#E1D3CE"/>
<stop offset="1" stop-color="#9E9797"/>
</linearGradient>
<linearGradient id="paint106_linear_502_649" x1="7.98384" y1="26.4672" x2="7.00697" y2="27.4441" gradientUnits="userSpaceOnUse">
<stop stop-color="#E1D3CE"/>
<stop offset="1" stop-color="#9E9797"/>
</linearGradient>
<linearGradient id="paint107_linear_502_649" x1="7.54725" y1="27.2659" x2="7.54725" y2="27.8658" gradientUnits="userSpaceOnUse">
<stop stop-color="#433F43" stop-opacity="0"/>
<stop offset="0.4114" stop-color="#373537" stop-opacity="0.269"/>
<stop offset="1" stop-color="#1A1A1A"/>
</linearGradient>
<linearGradient id="paint108_linear_502_649" x1="7.42444" y1="26.9889" x2="6.70144" y2="27.4735" gradientUnits="userSpaceOnUse">
<stop stop-color="#433F43" stop-opacity="0"/>
<stop offset="0.4114" stop-color="#373537" stop-opacity="0.269"/>
<stop offset="1" stop-color="#1A1A1A"/>
</linearGradient>
<linearGradient id="paint109_linear_502_649" x1="7.6492" y1="24.1884" x2="4.83979" y2="26.9977" gradientUnits="userSpaceOnUse">
<stop stop-color="#5A5A5A"/>
<stop offset="1" stop-color="#444444"/>
</linearGradient>
<linearGradient id="paint110_linear_502_649" x1="8.56195" y1="25.1012" x2="5.75264" y2="27.9105" gradientUnits="userSpaceOnUse">
<stop stop-color="#5A5A5A"/>
<stop offset="1" stop-color="#444444"/>
</linearGradient>
<linearGradient id="paint111_linear_502_649" x1="9.95317" y1="26.4913" x2="7.14385" y2="29.3006" gradientUnits="userSpaceOnUse">
<stop stop-color="#5A5A5A"/>
<stop offset="1" stop-color="#444444"/>
</linearGradient>
<linearGradient id="paint112_linear_502_649" x1="10.2609" y1="26.7998" x2="7.45158" y2="29.6092" gradientUnits="userSpaceOnUse">
<stop stop-color="#5A5A5A"/>
<stop offset="1" stop-color="#444444"/>
</linearGradient>
<linearGradient id="paint113_linear_502_649" x1="9.34804" y1="25.887" x2="6.53863" y2="28.6964" gradientUnits="userSpaceOnUse">
<stop stop-color="#5A5A5A"/>
<stop offset="1" stop-color="#444444"/>
</linearGradient>
<linearGradient id="paint114_linear_502_649" x1="7.95882" y1="24.497" x2="5.14942" y2="27.3063" gradientUnits="userSpaceOnUse">
<stop stop-color="#5A5A5A"/>
<stop offset="1" stop-color="#444444"/>
</linearGradient>
<linearGradient id="paint115_linear_502_649" x1="5.60845" y1="26.1135" x2="6.56226" y2="25.452" gradientUnits="userSpaceOnUse">
<stop stop-color="#433F43" stop-opacity="0"/>
<stop offset="0.4114" stop-color="#373537" stop-opacity="0.269"/>
<stop offset="1" stop-color="#1A1A1A"/>
</linearGradient>
<linearGradient id="paint116_linear_502_649" x1="5.47495" y1="28.0809" x2="6.47498" y2="27.5887" gradientUnits="userSpaceOnUse">
<stop stop-color="#433F43" stop-opacity="0"/>
<stop offset="0.4114" stop-color="#373537" stop-opacity="0.269"/>
<stop offset="1" stop-color="#1A1A1A"/>
</linearGradient>
<linearGradient id="paint117_linear_502_649" x1="7.14957" y1="28.9274" x2="8.31873" y2="28.6044" gradientUnits="userSpaceOnUse">
<stop stop-color="#433F43" stop-opacity="0"/>
<stop offset="0.4114" stop-color="#373537" stop-opacity="0.269"/>
<stop offset="1" stop-color="#1A1A1A"/>
</linearGradient>
<linearGradient id="paint118_linear_502_649" x1="8.69639" y1="27.881" x2="10.081" y2="28.0194" gradientUnits="userSpaceOnUse">
<stop stop-color="#433F43" stop-opacity="0"/>
<stop offset="0.4114" stop-color="#373537" stop-opacity="0.269"/>
<stop offset="1" stop-color="#1A1A1A"/>
</linearGradient>
<linearGradient id="paint119_linear_502_649" x1="8.73857" y1="26.2222" x2="9.78473" y2="25.607" gradientUnits="userSpaceOnUse">
<stop stop-color="#433F43" stop-opacity="0"/>
<stop offset="0.4114" stop-color="#373537" stop-opacity="0.269"/>
<stop offset="1" stop-color="#1A1A1A"/>
</linearGradient>
<linearGradient id="paint120_linear_502_649" x1="7.54623" y1="25.5808" x2="7.54623" y2="24.3286" gradientUnits="userSpaceOnUse">
<stop stop-color="#433F43" stop-opacity="0"/>
<stop offset="0.4114" stop-color="#373537" stop-opacity="0.269"/>
<stop offset="1" stop-color="#1A1A1A"/>
</linearGradient>
<linearGradient id="paint121_linear_502_649" x1="5.92185" y1="26.1745" x2="5.52192" y2="25.3284" gradientUnits="userSpaceOnUse">
<stop stop-color="#433F43" stop-opacity="0"/>
<stop offset="0.4114" stop-color="#373537" stop-opacity="0.269"/>
<stop offset="1" stop-color="#1A1A1A"/>
</linearGradient>
<linearGradient id="paint122_linear_502_649" x1="5.85492" y1="28.0576" x2="5.85492" y2="27.1192" gradientUnits="userSpaceOnUse">
<stop stop-color="#433F43" stop-opacity="0"/>
<stop offset="0.4114" stop-color="#373537" stop-opacity="0.269"/>
<stop offset="1" stop-color="#1A1A1A"/>
</linearGradient>
<linearGradient id="paint123_linear_502_649" x1="7.54632" y1="28.996" x2="7.54632" y2="28.2323" gradientUnits="userSpaceOnUse">
<stop stop-color="#433F43" stop-opacity="0"/>
<stop offset="0.4114" stop-color="#373537" stop-opacity="0.269"/>
<stop offset="1" stop-color="#1A1A1A"/>
</linearGradient>
<linearGradient id="paint124_linear_502_649" x1="9.11029" y1="28.0048" x2="9.6487" y2="27.0664" gradientUnits="userSpaceOnUse">
<stop stop-color="#433F43" stop-opacity="0"/>
<stop offset="0.4114" stop-color="#373537" stop-opacity="0.269"/>
<stop offset="1" stop-color="#1A1A1A"/>
</linearGradient>
<linearGradient id="paint125_linear_502_649" x1="9.28617" y1="26.1842" x2="8.82464" y2="25.0611" gradientUnits="userSpaceOnUse">
<stop stop-color="#433F43" stop-opacity="0"/>
<stop offset="0.4114" stop-color="#373537" stop-opacity="0.269"/>
<stop offset="1" stop-color="#1A1A1A"/>
</linearGradient>
<linearGradient id="paint126_linear_502_649" x1="7.37092" y1="25.006" x2="8.44782" y2="24.9752" gradientUnits="userSpaceOnUse">
<stop stop-color="#433F43" stop-opacity="0"/>
<stop offset="0.4114" stop-color="#373537" stop-opacity="0.269"/>
<stop offset="1" stop-color="#1A1A1A"/>
</linearGradient>
<clipPath id="clip0_502_649">
<rect width="48" height="48" fill="white"/>
</clipPath>
</defs>
</svg>
