<svg width="210" height="119" viewBox="0 0 210 119" fill="none" xmlns="http://www.w3.org/2000/svg">
<g clip-path="url(#clip0_755_652)">
<path d="M218.945 60.156C219.446 59.9247 219.665 59.3306 219.434 58.8291C219.203 58.3276 218.608 58.1086 218.107 58.34L218.945 60.156ZM163.381 75.3626C163.239 75.8963 163.557 76.4441 164.091 76.586L172.788 78.8991C173.322 79.041 173.87 78.7234 174.012 78.1897C174.154 77.6559 173.836 77.1082 173.302 76.9662L165.571 74.9102L167.627 67.1789C167.769 66.6452 167.452 66.0974 166.918 65.9555C166.384 65.8136 165.836 66.1312 165.694 66.6649L163.381 75.3626ZM218.107 58.34C193.237 69.8144 177.983 57.6473 174.309 52.3718L172.667 53.515C176.829 59.4894 193.092 72.0838 218.945 60.156L218.107 58.34ZM174.309 52.3718C172.41 49.6458 170.853 46.217 170.804 42.8606C170.757 39.5876 172.136 36.2656 176.368 33.5939L175.3 31.9028C170.499 34.934 168.747 38.8971 168.805 42.8896C168.861 46.7987 170.648 50.6161 172.667 53.515L174.309 52.3718ZM176.368 33.5939C180.579 30.9349 187.066 30.6943 191.49 32.9171C193.67 34.0124 195.272 35.6647 195.915 37.8423C196.559 40.0237 196.295 42.9135 194.37 46.5852L196.141 47.5138C198.226 43.5364 198.668 40.1013 197.833 37.2759C196.998 34.4467 194.937 32.4106 192.388 31.13C187.355 28.6011 180.121 28.859 175.3 31.9028L176.368 33.5939ZM194.37 46.5852C190.464 54.0363 182.881 61.0705 176.18 66.282C172.845 68.8764 169.756 70.9975 167.503 72.4696C166.376 73.2054 165.459 73.7783 164.825 74.1666C164.508 74.3607 164.261 74.5086 164.095 74.6075C164.012 74.6569 163.949 74.6942 163.907 74.7188C163.886 74.7311 163.871 74.7402 163.86 74.7462C163.855 74.7492 163.851 74.7514 163.849 74.7528C163.848 74.7535 163.847 74.7539 163.847 74.7542C163.846 74.7544 163.846 74.7544 163.846 74.7545C163.846 74.7545 163.846 74.7545 164.348 75.6196C164.849 76.4847 164.85 76.4845 164.85 76.4844C164.85 76.4842 164.851 76.484 164.851 76.4837C164.852 76.4832 164.853 76.4825 164.855 76.4816C164.858 76.4797 164.862 76.4771 164.868 76.4736C164.88 76.4667 164.897 76.4566 164.92 76.4433C164.965 76.4168 165.032 76.3776 165.118 76.3261C165.291 76.2231 165.545 76.071 165.869 75.8723C166.518 75.475 167.452 74.8916 168.596 74.1441C170.884 72.6496 174.019 70.4965 177.408 67.8607C184.157 62.6117 192.028 55.3609 196.141 47.5138L194.37 46.5852Z" fill="#DE5AF9"/>
<path d="M13.9805 100.231C13.9805 100.231 15.435 98.7495 20.9623 98.7495M20.9623 98.7495C20.9623 98.7495 28.235 99.3421 29.9805 101.416M20.9623 98.7495C20.9623 98.7495 20.0896 102.601 21.5441 107.638M20.9623 98.7495C20.9623 98.7495 20.6714 94.6014 22.4168 91.6384" stroke="#DE5AF9" stroke-width="2" stroke-linecap="round" stroke-linejoin="round"/>
</g>
<defs>
<clipPath id="clip0_755_652">
<rect width="209" height="118" fill="white" transform="translate(0.980469 0.638428)"/>
</clipPath>
</defs>
</svg>
