<svg width="19" height="31" viewBox="0 0 19 31" fill="none" xmlns="http://www.w3.org/2000/svg">
<g clip-path="url(#clip0_553_1768)">
<g clip-path="url(#clip1_553_1768)">
<path d="M16.584 18.4285H13.584C13.1698 18.4285 12.834 18.7643 12.834 19.1785V22.1785C12.834 22.5927 13.1698 22.9285 13.584 22.9285H16.584C16.9982 22.9285 17.334 22.5927 17.334 22.1785V19.1785C17.334 18.7643 16.9982 18.4285 16.584 18.4285Z" stroke="#5D007F" stroke-width="1.75" stroke-linecap="round" stroke-linejoin="round"/>
<path d="M6.08398 18.4285H3.08398C2.66977 18.4285 2.33398 18.7643 2.33398 19.1785V22.1785C2.33398 22.5927 2.66977 22.9285 3.08398 22.9285H6.08398C6.4982 22.9285 6.83398 22.5927 6.83398 22.1785V19.1785C6.83398 18.7643 6.4982 18.4285 6.08398 18.4285Z" stroke="#5D007F" stroke-width="1.75" stroke-linecap="round" stroke-linejoin="round"/>
<path d="M11.334 7.92847H8.33398C7.91977 7.92847 7.58398 8.26425 7.58398 8.67847V11.6785C7.58398 12.0927 7.91977 12.4285 8.33398 12.4285H11.334C11.7482 12.4285 12.084 12.0927 12.084 11.6785V8.67847C12.084 8.26425 11.7482 7.92847 11.334 7.92847Z" stroke="#5D007F" stroke-width="1.75" stroke-linecap="round" stroke-linejoin="round"/>
<path d="M4.58398 18.4285V16.1785C4.58398 15.9796 4.663 15.7888 4.80365 15.6481C4.94431 15.5075 5.13507 15.4285 5.33398 15.4285H14.334C14.5329 15.4285 14.7237 15.5075 14.8643 15.6481C15.005 15.7888 15.084 15.9796 15.084 16.1785V18.4285" stroke="#5D007F" stroke-width="1.75" stroke-linecap="round" stroke-linejoin="round"/>
<path d="M9.83398 15.4285V12.4285" stroke="#5D007F" stroke-width="1.75" stroke-linecap="round" stroke-linejoin="round"/>
</g>
</g>
<defs>
<clipPath id="clip0_553_1768">
<rect width="18" height="30.8571" fill="white" transform="translate(0.833984)"/>
</clipPath>
<clipPath id="clip1_553_1768">
<rect width="18" height="30.8571" fill="white" transform="translate(0.833984)"/>
</clipPath>
</defs>
</svg>
