<svg width="400" height="160" viewBox="0 0 400 160" fill="none" xmlns="http://www.w3.org/2000/svg">
<g clip-path="url(#clip0_473_1870)">
<path d="M35.5349 3.42221C35.217 2.9706 34.5932 2.86223 34.1416 3.18015C33.69 3.49807 33.5816 4.12189 33.8995 4.57349L35.5349 3.42221ZM60.5011 55.3379C61.0516 55.3814 61.5332 54.9703 61.5767 54.4197L62.2853 45.4477C62.3287 44.8971 61.9177 44.4155 61.3671 44.372C60.8165 44.3286 60.335 44.7396 60.2915 45.2902L59.6616 53.2654L51.6865 52.6355C51.1359 52.5921 50.6543 53.0031 50.6108 53.5537C50.5674 54.1043 50.9784 54.5858 51.529 54.6293L60.5011 55.3379ZM33.8995 4.57349C49.6658 26.9696 40.4453 44.1657 35.9181 48.7306L37.3382 50.139C42.4652 44.9692 51.9242 26.7033 35.5349 3.42221L33.8995 4.57349ZM35.9181 48.7306C33.5787 51.0895 30.4864 53.2381 27.1936 53.8906C23.9827 54.5269 20.4666 53.7683 17.0764 50.0872L15.6053 51.4421C19.4516 55.6185 23.6656 56.6286 27.5824 55.8524C31.4173 55.0925 34.8504 52.6475 37.3382 50.139L35.9181 48.7306ZM17.0764 50.0872C13.7023 46.4237 12.2972 40.0864 13.6868 35.3342C14.3715 32.9926 15.7082 31.1192 17.7343 30.0945C19.764 29.068 22.6543 28.8079 26.6126 30.0397L27.2069 28.1301C22.9191 26.7956 19.4606 26.9802 16.8317 28.3097C14.1993 29.6411 12.5677 32.0352 11.7671 34.7729C10.1862 40.1794 11.7428 47.2483 15.6053 51.4421L17.0764 50.0872ZM26.6126 30.0397C34.6453 32.5396 42.9304 38.7317 49.2636 44.3838C52.4164 47.1975 55.0591 49.8533 56.913 51.8052C57.8397 52.7808 58.5685 53.5797 59.0647 54.1335C59.3127 54.4104 59.5025 54.626 59.6297 54.7716C59.6933 54.8444 59.7413 54.8998 59.7731 54.9366C59.789 54.955 59.8008 54.9687 59.8085 54.9777C59.8124 54.9822 59.8152 54.9855 59.817 54.9876C59.8179 54.9887 59.8185 54.9894 59.8189 54.9898C59.8191 54.9901 59.8192 54.9902 59.8192 54.9903C59.8193 54.9903 59.8192 54.9902 60.5798 54.341C61.3404 53.6918 61.3402 53.6915 61.34 53.6913C61.3398 53.6911 61.3395 53.6907 61.3392 53.6903C61.3385 53.6895 61.3376 53.6884 61.3364 53.687C61.334 53.6843 61.3305 53.6803 61.3261 53.6751C61.3172 53.6647 61.3041 53.6495 61.287 53.6296C61.2527 53.59 61.2022 53.5317 61.136 53.4559C61.0035 53.3042 60.8082 53.0824 60.5543 52.799C60.0466 52.2323 59.3046 51.419 58.3632 50.4278C56.481 48.4462 53.7984 45.7503 50.5953 42.8916C44.2166 37.1988 35.6667 30.7629 27.2069 28.1301L26.6126 30.0397Z" fill="#DE5AF9"/>
<path d="M352.949 142.62C353.326 142.216 353.303 141.583 352.899 141.207C352.494 140.83 351.862 140.853 351.485 141.257L352.949 142.62ZM315.043 127.545C314.517 127.38 313.955 127.673 313.79 128.2L311.09 136.785C310.925 137.312 311.218 137.873 311.744 138.039C312.271 138.205 312.833 137.912 312.998 137.385L315.398 129.753L323.029 132.153C323.556 132.318 324.118 132.025 324.283 131.499C324.449 130.972 324.156 130.41 323.629 130.245L315.043 127.545ZM351.485 141.257C346.761 146.333 342.255 147.944 338.188 147.69C334.069 147.432 330.197 145.249 326.813 142.328C323.439 139.415 320.641 135.845 318.678 132.983C317.699 131.556 316.934 130.314 316.415 129.431C316.156 128.989 315.958 128.637 315.825 128.398C315.759 128.278 315.71 128.186 315.677 128.125C315.661 128.095 315.648 128.072 315.641 128.057C315.637 128.05 315.634 128.044 315.632 128.041C315.631 128.039 315.631 128.038 315.63 128.037C315.63 128.037 315.63 128.037 315.63 128.037C315.63 128.037 315.63 128.037 314.743 128.499C313.857 128.962 313.857 128.962 313.857 128.963C313.858 128.963 313.858 128.964 313.858 128.965C313.859 128.966 313.86 128.968 313.861 128.971C313.864 128.976 313.868 128.983 313.873 128.992C313.882 129.01 313.896 129.036 313.914 129.07C313.951 129.138 314.004 129.237 314.074 129.364C314.215 129.618 314.421 129.985 314.691 130.444C315.23 131.36 316.019 132.643 317.029 134.115C319.042 137.051 321.952 140.773 325.506 143.842C329.05 146.902 333.327 149.39 338.064 149.686C342.854 149.985 347.912 148.032 352.949 142.62L351.485 141.257Z" fill="#DE5AF9"/>
<path d="M369.56 47.3482C369.787 47.8515 370.38 48.0753 370.883 47.8479C371.386 47.6206 371.61 47.0283 371.383 46.5249L369.56 47.3482ZM330.054 45.3918C330.023 45.9431 330.444 46.4159 330.995 46.4478L339.98 46.9667C340.531 46.9986 341.004 46.5774 341.036 46.026C341.068 45.4747 340.647 45.0019 340.095 44.97L332.109 44.5088L332.57 36.5221C332.602 35.9707 332.181 35.4979 331.629 35.4661C331.078 35.4342 330.605 35.8554 330.573 36.4068L330.054 45.3918ZM371.383 46.5249C368.345 39.7993 364.216 36.2079 359.644 34.7412C355.112 33.287 350.315 33.9774 346.015 35.4603C341.708 36.9457 337.804 39.2594 334.989 41.1864C333.578 42.1524 332.433 43.0269 331.639 43.6616C331.241 43.979 330.931 44.2368 330.719 44.4164C330.613 44.5062 330.532 44.5765 330.476 44.625C330.448 44.6493 330.427 44.6681 330.412 44.6811C330.405 44.6876 330.399 44.6927 330.395 44.6963C330.393 44.6981 330.391 44.6996 330.39 44.7007C330.389 44.7012 330.389 44.7017 330.388 44.702C330.388 44.7024 330.388 44.7027 331.053 45.4494C331.718 46.1961 331.718 46.1963 331.718 46.1963C331.718 46.1962 331.718 46.1962 331.718 46.196C331.719 46.1956 331.719 46.1948 331.721 46.1936C331.723 46.1913 331.728 46.1875 331.734 46.1823C331.745 46.1719 331.764 46.1558 331.789 46.1342C331.838 46.0912 331.913 46.0264 332.012 45.9424C332.211 45.7742 332.506 45.5287 332.887 45.2241C333.65 44.6147 334.755 43.7703 336.119 42.8367C338.854 40.9644 342.593 38.7562 346.667 37.351C350.749 35.9432 355.07 35.3741 359.033 36.6456C362.958 37.9046 366.704 41.024 369.56 47.3482L371.383 46.5249Z" fill="#DE5AF9"/>
<path d="M62.998 140.093C62.998 140.093 64.4526 138.611 69.9799 138.611M69.9799 138.611C69.9799 138.611 77.2526 139.204 78.998 141.278M69.9799 138.611C69.9799 138.611 69.1071 142.463 70.5617 147.5M69.9799 138.611C69.9799 138.611 69.689 134.463 71.4344 131.5" stroke="#DE5AF9" stroke-width="2" stroke-linecap="round" stroke-linejoin="round"/>
</g>
<defs>
<clipPath id="clip0_473_1870">
<rect width="400" height="159" fill="white" transform="translate(0 0.5)"/>
</clipPath>
</defs>
</svg>
