<svg width="92" height="22" viewBox="0 0 92 22" fill="none" xmlns="http://www.w3.org/2000/svg">
<g clip-path="url(#clip0_470_1745)">
<path d="M59.7024 8.01118C58.1511 6.5626 56.2785 5.85469 54.1133 5.85469C51.9779 5.85469 50.1054 6.56382 48.5529 8.01118C47.0017 9.42814 46.2133 11.4006 46.2133 13.9274C46.2133 16.454 47.0017 18.4254 48.5529 19.8738C50.1042 21.2909 51.9779 22 54.1133 22C56.2785 22 58.1511 21.2909 59.7024 19.8738C61.2835 18.4254 62.0718 16.454 62.0718 13.9273C62.0718 11.4006 61.2824 9.42822 59.7024 8.01118ZM51.1885 17.162C50.3703 16.3307 49.9585 15.2513 49.9585 13.9274C49.9585 12.6023 50.3671 11.5241 51.1885 10.723C52.0066 9.89161 52.9739 9.49096 54.1122 9.49096C55.2516 9.49096 56.2476 9.89161 57.0669 10.723C57.9137 11.5241 58.3255 12.6023 58.3255 13.9274C58.3255 15.2524 57.917 16.3307 57.0669 17.162C56.2487 17.963 55.2528 18.3636 54.1122 18.3636C52.9739 18.3636 52.0088 17.9631 51.1885 17.162ZM67.6046 21.5676V0.424763H63.918V21.5676H67.6046ZM79.5048 6.28524V14.7212C79.5048 16.7541 78.4614 18.1014 76.475 18.1014C74.4555 18.1014 73.4397 16.7553 73.4397 14.7212V6.28524H69.7464V15.3685C69.7464 18.8873 71.8531 21.9985 76.475 21.9985H76.5033C81.0972 21.9985 83.2002 18.8186 83.2002 15.3685V6.28524H79.5048ZM42.2887 6.28524L38.602 16.6377L34.9153 6.28524H30.9946L36.8774 21.5677H40.3311L46.2128 6.28524H42.2887ZM31.0136 13.4954C31.0136 11.2772 30.3412 9.45959 29.0241 8.01118C27.7067 6.5626 26.0119 5.85469 23.934 5.85469C21.7986 5.85469 19.9834 6.6255 18.4906 8.13454C17.0266 9.6448 16.2968 11.5543 16.2968 13.9274C16.2968 16.3004 17.0276 18.2414 18.4619 19.7505C19.926 21.2606 21.6816 22 23.7584 22C26.9493 22 29.2017 20.5213 30.5742 17.5323L27.8249 15.8684C26.9195 17.7477 25.6012 18.6721 23.817 18.6721C21.6231 18.6721 20.0718 17.1935 19.8376 14.8519H31.0126L31.0136 13.4954ZM23.8147 8.81222C25.8916 8.81222 27.2684 10.0441 27.6184 12.0166H19.8355C20.393 10.199 21.9124 8.81222 23.8147 8.81222ZM16.2969 21.5678L11.3504 12.4484C14.4795 11.2468 16.0307 9.15208 16.0307 6.10133C16.0341 2.37299 13.223 0 8.74693 0H0V21.5678H3.86225V12.8175H7.14037L11.8792 21.5678H16.2969ZM8.74693 3.57345C11.0291 3.57345 12.1709 4.52825 12.1709 6.40762C12.1709 8.28691 11.0281 9.24171 8.74693 9.24171H3.86225V3.57345H8.74693ZM89.4501 21.9987C87.0772 21.9987 85.1529 19.9714 85.1529 17.4691V2.15657H88.839V6.29118H92V9.43384H88.839V17.2201C88.839 17.9536 89.4033 18.5474 90.101 18.5474H92V21.9987H89.4501Z" fill="#858585"/>
</g>
<defs>
<clipPath id="clip0_470_1745">
<rect width="92" height="22" fill="white"/>
</clipPath>
</defs>
</svg>
