<svg width="24" height="25" viewBox="0 0 24 25" fill="none" xmlns="http://www.w3.org/2000/svg">
<path d="M12 21.6514C14.0872 21.6514 15.7793 17.5624 15.7793 12.5182C15.7793 7.47409 14.0872 3.38501 12 3.38501C9.91277 3.38501 8.22073 7.47409 8.22073 12.5182C8.22073 17.5624 9.91277 21.6514 12 21.6514Z" stroke="#41294A" stroke-width="1.7" stroke-linecap="round" stroke-linejoin="round"/>
<path d="M3.31528 9.68378H20.6848" stroke="#41294A" stroke-width="1.7" stroke-linecap="round" stroke-linejoin="round"/>
<path d="M3.54706 15.9825H20.4529" stroke="#41294A" stroke-width="1.7" stroke-linecap="round" stroke-linejoin="round"/>
<path d="M12 21.6514C17.0441 21.6514 21.1332 17.5624 21.1332 12.5182C21.1332 7.47409 17.0441 3.38501 12 3.38501C6.95587 3.38501 2.86679 7.47409 2.86679 12.5182C2.86679 17.5624 6.95587 21.6514 12 21.6514Z" stroke="#41294A" stroke-width="1.7" stroke-linecap="round" stroke-linejoin="round"/>
</svg>
